<?xml version="1.0" encoding="UTF-8"?>
<svg xmlns="http://www.w3.org/2000/svg" xmlns:xlink="http://www.w3.org/1999/xlink" viewBox="0 0 640 420">
  <defs>
    <style>
      .cls-1, .cls-2, .cls-3, .cls-4, .cls-5, .cls-6 {
        fill: none;
      }

      .cls-7 {
        clip-rule: evenodd;
      }

      .cls-7, .cls-8, .cls-9, .cls-10 {
        fill: #10162f;
      }

      .cls-2 {
        clip-path: url(#clippath-5);
      }

      .cls-3 {
        clip-path: url(#clippath-2);
      }

      .cls-4 {
        clip-path: url(#clippath-1);
      }

      .cls-5 {
        isolation: isolate;
      }

      .cls-11 {
        fill: #f5ffe3;
      }

      .cls-12 {
        fill: #f4fbff;
      }

      .cls-13 {
        fill: #fff;
      }

      .cls-14 {
        fill: #fff9e4;
      }

      .cls-15 {
        fill: #fff4ff;
      }

      .cls-16 {
        fill: #ffd200;
      }

      .cls-17 {
        fill: #fcf5fd;
      }

      .cls-18 {
        fill: #fdf9e6;
      }

      .cls-19 {
        fill: #66c3ff;
      }

      .cls-20 {
        fill: #66c4ff;
      }

      .cls-21 {
        fill: #11162d;
      }

      .cls-22 {
        fill: #221f20;
      }

      .cls-9 {
        fill-rule: evenodd;
      }

      .cls-10 {
        clip-path: url(#clippath-4);
      }

      .cls-6 {
        clip-path: url(#clippath);
      }
    </style>
    <clipPath id="clippath">
      <path class="cls-1" d="m107.55,152.45c-.74-.33-1.75-1.44-2.82-1.69-.72-.15-1.45-.23-2.19-.24-.92.07-1.83.22-2.72.44-1.07.22-1.55,1.13-2.29,1.46,1.06,1.81,2.93,2.99,5.02,3.17,3.54.36,5.01-3.15,5.01-3.15Z"/>
    </clipPath>
    <clipPath id="clippath-1">
      <path class="cls-1" d="m123.08,152.45c-.74-.33-1.75-1.44-2.83-1.69-.72-.15-1.45-.23-2.19-.24-.92.07-1.82.22-2.72.44-1.07.22-1.56,1.13-2.29,1.46,1.05,1.81,2.92,2.99,5.01,3.17,3.58.36,5.02-3.15,5.02-3.15Z"/>
    </clipPath>
    <clipPath id="clippath-2">
      <polygon class="cls-7" points="1128.34 108.74 1135.03 85.41 1138.37 101.53 1152.22 110.51 1128.34 108.74"/>
    </clipPath>
    <clipPath id="clippath-4">
      <rect class="cls-13" x="414.42" y="269" width="85.15" height="59.06"/>
    </clipPath>
    <clipPath id="clippath-5">
      <path class="cls-10" d="m500.07,328.56h-86.15v-60.06h86.15v60.06Zm-85.15-1h84.15v-58.06h-84.15v58.06Z"/>
    </clipPath>
  </defs>
  <g id="BG">
    <g>
      <rect class="cls-14" x=".5" y=".5" width="639" height="419"/>
      <path d="m639,1v418H1V1h638m1-1H0v420h640V0h0Z"/>
    </g>
  </g>
  <g id="Content">
    <g>
      <rect class="cls-15" x="397.3" y="242.5" width="202" height="103"/>
      <path class="cls-8" d="m599.8,346h-203v-104h203v104Zm-202-1h201v-102h-201v102Z"/>
    </g>
    <g>
      <rect class="cls-12" x="397.3" y="71.5" width="202" height="103"/>
      <path class="cls-8" d="m599.8,175h-203v-104h203v104Zm-202-1h201v-102h-201v102Z"/>
    </g>
    <g>
      <path d="m98.9,241.12v4.96c0,1.16.24,1.8,1.17,1.8s1.12-.75,1.12-1.92v-4.84h1.65v4.5c0,2.45-.58,3.62-2.77,3.62s-2.82-.92-2.82-3.55v-4.57h1.65Z"/>
      <path d="m108.21,244.94c-.11-.52-.53-.74-1.21-.74-.48,0-.87.2-.87.52s.34.53.77.64l.65.15c1.17.27,2.09.59,2.09,1.77,0,1.25-1.14,1.96-2.46,1.96-1.41,0-2.41-.78-2.55-2.13h1.4c.07.61.5.97,1.22.97.59,0,.96-.21.96-.61s-.42-.57-.91-.69l-.7-.16c-1.08-.25-1.82-.74-1.82-1.78,0-1.14,1.03-1.78,2.32-1.78,1.09,0,2.28.54,2.49,1.89h-1.36Z"/>
      <path d="m112.98,246.55c.05,1.09.65,1.57,1.31,1.57s1-.32,1.12-.87h1.51c-.17,1-1.06,1.99-2.65,1.99-1.85,0-2.81-1.23-2.81-3.05s1.02-3.15,2.78-3.15,2.83,1.32,2.77,3.5h-4.04Zm0-1h2.53c-.03-1.08-.66-1.36-1.29-1.36-.51,0-1.16.36-1.24,1.36Z"/>
      <path d="m121.67,243.18v1c.24-.51.7-1,1.64-1h.9v1.27h-1.13c-1,0-1.39.47-1.39,1.63v1.84h2.15v1.19h-5.2v-1.19h1.47v-3.53h-1.47v-1.2h3.04Z"/>
    </g>
    <g>
      <path d="m229.24,365.93l.27-5.81h1.73l-.5,7.98h-2.02l-.69-4.06-.68,4.06h-2.02l-.5-7.98h1.73l.26,5.81.59-3.69h1.23l.59,3.69Z"/>
      <path d="m233.87,365.55c.06,1.09.65,1.57,1.31,1.57s1-.32,1.12-.87h1.51c-.17,1-1.06,1.99-2.65,1.99-1.85,0-2.81-1.23-2.81-3.05s1.02-3.15,2.78-3.15,2.83,1.32,2.77,3.5h-4.04Zm0-1h2.53c-.03-1.08-.66-1.36-1.29-1.36-.51,0-1.16.36-1.24,1.36Z"/>
      <path d="m241.14,362.93c.28-.55.83-.88,1.51-.88,1.35,0,2.41,1.08,2.41,3.1s-1.06,3.09-2.41,3.09c-.68,0-1.23-.33-1.51-.88v.74h-1.57v-7.98h1.57v2.8Zm1.16,4.15c.75,0,1.18-.74,1.18-1.93s-.43-1.94-1.18-1.94-1.22.69-1.22,1.94.46,1.93,1.22,1.93Z"/>
      <path d="m253.94,360.12h2.47c1.54,0,2.71.4,2.71,2.06,0,.68-.33,1.28-.86,1.64.65.29,1.13.84,1.13,1.8,0,1.78-1.15,2.48-2.85,2.48h-2.61v-7.98Zm2.45,3.28c.67,0,1-.33,1-.97s-.33-.97-1-.97h-.8v1.94h.8Zm.09,1.21h-.89v2.12h.89c.81,0,1.17-.35,1.17-1.06s-.35-1.07-1.17-1.07Z"/>
      <path d="m263.88,362.18v1c.24-.51.7-1,1.64-1h.9v1.27h-1.13c-1,0-1.39.47-1.39,1.63v1.84h2.15v1.19h-5.2v-1.19h1.47v-3.53h-1.47v-1.2h3.04Z"/>
      <path d="m270.68,368.24c-1.45,0-2.83-.84-2.83-3.1s1.38-3.09,2.83-3.09,2.83.82,2.83,3.09-1.39,3.1-2.83,3.1Zm0-5.03c-.76,0-1.24.56-1.24,1.92s.48,1.94,1.24,1.94,1.24-.57,1.24-1.94-.48-1.92-1.24-1.92Z"/>
      <path d="m278.42,363.32l.54,2.61.42-3.74h1.54l-.74,5.92h-1.72l-.68-3.64-.69,3.64h-1.72l-.73-5.92h1.53l.42,3.74.55-2.61h1.28Z"/>
      <path d="m285.95,363.94c-.11-.52-.53-.74-1.21-.74-.48,0-.87.2-.87.52s.34.53.77.64l.65.15c1.17.27,2.09.59,2.09,1.77,0,1.25-1.14,1.96-2.46,1.96-1.41,0-2.41-.78-2.55-2.13h1.4c.07.61.5.97,1.22.97.59,0,.96-.21.96-.61s-.42-.57-.91-.69l-.7-.16c-1.08-.25-1.82-.74-1.82-1.78,0-1.14,1.03-1.78,2.32-1.78,1.09,0,2.28.54,2.49,1.89h-1.36Z"/>
      <path d="m290.72,365.55c.05,1.09.65,1.57,1.31,1.57s1-.32,1.12-.87h1.51c-.17,1-1.06,1.99-2.65,1.99-1.85,0-2.81-1.23-2.81-3.05s1.02-3.15,2.78-3.15,2.83,1.32,2.77,3.5h-4.04Zm0-1h2.53c-.03-1.08-.66-1.36-1.29-1.36-.51,0-1.16.36-1.24,1.36Z"/>
      <path d="m299.41,362.18v1c.24-.51.7-1,1.64-1h.9v1.27h-1.13c-1,0-1.39.47-1.39,1.63v1.84h2.15v1.19h-5.2v-1.19h1.47v-3.53h-1.47v-1.2h3.04Z"/>
    </g>
    <g>
      <path d="m482.65,364.87h-.63v3.23h-1.65v-7.98h2.12c1.82,0,3.19.38,3.19,2.37,0,1.14-.59,1.72-1.43,2.02l1.78,3.59h-1.82l-1.57-3.23Zm-.63-3.4v2.1h.53c.78,0,1.39-.19,1.39-1.04s-.61-1.06-1.39-1.06h-.53Z"/>
      <path d="m488.87,365.55c.05,1.09.65,1.57,1.31,1.57s1-.32,1.12-.87h1.51c-.16,1-1.06,1.99-2.65,1.99-1.85,0-2.81-1.23-2.81-3.05s1.02-3.15,2.78-3.15,2.83,1.32,2.77,3.5h-4.04Zm0-1h2.53c-.03-1.08-.66-1.36-1.29-1.36-.51,0-1.15.36-1.24,1.36Z"/>
      <path d="m496.28,362.18v.69c.34-.53.88-.82,1.57-.82,1.36,0,1.93.91,1.93,2.33v3.72h-1.58v-3.46c0-.63-.07-1.38-.87-1.38-.89,0-1.04.79-1.04,1.69v3.14h-1.58v-5.92h1.58Z"/>
      <path d="m505.47,360.12h1.57v7.98h-1.56v-.74c-.3.55-.85.88-1.53.88-1.35,0-2.4-1.07-2.4-3.09s1.04-3.1,2.4-3.1c.68,0,1.23.33,1.52.88v-2.8Zm-1.17,3.09c-.75,0-1.17.75-1.17,1.94s.42,1.93,1.17,1.93,1.22-.68,1.22-1.93-.46-1.94-1.22-1.94Z"/>
      <path d="m510.19,365.55c.05,1.09.65,1.57,1.31,1.57s1-.32,1.12-.87h1.51c-.17,1-1.06,1.99-2.65,1.99-1.85,0-2.81-1.23-2.81-3.05s1.02-3.15,2.78-3.15,2.83,1.32,2.77,3.5h-4.04Zm0-1h2.53c-.03-1.08-.66-1.36-1.29-1.36-.51,0-1.16.36-1.24,1.36Z"/>
      <path d="m518.88,362.18v1c.24-.51.7-1,1.64-1h.9v1.27h-1.13c-1,0-1.39.47-1.39,1.63v1.84h2.15v1.19h-5.2v-1.19h1.47v-3.53h-1.47v-1.2h3.04Z"/>
    </g>
    <g>
      <path d="m462.42,52.79c-.07-1.02-.54-1.51-1.31-1.51-.92,0-1.41.84-1.41,2.83s.48,2.84,1.41,2.84c.76,0,1.31-.62,1.31-1.63v-.19h-1.45v-1.3h3.11v4.27h-1.26l-.06-.99c-.37.79-.96,1.13-1.8,1.13-1.94,0-3-1.55-3-4.14s1.1-4.13,3.21-4.13c1.73,0,2.75,1.11,2.88,2.81h-1.63Z"/>
      <path d="m465.66,58.1v-1.19h1.72v-3.54h-1.72v-1.19h3.3v4.73h1.73v1.19h-5.03Zm3.3-7.98v1.46h-1.58v-1.46h1.58Z"/>
      <path d="m473.85,50.6h1.58v1.58h2.31v1.2h-2.31v2.86c0,.56.19.67.65.67h1.64v1.19h-2.22c-1.29,0-1.65-.43-1.65-1.61v-3.11h-1.72v-1.2h1.72v-1.58Z"/>
      <path d="m485.17,50.12v7.98h-1.65v-3.37h-2.31v3.37h-1.65v-7.98h1.65v3.19h2.31v-3.19h1.65Z"/>
      <path d="m490.45,57.45c-.34.54-.88.79-1.51.79-1.43,0-1.99-.91-1.99-2.33v-3.73h1.58v3.47c0,.63.07,1.38.87,1.38.88,0,1.04-.79,1.04-1.69v-3.15h1.58v5.92h-1.58v-.65Z"/>
      <path d="m495.46,52.93c.28-.55.83-.88,1.51-.88,1.35,0,2.41,1.08,2.41,3.1s-1.06,3.09-2.41,3.09c-.68,0-1.23-.33-1.51-.88v.74h-1.57v-7.98h1.57v2.81Zm1.16,4.15c.75,0,1.18-.74,1.18-1.93s-.43-1.94-1.18-1.94-1.22.69-1.22,1.94.46,1.93,1.22,1.93Z"/>
      <path d="m510.39,54.87h-.63v3.23h-1.65v-7.98h2.12c1.81,0,3.19.38,3.19,2.37,0,1.14-.59,1.72-1.43,2.02l1.78,3.59h-1.82l-1.57-3.23Zm-.63-3.4v2.1h.53c.78,0,1.39-.19,1.39-1.04s-.6-1.06-1.39-1.06h-.53Z"/>
      <path d="m516.61,55.55c.05,1.09.65,1.57,1.31,1.57s1-.32,1.12-.87h1.51c-.17,1-1.06,1.99-2.65,1.99-1.85,0-2.81-1.23-2.81-3.05s1.02-3.15,2.78-3.15,2.83,1.32,2.77,3.5h-4.04Zm0-1h2.53c-.03-1.08-.66-1.36-1.29-1.36-.51,0-1.16.36-1.24,1.36Z"/>
      <path d="m523.9,52.93c.29-.55.83-.88,1.52-.88,1.35,0,2.4,1.08,2.4,3.1s-1.04,3.09-2.4,3.09c-.69,0-1.23-.33-1.52-.88v2.66h-1.58v-7.84h1.58v.75Zm1.17,4.15c.74,0,1.17-.74,1.17-1.93s-.43-1.94-1.17-1.94-1.22.69-1.22,1.94.46,1.93,1.22,1.93Z"/>
      <path d="m532.1,58.24c-1.45,0-2.83-.84-2.83-3.1s1.38-3.09,2.83-3.09,2.83.83,2.83,3.09-1.39,3.1-2.83,3.1Zm0-5.03c-.76,0-1.24.56-1.24,1.93s.48,1.94,1.24,1.94,1.24-.57,1.24-1.94-.48-1.93-1.24-1.93Z"/>
    </g>
    <g>
      <path class="cls-16" d="m148.17,168.95c0-6.29,3.51-12.85,2.12-18.44-1.55-6.17-7.84-10.15-10.76-15.06-3.3-5.53-4.23-12.98-8.88-16.25-5.08-3.6-12.07-1.69-18.13-1.69s-13.06-1.92-18.14,1.69c-4.61,3.27-5.58,10.72-8.88,16.25-2.92,4.89-9.21,8.89-10.75,15.05-1.4,5.6,2.12,12.16,2.12,18.45,0,3.6-5.36,11.21-4.92,19.54.33,6.23,5.57,11.85,8.55,17.71,2.74,5.43,4.23,13.13,10.9,16.18,4.93,2.24,12.05-.58,19.89-.58s15.12,2.9,20.22.73c6.94-2.95,8.79-10.64,11.85-15.95,3.38-5.92,8.82-11.36,9.31-17.67.7-8.39-4.48-16.17-4.48-19.95Z"/>
      <path class="cls-8" d="m126.87,223.83c-2.17,0-4.51-.34-6.94-.7-2.79-.41-5.67-.83-8.65-.83s-5.77.4-8.49.79c-4.51.64-8.41,1.2-11.6-.25-5.28-2.41-7.44-7.68-9.34-12.32-.6-1.45-1.16-2.83-1.8-4.09-.92-1.81-2.09-3.65-3.22-5.42-2.53-3.97-5.15-8.08-5.38-12.49-.28-5.26,1.67-10.13,3.23-14.05.91-2.27,1.69-4.24,1.69-5.52,0-2.61-.63-5.31-1.24-7.93-.87-3.75-1.7-7.29-.86-10.64.98-3.92,3.78-6.95,6.48-9.87,1.66-1.79,3.23-3.49,4.32-5.32,1.2-2,2.09-4.3,2.96-6.52,1.55-3.97,3.02-7.73,6.05-9.88,3.93-2.79,8.89-2.41,13.69-2.03,1.58.12,3.22.25,4.75.25s3.16-.13,4.74-.25c4.8-.37,9.76-.75,13.69,2.03,3.06,2.15,4.52,5.91,6.07,9.88.86,2.22,1.76,4.51,2.95,6.52,1.1,1.84,2.67,3.54,4.34,5.35,2.7,2.92,5.49,5.93,6.47,9.85.83,3.34.01,6.88-.86,10.62-.61,2.62-1.24,5.33-1.24,7.94,0,1.34.74,3.33,1.59,5.64,1.49,4.02,3.34,9.03,2.89,14.36-.35,4.54-3.21,8.67-5.98,12.66-1.17,1.7-2.39,3.45-3.4,5.21-.73,1.26-1.38,2.65-2.06,4.11-2.14,4.56-4.57,9.73-10.02,12.05-1.45.62-3.08.84-4.82.84Zm-15.59-2.53c3.06,0,5.97.43,8.8.84,4.41.65,8.22,1.21,11.22-.07,5.1-2.17,7.34-6.94,9.51-11.56.7-1.48,1.36-2.89,2.1-4.18,1.03-1.8,2.25-3.57,3.44-5.28,2.81-4.06,5.47-7.9,5.8-12.17.43-5.11-1.38-10-2.83-13.93-.89-2.4-1.65-4.47-1.65-5.99,0-2.72.64-5.49,1.27-8.16.84-3.62,1.64-7.05.86-10.15-.92-3.67-3.62-6.59-6.24-9.42-1.7-1.84-3.31-3.58-4.46-5.51-1.24-2.07-2.15-4.41-3.02-6.66-1.49-3.83-2.9-7.45-5.71-9.43-3.64-2.58-8.41-2.21-13.03-1.85-1.6.12-3.25.25-4.81.25s-3.22-.13-4.82-.25c-4.62-.36-9.39-.73-13.03,1.85-2.79,1.98-4.2,5.59-5.7,9.42-.88,2.26-1.8,4.6-3.04,6.67-1.15,1.92-2.75,3.65-4.45,5.49-2.62,2.83-5.33,5.76-6.25,9.43-.78,3.11.02,6.54.86,10.17.62,2.67,1.27,5.44,1.27,8.16,0,1.47-.78,3.42-1.76,5.89-1.53,3.83-3.42,8.59-3.16,13.63.22,4.15,2.76,8.14,5.23,12,1.14,1.79,2.32,3.65,3.27,5.51.65,1.3,1.23,2.69,1.83,4.16,1.92,4.69,3.91,9.54,8.83,11.79,2.92,1.33,6.69.79,11.04.17,2.76-.39,5.61-.8,8.63-.8Z"/>
      <g>
        <polyline class="cls-13" points="129.97 166.95 130.62 189.77 99.69 193.56 102.94 175.98"/>
        <polygon class="cls-8" points="99.07 194.14 102.44 175.89 103.43 176.08 100.3 192.98 130.1 189.33 129.47 166.96 130.47 166.93 131.13 190.21 99.07 194.14"/>
      </g>
      <g>
        <path class="cls-13" d="m126.68,165.11c-.97-2.06-1.14-4.41-.49-6.59.69-2.2,2.2-4.09,2.77-6.32.42-2.15.29-4.38-.38-6.47-.18-1.04-.67-2.01-1.4-2.78-1.13-.97-2.83-.93-4.23-.52-1.38.54-2.79.97-4.23,1.29-1.89.17-3.77-.38-5.27-1.53-1.48-1.14-2.7-2.58-3.59-4.23-.17,1.82-1.45,3.34-3.22,3.82-1.74.44-3.58.26-5.2-.51-.31-.1-.58-.29-.79-.54-.14-.25-.21-.52-.23-.8-.26-2.17-3.71-3.14-4.16-2.23-.89,1.62-1.62,3.32-2.17,5.08-1.06,3.96-1.52,8.07-1.36,12.17v.62c.26,6.13,1.78,12.14,4.44,17.66,1.63,3.38,3.88,6.61,7.21,8.26,2.42,1.05,5.05,1.54,7.68,1.44,3.75,0,7.68-.38,10.79-2.48,3.79-2.54,5.66-7.08,7.34-11.34-1.54-.96-2.77-2.35-3.51-4.01Z"/>
        <path class="cls-8" d="m111.4,183.45c-2.46,0-4.94-.51-7.21-1.49-2.98-1.47-5.41-4.25-7.46-8.5-2.71-5.62-4.22-11.62-4.49-17.86v-.64c-.16-4.14.3-8.28,1.38-12.3.56-1.81,1.31-3.55,2.21-5.19.24-.5.9-.71,1.8-.55,1.46.25,3.11,1.37,3.3,2.96.01.24.07.44.17.62.09.1.29.23.51.31,1.57.74,3.29.91,4.91.5,1.54-.42,2.69-1.78,2.84-3.39l.16-1.65.78,1.46c.86,1.6,2.02,2.97,3.45,4.07,1.41,1.08,3.15,1.59,4.92,1.43,1.35-.31,2.75-.73,4.09-1.26,1.93-.57,3.64-.35,4.74.6.84.87,1.37,1.92,1.57,3.07.68,2.1.81,4.42.38,6.65-.32,1.28-.92,2.42-1.49,3.52-.5.96-.98,1.87-1.29,2.85-.62,2.06-.45,4.28.47,6.23h0c.71,1.58,1.85,2.89,3.32,3.8l.35.22-.15.39c-1.56,3.95-3.49,8.87-7.52,11.57-3.36,2.27-7.68,2.56-11.07,2.56-.22,0-.44.01-.67.01Zm-14.32-45.58c-.21,0-.34.04-.38.07-.88,1.59-1.59,3.27-2.13,4.99-1.05,3.9-1.5,7.94-1.34,12v.64c.26,6.07,1.74,11.95,4.39,17.44,1.95,4.04,4.23,6.67,6.98,8.03,2.32,1,4.9,1.48,7.44,1.39,3.26,0,7.39-.27,10.53-2.39,3.65-2.44,5.52-6.97,7-10.73-1.47-1-2.62-2.37-3.35-4-1.02-2.18-1.2-4.64-.52-6.94.34-1.07.86-2.06,1.36-3.02.57-1.1,1.12-2.14,1.41-3.28.4-2.04.27-4.19-.37-6.19-.18-1.02-.62-1.89-1.29-2.58-1.15-1-2.99-.6-3.73-.38-1.35.53-2.8.98-4.26,1.3-2.09.19-4.08-.39-5.69-1.62-1.21-.94-2.25-2.05-3.08-3.31-.55,1.44-1.76,2.58-3.29,2.99-1.86.47-3.82.28-5.54-.54-.34-.11-.69-.35-.96-.68-.22-.39-.32-.74-.34-1.1-.12-.95-1.11-1.63-1.92-1.92-.38-.13-.7-.18-.92-.18Z"/>
      </g>
      <g>
        <path class="cls-18" d="m93.43,163.41v-.14l-.05-.19.05.34Z"/>
        <polygon class="cls-8" points="92.94 163.48 92.89 163.15 93.87 162.94 93.93 163.41 92.94 163.48"/>
      </g>
      <path class="cls-22" d="m109.65,137.54c.05.13.11.25.16.36.02-.15.04-.29.04-.44h0l-.2.08Z"/>
      <path class="cls-8" d="m110.68,168.74l-1.24-.46c-.42-.14-.81-.36-1.16-.64-.75-.62-1.21-1.49-1.3-2.46-.09-.97.2-1.91.82-2.66,2.9-3.73,2.71-9,1.3-11.15l.42-.28c1.5,2.27,1.71,7.83-1.32,11.73-.54.65-.79,1.47-.71,2.3.08.83.48,1.59,1.12,2.12.3.25.64.43,1,.56l1.25.46-.17.47Z"/>
      <path class="cls-8" d="m111.49,173.01c-.39,0-.78-.02-1.17-.06l.11-.99c1.12.12,2.25.05,3.35-.21l.23.97c-.83.2-1.67.29-2.52.29Z"/>
      <g>
        <path class="cls-19" d="m134.06,185.04l17.5,9.31c2.54,1.35,4.72,3.29,6.36,5.66,3.62,5.26,6.3,19.07,8.01,26.23.14.59-.91.21-.78.71h-.74l-95.26.59c1.69-6.45,4.41-21.8,8.34-27.49,1.64-2.37,3.82-4.31,6.36-5.66l17.5-9.31"/>
        <path class="cls-8" d="m68.5,228.05l.17-.63c.38-1.46.81-3.34,1.31-5.53,1.69-7.44,4.01-17.64,7.1-22.12,1.68-2.42,3.94-4.44,6.54-5.82l17.5-9.31.47.88-17.5,9.31c-2.46,1.31-4.6,3.21-6.19,5.5-2.98,4.32-5.27,14.41-6.95,21.77-.43,1.89-.81,3.56-1.15,4.93l94.99-.59c.17-.21.42-.27.61-.3-.25-1.06-.52-2.25-.81-3.54-1.71-7.58-4.06-17.96-7.07-22.32-1.59-2.29-3.73-4.19-6.19-5.5l-17.5-9.31.47-.88,17.5,9.31c2.6,1.38,4.86,3.4,6.54,5.82,3.12,4.52,5.49,15.01,7.22,22.67.31,1.37.59,2.63.86,3.73.07.29,0,.5-.09.62-.16.25-.42.32-.62.36l.09.34h-1.38l-95.91.6Z"/>
      </g>
      <g>
        <path class="cls-13" d="m108.8,215.53c-1.95.07-4.09-.24-6.03-.17-1.76.07-3.63.16-5.08,1.16-1.01.8-1.84,1.79-2.45,2.93-1.61,2.63-3.16,5.31-4.62,8.01h18.19l-.02-11.93Z"/>
        <path class="cls-8" d="m109.32,227.96h-19.53l.4-.74c1.41-2.6,2.97-5.31,4.63-8.04.62-1.18,1.49-2.22,2.56-3.06,1.62-1.12,3.7-1.2,5.37-1.27,1-.03,2.05.03,3.07.08.99.06,2.02.12,2.97.08l.52-.02.02,12.95Zm-17.85-1h16.85l-.02-10.92c-.83,0-1.7-.05-2.54-.09-.99-.06-2.02-.12-2.97-.08-1.62.06-3.45.13-4.81,1.07-.94.74-1.71,1.67-2.29,2.75-1.52,2.48-2.93,4.92-4.22,7.28Z"/>
      </g>
      <g>
        <path class="cls-19" d="m163.89,227.46l-55.09-.11v-20.44h44.33c7.18,0,13.39,5.01,14.89,12.03l.78,3.62c0,2.71-2.21,4.9-4.92,4.9Z"/>
        <path class="cls-8" d="m163.9,227.96h0l-55.59-.11v-21.44h44.83c7.37,0,13.84,5.23,15.38,12.43l.79,3.73c0,2.98-2.43,5.4-5.41,5.4Zm0-1h0c1.17,0,2.28-.46,3.11-1.29.82-.82,1.28-1.91,1.3-3.06l-.77-3.57c-1.45-6.74-7.51-11.64-14.4-11.64h-43.83v19.45l54.59.11Z"/>
      </g>
      <g>
        <rect class="cls-13" x="41" y="160.33" width="77.22" height="51.44"/>
        <path class="cls-8" d="m118.72,212.27H40.5v-52.44h78.22v52.44Zm-77.22-1h76.22v-50.44H41.5v50.44Z"/>
      </g>
      <g>
        <rect class="cls-13" x="74.29" y="195.12" width="10.63" height="30.61"/>
        <path class="cls-8" d="m85.42,226.23h-11.63v-31.61h11.63v31.61Zm-10.63-1h9.63v-29.61h-9.63v29.61Z"/>
      </g>
      <g>
        <path class="cls-13" d="m58.31,223.01h42.59c1.76,0,3.18,1.42,3.18,3.18h0v1.27h-48.96v-1.27c0-1.76,1.42-3.18,3.18-3.18h0Z"/>
        <path class="cls-8" d="m104.59,227.96h-49.96v-1.77c0-2.03,1.65-3.68,3.68-3.68h42.6c2.03,0,3.68,1.65,3.68,3.68v1.77Zm-48.96-1h47.96v-.77c0-1.48-1.2-2.68-2.68-2.68h-42.6c-1.48,0-2.68,1.2-2.68,2.68v.77Z"/>
      </g>
      <g>
        <circle class="cls-13" cx="79.6" cy="191.82" r="11.14" transform="translate(-128.07 191.96) rotate(-67.5)"/>
        <path class="cls-8" d="m79.6,203.46c-6.42,0-11.65-5.22-11.65-11.64s5.22-11.65,11.65-11.65,11.64,5.22,11.64,11.65-5.22,11.64-11.64,11.64Zm0-22.29c-5.87,0-10.65,4.78-10.65,10.65s4.78,10.64,10.65,10.64,10.64-4.77,10.64-10.64-4.77-10.65-10.64-10.65Z"/>
      </g>
      <rect class="cls-8" x="122.65" y="184.71" width="1" height="19.36"/>
      <g>
        <path class="cls-13" d="m124.19,175.95h-1.69l-2.22-10.79c-.27-1.22.22-2.49,1.24-3.21.52-.35,1.13-.53,1.75-.53h0c1.69,0,3.07,1.36,3.07,3.06,0,.22-.02.43-.07.64l-2.09,10.83Z"/>
        <path class="cls-8" d="m124.6,176.45h-2.51l-2.3-11.19c-.31-1.42.26-2.88,1.45-3.72.61-.41,1.31-.62,2.04-.62h0c.95,0,1.84.37,2.51,1.04.67.67,1.05,1.57,1.05,2.52,0,.25-.03.5-.08.75l-2.17,11.23Zm-1.7-1h.87l2.01-10.43c.04-.19.06-.37.06-.55,0-.68-.27-1.33-.75-1.81-.48-.48-1.13-.75-1.81-.75h0c-.53,0-1.04.16-1.47.45-.85.6-1.26,1.66-1.03,2.68l2.14,10.4Z"/>
      </g>
      <g>
        <path class="cls-13" d="m124.47,176.49l-1.43-.85,3.49-10.43c.5-1.61,2.21-2.52,3.82-2.02.23.07.45.17.65.29h0c1.46.83,1.98,2.69,1.15,4.15-.11.2-.25.38-.4.55l-7.28,8.31Z"/>
        <path class="cls-8" d="m124.57,177.13l-2.14-1.26,3.62-10.82c.28-.9.89-1.64,1.73-2.08.84-.44,1.8-.53,2.71-.26.26.08.52.19.76.33.82.46,1.41,1.22,1.66,2.14.25.91.13,1.87-.33,2.69-.13.23-.29.45-.47.64l-7.54,8.61Zm-.93-1.71l.73.43,7-8c.14-.15.25-.3.34-.47.34-.59.42-1.28.24-1.93-.18-.66-.61-1.2-1.2-1.54-.18-.1-.36-.19-.55-.24-.65-.2-1.34-.14-1.95.18-.6.32-1.05.85-1.25,1.51l-3.37,10.06Z"/>
      </g>
      <g>
        <path class="cls-13" d="m124.4,177.08l-.85-1.44,8.26-7.27c1.24-1.15,3.17-1.07,4.32.17.16.17.3.36.41.57h0c.86,1.45.38,3.32-1.07,4.17-.2.12-.4.21-.62.28l-10.45,3.52Z"/>
        <path class="cls-8" d="m124.18,177.69l-1.26-2.14,8.57-7.54c.69-.64,1.6-.97,2.54-.93.95.04,1.83.44,2.47,1.14.18.2.35.42.48.66.99,1.68.43,3.86-1.25,4.85-.23.13-.47.24-.72.32l-10.83,3.65Zm.02-1.94l.43.73,10.07-3.39c.19-.06.36-.14.53-.24,1.21-.71,1.61-2.28.9-3.49-.1-.18-.22-.34-.35-.48-.46-.5-1.09-.79-1.78-.82-.69-.03-1.33.21-1.83.68l-7.96,7Z"/>
      </g>
      <g>
        <path class="cls-13" d="m124.06,177.58v-1.69l10.79-2.15c1.64-.37,3.27.65,3.65,2.29.05.24.08.48.08.73h0c0,1.68-1.36,3.05-3.04,3.05-.23,0-.45-.02-.68-.07l-10.8-2.16Z"/>
        <path class="cls-8" d="m135.52,180.32c-.26,0-.52-.03-.78-.09l-11.19-2.24v-2.51l11.19-2.23c1.9-.43,3.8.77,4.23,2.67.06.28.09.56.09.85,0,1.95-1.58,3.54-3.54,3.55h0Zm-10.97-3.14l10.4,2.08c.19.04.38.06.57.06h0c1.4,0,2.54-1.15,2.54-2.55,0-.21-.02-.42-.06-.62-.31-1.37-1.68-2.23-3.05-1.92l-10.4,2.07v.87Z"/>
      </g>
      <g>
        <path class="cls-13" d="m123.52,177.84l.85-1.43,10.41,3.56c1.19.39,2.03,1.46,2.13,2.71.04.62-.11,1.23-.42,1.77h0c-.84,1.46-2.71,1.96-4.17,1.12-.19-.11-.38-.25-.54-.4l-8.25-7.33Z"/>
        <path class="cls-8" d="m133.83,186.47c-.62,0-1.22-.16-1.77-.48-.23-.13-.44-.29-.63-.46l-8.55-7.6,1.26-2.14,10.79,3.69c1.38.45,2.35,1.69,2.47,3.14.04.73-.13,1.44-.49,2.06-.48.82-1.24,1.41-2.16,1.65-.31.08-.62.12-.92.12Zm-9.67-8.74l7.94,7.05c.14.13.3.24.46.34.59.34,1.28.43,1.94.26.66-.18,1.21-.6,1.55-1.19.26-.45.39-.97.36-1.49-.08-1.04-.79-1.93-1.79-2.26l-10.03-3.43-.43.73Z"/>
      </g>
      <g>
        <path class="cls-13" d="m122.92,177.79l1.44-.85,7.22,8.31c.83.93,1.02,2.26.49,3.38-.28.56-.72,1.02-1.26,1.32h0c-1.46.84-3.32.34-4.16-1.12-.11-.2-.21-.41-.27-.63l-3.45-10.43Z"/>
        <path class="cls-8" d="m129.3,190.86c-1.23,0-2.42-.64-3.08-1.77-.13-.23-.24-.48-.32-.73l-3.58-10.8,2.15-1.26,7.49,8.62c.96,1.07,1.18,2.62.57,3.93-.33.66-.83,1.19-1.47,1.54-.55.32-1.16.47-1.76.47Zm-5.77-12.85l3.33,10.04c.06.19.14.37.23.53.7,1.22,2.26,1.63,3.48.93.47-.26.83-.64,1.06-1.11.44-.94.28-2.05-.42-2.83l-6.95-8-.73.43Z"/>
      </g>
      <g>
        <path class="cls-13" d="m122.42,177.44h1.69l2.05,10.83c.36,1.65-.68,3.28-2.33,3.64-.23.05-.47.07-.71.07h0c-1.69-.01-3.05-1.4-3.04-3.09,0-.22.03-.44.08-.65l2.26-10.8Z"/>
        <path class="cls-8" d="m123.18,192.48s-.04,0-.06,0c-.95,0-1.84-.39-2.51-1.06s-1.03-1.58-1.02-2.53c0-.25.03-.51.09-.76l2.34-11.19h2.51l2.12,11.24c.42,1.9-.8,3.8-2.72,4.22-.25.05-.51.08-.76.08Zm-.35-14.54l-2.18,10.4c-.04.19-.06.37-.06.55,0,.69.26,1.33.74,1.82s1.12.76,1.81.77c.21,0,.4-.02.6-.06,1.38-.3,2.25-1.67,1.95-3.04l-1.97-10.44h-.87Z"/>
      </g>
      <g>
        <path class="cls-13" d="m122.18,176.88l1.42.85-3.63,10.39c-.51,1.61-2.23,2.5-3.83,1.99-.23-.07-.45-.17-.66-.3h0c-1.45-.86-1.94-2.73-1.08-4.18.11-.19.25-.37.4-.53l7.39-8.22Z"/>
        <path class="cls-8" d="m117.06,190.75c-.36,0-.72-.06-1.08-.17-.27-.08-.53-.2-.77-.35-.81-.48-1.39-1.25-1.63-2.17-.24-.92-.1-1.88.38-2.69.13-.22.28-.43.46-.62l7.66-8.52,2.13,1.27-3.77,10.78c-.28.89-.9,1.63-1.75,2.07-.51.27-1.07.4-1.63.4Zm5.21-13.23l-7.11,7.91c-.13.14-.24.29-.34.45-.35.59-.44,1.28-.27,1.94.17.66.59,1.22,1.18,1.56.18.11.36.19.56.25,1.34.43,2.78-.32,3.21-1.67l3.5-10.02-.72-.43Z"/>
      </g>
      <g>
        <path class="cls-13" d="m122.23,176.3l.8,1.45-8.35,7.17c-.93.82-2.26,1-3.38.47-.56-.28-1.01-.72-1.31-1.27h0c-.83-1.46-.31-3.32,1.15-4.15.2-.11.4-.2.62-.27l10.48-3.39Z"/>
        <path class="cls-8" d="m112.64,186.18c-.53,0-1.06-.12-1.56-.35-.66-.33-1.19-.84-1.54-1.48-.96-1.69-.36-3.86,1.34-4.83.23-.13.47-.23.72-.31l10.86-3.52,1.2,2.16-8.66,7.43c-.67.59-1.51.89-2.37.89Zm9.35-9.28l-10.08,3.27c-.19.06-.36.13-.53.22-1.22.69-1.65,2.25-.96,3.47.25.47.63.83,1.1,1.07.93.45,2.05.29,2.83-.39l8.05-6.91-.41-.73Z"/>
      </g>
      <g>
        <path class="cls-13" d="m122.58,175.81v1.69l-10.82,2.01c-1.23.25-2.48-.27-3.18-1.31-.33-.52-.51-1.13-.5-1.75h0c.02-.83.36-1.62.96-2.19.74-.69,1.76-.97,2.74-.75l10.8,2.31Z"/>
        <path class="cls-8" d="m111.14,180.07c-1.18,0-2.3-.58-2.98-1.6-.39-.62-.59-1.32-.58-2.04.02-.96.43-1.89,1.12-2.55.86-.8,2.05-1.13,3.19-.88l11.19,2.39v2.51l-11.23,2.08c-.24.05-.47.07-.71.07Zm0-6.14c-.64,0-1.27.24-1.75.69-.5.47-.79,1.14-.81,1.84,0,.52.14,1.03.42,1.47.58.87,1.63,1.3,2.66,1.09l10.42-1.93v-.87l-10.4-2.23c-.18-.04-.37-.06-.55-.06Z"/>
      </g>
      <g>
        <path class="cls-13" d="m123.13,175.56l-.85,1.41-10.37-3.7c-1.19-.4-2.01-1.48-2.09-2.73-.03-.62.12-1.23.45-1.76h0c.86-1.45,2.73-1.92,4.17-1.07.19.12.38.25.54.41l8.14,7.44Z"/>
        <path class="cls-8" d="m122.5,177.58l-10.75-3.84c-1.38-.47-2.33-1.71-2.42-3.17-.04-.73.14-1.44.52-2.05.48-.81,1.25-1.38,2.17-1.62.92-.24,1.87-.1,2.69.39.23.13.44.29.63.47l8.44,7.71-1.27,2.12Zm-9.6-9.79c-.21,0-.42.03-.64.08-.66.17-1.21.58-1.56,1.17-.28.45-.41.96-.38,1.48.07,1.05.75,1.95,1.75,2.29l9.99,3.56.43-.71-7.84-7.16c-.14-.14-.3-.25-.46-.35-.4-.24-.84-.36-1.29-.36Z"/>
      </g>
      <g>
        <path class="cls-13" d="m123.72,175.62l-1.45.8-7.11-8.4c-.81-.94-.98-2.27-.44-3.38.29-.55.73-1,1.28-1.3h0c.73-.39,1.58-.48,2.38-.25.98.31,1.74,1.08,2.03,2.06l3.31,10.48Z"/>
        <path class="cls-8" d="m122.15,177.05l-7.37-8.72c-.93-1.09-1.14-2.63-.51-3.93.34-.65.85-1.18,1.49-1.52.85-.46,1.83-.56,2.76-.3,1.15.36,2.03,1.26,2.37,2.4l3.43,10.87-2.17,1.19Zm-4.65-13.61c-.43,0-.87.11-1.26.32-.46.25-.83.63-1.07,1.09-.45.92-.3,2.04.38,2.83l6.85,8.09.73-.4-3.19-10.09c-.25-.83-.88-1.48-1.71-1.74-.24-.07-.48-.1-.73-.1Z"/>
      </g>
      <g>
        <circle class="cls-13" cx="123.31" cy="176.7" r="3.09"/>
        <path class="cls-8" d="m123.31,180.29c-1.98,0-3.59-1.61-3.59-3.59s1.61-3.59,3.59-3.59,3.59,1.61,3.59,3.59-1.61,3.59-3.59,3.59Zm0-6.18c-1.43,0-2.59,1.16-2.59,2.59s1.16,2.59,2.59,2.59,2.59-1.16,2.59-2.59-1.16-2.59-2.59-2.59Z"/>
      </g>
      <g>
        <rect class="cls-12" x="113.11" y="201.81" width="20.42" height="25.65"/>
        <path class="cls-8" d="m134.03,227.96h-21.42v-26.65h21.42v26.65Zm-20.42-1h19.42v-24.65h-19.42v24.65Z"/>
      </g>
      <g>
        <rect class="cls-17" x="136.6" y="215.78" width="2.35" height="9.1"/>
        <path class="cls-8" d="m139.45,225.38h-3.35v-10.1h3.35v10.1Zm-2.35-1h1.35v-8.1h-1.35v8.1Z"/>
      </g>
      <g>
        <path class="cls-12" d="m132,222.9h11.17c1.76,0,3.18,1.42,3.18,3.18h0v1.27h-17.53v-1.27c0-1.76,1.42-3.18,3.18-3.18h0Z"/>
        <path class="cls-8" d="m146.85,227.85h-18.53v-1.77c0-2.03,1.65-3.68,3.68-3.68h11.17c2.03,0,3.68,1.65,3.68,3.68v1.77Zm-17.53-1h16.53v-.77c0-1.48-1.2-2.68-2.68-2.68h-11.17c-1.48,0-2.68,1.2-2.68,2.68v.77Z"/>
      </g>
      <g>
        <rect class="cls-13" x="125.22" y="206.25" width="24.76" height="12.75"/>
        <path class="cls-8" d="m150.48,219.5h-25.76v-13.75h25.76v13.75Zm-24.76-1h23.76v-11.75h-23.76v11.75Z"/>
      </g>
      <g>
        <path class="cls-16" d="m132.85,146.32c-9.83,3.75-40.35,2.99-39.48-10.63"/>
        <path class="cls-8" d="m118.65,148.72c-7.93,0-16.71-1.39-21.72-5.09-2.9-2.14-4.27-4.82-4.07-7.98l1,.06c-.18,2.79,1.06,5.19,3.66,7.11,8.49,6.25,28.14,5.69,35.15,3.02l.36.93c-3.06,1.17-8.48,1.94-14.37,1.94Z"/>
      </g>
      <path class="cls-16" d="m120.07,130.08c9.14,0,16.54,3.51,16.54,7.85s-3.08,7.85-9.23,7.85c-9.14,0-33.83-6.15-33.83-12.3,0-4.33,17.38-3.39,26.51-3.39Z"/>
      <path class="cls-8" d="m107.2,152.7c-1.79-1.77-4.31-1.75-5.65-1.58-1.92.25-3.32,1.02-3.59,1.48l-.86-.51c.52-.88,2.34-1.7,4.33-1.96,1.53-.2,4.39-.21,6.48,1.86l-.7.71Z"/>
      <g class="cls-6">
        <circle class="cls-8" cx="102.5" cy="152.87" r="2.18"/>
      </g>
      <path class="cls-8" d="m122.73,152.7c-1.8-1.78-4.32-1.75-5.66-1.58-1.92.25-3.31,1.02-3.59,1.48l-.86-.51c.52-.88,2.33-1.7,4.32-1.96,1.52-.2,4.39-.22,6.49,1.86l-.7.71Z"/>
      <g class="cls-4">
        <circle class="cls-8" cx="118.07" cy="152.87" r="2.18"/>
      </g>
      <g class="cls-5">
        <path class="cls-21" d="m131.51,209.63c1.7,0,3.01.73,3.01,3.12s-1.34,3.12-3.05,3.12h-1.43v-6.24h1.46Zm-.06,1.05h-.11v4.13h.11c1.05,0,1.7-.42,1.7-2.07s-.65-2.07-1.7-2.07Z"/>
        <path class="cls-21" d="m135.86,209.63h3.78v1.11h-2.49v1.39h2.31v1.11h-2.31v1.52h2.49v1.11h-3.78v-6.24Z"/>
        <path class="cls-21" d="m144.08,215.87h-1.61l-1.61-6.24h1.4l1.02,4.59,1.02-4.59h1.38l-1.6,6.24Z"/>
      </g>
    </g>
    <g>
      <polygon class="cls-9" points="1128.34 108.74 1135.03 85.41 1138.37 101.53 1152.22 110.51 1128.34 108.74"/>
      <g class="cls-3">
        <rect class="cls-8" x="497.32" y="-478.27" width="753.62" height="1291.92" transform="translate(547.37 995.61) rotate(-79.32)"/>
      </g>
    </g>
    <g>
      <rect class="cls-8" x="412.57" y="270.67" width="85.47" height="59.33"/>
      <g>
        <rect class="cls-13" x="414.42" y="269" width="85.15" height="59.06"/>
        <path class="cls-8" d="m500.07,328.56h-86.15v-60.06h86.15v60.06Zm-85.15-1h84.15v-58.06h-84.15v58.06Z"/>
        <g class="cls-2">
          <g>
            <rect class="cls-13" x="414.26" y="268.87" width="85.47" height="59.33"/>
            <path class="cls-8" d="m500.23,328.7h-86.47v-60.33h86.47v60.33Zm-85.47-1h84.47v-58.33h-84.47v58.33Z"/>
          </g>
        </g>
      </g>
      <path class="cls-8" d="m500.07,328.56h-86.15v-60.06h86.15v60.06Zm-85.15-1h84.15v-58.06h-84.15v58.06Z"/>
    </g>
    <g>
      <g>
        <g>
          <path class="cls-13" d="m587.3,310.62v-10.7h-56.3v10.7h0c0,2.61,12.6,4.73,28.15,4.73s28.15-2.12,28.15-4.73c0,0,0,0,0,0Z"/>
          <path class="cls-8" d="m559.15,315.85c-11.52,0-28.65-1.39-28.65-5.23v-11.2h57.3v11.2c0,3.84-17.13,5.23-28.65,5.23Zm-27.65-15.42v10.2c0,1.77,10.52,4.23,27.65,4.23s27.65-2.46,27.65-4.23v-10.2h-55.3Z"/>
        </g>
        <g>
          <ellipse class="cls-13" cx="559.15" cy="299.65" rx="28.15" ry="4.93"/>
          <path class="cls-8" d="m559.15,305.07c-14.24,0-28.65-1.86-28.65-5.43s14.41-5.43,28.65-5.43,28.65,1.86,28.65,5.43-14.41,5.43-28.65,5.43Zm0-9.85c-17.13,0-27.65,2.58-27.65,4.43s10.52,4.43,27.65,4.43,27.65-2.58,27.65-4.43-10.52-4.43-27.65-4.43Z"/>
        </g>
      </g>
      <g>
        <g>
          <path class="cls-13" d="m587.3,299.88v-10.7h-56.3v10.7h0c0,2.61,12.6,4.73,28.15,4.73s28.15-2.12,28.15-4.73c0,0,0,0,0,0Z"/>
          <path class="cls-8" d="m559.15,305.1c-11.52,0-28.65-1.39-28.65-5.23v-11.2h57.3v11.2c0,3.84-17.13,5.23-28.65,5.23Zm-27.65-15.42v10.2c0,1.77,10.52,4.23,27.65,4.23s27.65-2.46,27.65-4.23v-10.2h-55.3Z"/>
        </g>
        <g>
          <ellipse class="cls-13" cx="559.15" cy="288.9" rx="28.15" ry="4.93"/>
          <path class="cls-8" d="m559.15,294.33c-14.24,0-28.65-1.86-28.65-5.43s14.41-5.43,28.65-5.43,28.65,1.86,28.65,5.43-14.41,5.43-28.65,5.43Zm0-9.85c-17.13,0-27.65,2.58-27.65,4.43s10.52,4.43,27.65,4.43,27.65-2.58,27.65-4.43-10.52-4.43-27.65-4.43Z"/>
        </g>
      </g>
      <g>
        <g>
          <path class="cls-13" d="m587.3,289.13v-10.7h-56.3v10.7h0c0,2.61,12.6,4.73,28.15,4.73s28.15-2.12,28.15-4.73c0,0,0,0,0,0Z"/>
          <path class="cls-8" d="m559.15,294.36c-11.52,0-28.65-1.39-28.65-5.23v-11.2h57.3v11.2c0,3.84-17.13,5.23-28.65,5.23Zm-27.65-15.42v10.2c0,1.77,10.52,4.23,27.65,4.23s27.65-2.46,27.65-4.23v-10.2h-55.3Z"/>
        </g>
        <g>
          <ellipse class="cls-13" cx="559.15" cy="278.16" rx="28.15" ry="4.93"/>
          <path class="cls-8" d="m559.15,283.59c-14.24,0-28.65-1.86-28.65-5.43s14.41-5.43,28.65-5.43,28.65,1.86,28.65,5.43-14.41,5.43-28.65,5.43Zm0-9.85c-17.13,0-27.65,2.58-27.65,4.43s10.52,4.43,27.65,4.43,27.65-2.58,27.65-4.43-10.52-4.43-27.65-4.43Z"/>
        </g>
      </g>
    </g>
    <g>
      <path class="cls-8" d="m329.39,261h-125.73v-.82c0-6.44,5.24-11.68,11.68-11.68h102.87c6.53,0,11.84,5.31,11.84,11.84,0,.36-.3.66-.66.66Zm-124.73-1h124.39c-.18-5.82-4.97-10.5-10.84-10.5h-102.87c-5.83,0-10.58,4.69-10.68,10.5Z"/>
      <path class="cls-8" d="m214,257.16c-1.33,0-2.4-1.08-2.4-2.4s1.08-2.41,2.4-2.41,2.4,1.08,2.4,2.41-1.08,2.4-2.4,2.4Zm0-3.81c-.77,0-1.4.63-1.4,1.41s.63,1.4,1.4,1.4,1.4-.63,1.4-1.4-.63-1.41-1.4-1.41Z"/>
      <path class="cls-8" d="m219.69,257.16c-1.33,0-2.4-1.08-2.4-2.4s1.08-2.41,2.4-2.41,2.4,1.08,2.4,2.41-1.08,2.4-2.4,2.4Zm0-3.81c-.77,0-1.4.63-1.4,1.41s.63,1.4,1.4,1.4,1.4-.63,1.4-1.4-.63-1.41-1.4-1.41Z"/>
      <path class="cls-8" d="m225.37,257.16c-1.33,0-2.4-1.08-2.4-2.4s1.08-2.41,2.4-2.41,2.4,1.08,2.4,2.41-1.08,2.4-2.4,2.4Zm0-3.81c-.77,0-1.4.63-1.4,1.41s.63,1.4,1.4,1.4,1.4-.63,1.4-1.4-.63-1.41-1.4-1.41Z"/>
      <g>
        <path class="cls-8" d="m202.18,262.9h125.18c.12,0,.21.1.21.21v80.67c0,.12-.1.21-.21.21h-125.18v-81.1h0Z"/>
        <path class="cls-8" d="m327.36,344.5h-125.68v-82.1h125.68c.39,0,.71.32.71.71v80.67c0,.39-.32.71-.71.71Zm-124.68-1h124.39v-80.1h-124.39v80.1Z"/>
      </g>
      <g>
        <path class="cls-11" d="m329.34,341.6h-125.18v-81.1h125.18c.12,0,.21.1.21.21v80.67c-3.05,0-.1.21-.21.21Z"/>
        <path class="cls-8" d="m329.34,342.1h-125.68v-82.1h125.68c.39,0,.71.32.71.71v81.17h-.22v.21h-.49Zm-124.68-1h123.11c.15-.18.51-.21,1.29-.21v-79.89h-124.39v80.1Z"/>
      </g>
      <g>
        <rect class="cls-13" x="231.64" y="265.02" width="91.66" height="11.09" rx="5.55" ry="5.55"/>
        <path class="cls-8" d="m317.76,276.62h-80.57c-3.33,0-6.05-2.71-6.05-6.05s2.71-6.05,6.05-6.05h80.57c3.33,0,6.05,2.71,6.05,6.05s-2.71,6.05-6.05,6.05Zm-80.57-11.09c-2.78,0-5.05,2.26-5.05,5.05s2.26,5.05,5.05,5.05h80.57c2.78,0,5.05-2.26,5.05-5.05s-2.26-5.05-5.05-5.05h-80.57Z"/>
      </g>
      <path class="cls-8" d="m213.39,273.22c-.13,0-.26-.05-.35-.15l-2.57-2.57c-.2-.2-.2-.51,0-.71l2.57-2.57c.2-.2.51-.2.71,0s.2.51,0,.71l-2.22,2.22,2.22,2.22c.2.2.2.51,0,.71-.1.1-.23.15-.35.15Z"/>
      <path class="cls-8" d="m222.18,273.22c-.13,0-.26-.05-.35-.15-.2-.2-.2-.51,0-.71l2.22-2.22-2.22-2.22c-.2-.2-.2-.51,0-.71s.51-.2.71,0l2.57,2.57c.2.2.2.51,0,.71l-2.57,2.57c-.1.1-.23.15-.35.15Z"/>
      <g>
        <path class="cls-8" d="m240.46,269.3c.36,0,.72.17.72,1.09v2.46h-.6v-2.16c0-.51,0-.9-.3-.9s-.39.35-.39,1.07v1.98h-.6v-2.16c0-.51,0-.9-.29-.9s-.4.36-.4,1.08v1.97h-.6v-3.5h.57v.37c.12-.23.31-.43.64-.43s.47.21.55.44c.15-.27.38-.44.7-.44Z"/>
        <path class="cls-8" d="m242.18,274v-.51h.63c.36,0,.48-.05.66-.55l.03-.08-1.31-3.5h.66l.95,2.7.93-2.7h.62l-1.29,3.65c-.25.69-.44.99-1.18.99h-.69Z"/>
        <path class="cls-8" d="m248.7,270.32c-.08-.39-.38-.52-.78-.52-.35,0-.7.14-.7.45,0,.27.18.4.53.47l.39.08c.6.12,1.25.34,1.25,1.05,0,.74-.64,1.11-1.4,1.11-.91,0-1.37-.57-1.43-1.13h.63c.08.4.33.64.81.64.37,0,.78-.13.78-.54,0-.33-.29-.49-.73-.57l-.44-.08c-.55-.11-.99-.38-.99-.99,0-.68.73-.97,1.32-.97.74,0,1.25.39,1.38,1.01h-.62Z"/>
        <path class="cls-8" d="m252.54,269.36v2.98h.99v.51h-2.58v-.51h.99v-2.47h-.99v-.51h1.59Zm0-1.22v.71h-.6v-.71h.6Z"/>
        <path class="cls-8" d="m255.56,268.48h.6v.88h1.43v.51h-1.43v2.02c0,.36.02.45.35.45h1.08v.51h-1.21c-.64,0-.82-.15-.82-.88v-2.11h-.99v-.51h.99v-.88Z"/>
        <path class="cls-8" d="m259.01,271.12c0-1.12.66-1.83,1.59-1.83,1.02,0,1.61.75,1.56,2h-2.52c0,.7.39,1.16.94,1.16.52,0,.78-.25.9-.64h.62c-.14.66-.69,1.13-1.51,1.13-1.06,0-1.59-.79-1.59-1.82Zm.64-.33h1.87c0-.57-.31-1.01-.92-1.01-.57,0-.92.33-.95,1.01Z"/>
        <path class="cls-8" d="m264.4,272.86v-.75h.75v.75h-.75Z"/>
        <path class="cls-8" d="m268.98,269.3c.8,0,1.62.55,1.62,1.82s-.82,1.82-1.62,1.82-1.62-.55-1.62-1.82.82-1.82,1.62-1.82Zm0,3.14c.53,0,.99-.39.99-1.32s-.45-1.32-.99-1.32-.99.39-.99,1.32.46,1.32.99,1.32Z"/>
        <path class="cls-8" d="m272.42,269.86c.18-.3.47-.55,1.03-.55.84,0,1.1.56,1.1,1.33v2.22h-.6v-2.01c0-.57-.05-1.03-.7-1.03-.54,0-.83.4-.83,1.15v1.9h-.6v-3.5h.6v.49Z"/>
        <path class="cls-8" d="m277.41,269.36v.62c.17-.39.51-.62.94-.62h.6v.55h-.59c-.67,0-.93.44-.93,1.21v1.23h1.2v.51h-2.78v-.51h.99v-2.47h-.99v-.51h1.58Z"/>
        <path class="cls-8" d="m280.01,271.12c0-1.12.66-1.83,1.59-1.83,1.02,0,1.61.75,1.56,2h-2.52c0,.7.39,1.16.94,1.16.52,0,.78-.25.9-.64h.62c-.14.66-.69,1.13-1.51,1.13-1.06,0-1.59-.79-1.59-1.82Zm.64-.33h1.87c0-.57-.31-1.01-.92-1.01-.57,0-.92.33-.95,1.01Z"/>
        <path class="cls-8" d="m285.01,269.86c.18-.3.47-.55,1.03-.55.84,0,1.1.56,1.1,1.33v2.22h-.6v-2.01c0-.57-.05-1.03-.7-1.03-.54,0-.83.4-.83,1.15v1.9h-.6v-3.5h.6v.49Z"/>
        <path class="cls-8" d="m290.76,268.15h.6v4.71h-.59v-.49c-.2.33-.51.58-1.04.58-.81,0-1.41-.66-1.41-1.82s.6-1.82,1.41-1.82c.53,0,.84.25,1.03.58v-1.74Zm-.91,1.66c-.6,0-.9.49-.9,1.32s.31,1.33.9,1.33c.5,0,.94-.41.94-1.33s-.44-1.32-.94-1.32Z"/>
        <path class="cls-8" d="m292.6,271.12c0-1.12.66-1.83,1.59-1.83,1.02,0,1.61.75,1.56,2h-2.52c0,.7.39,1.16.94,1.16.52,0,.78-.25.9-.64h.62c-.14.66-.69,1.13-1.51,1.13-1.06,0-1.59-.79-1.59-1.82Zm.64-.33h1.87c0-.57-.31-1.01-.92-1.01-.57,0-.92.33-.95,1.01Z"/>
        <path class="cls-8" d="m298.41,269.36v.62c.17-.39.51-.62.94-.62h.6v.55h-.59c-.67,0-.93.44-.93,1.21v1.23h1.2v.51h-2.78v-.51h.99v-2.47h-.99v-.51h1.58Z"/>
        <path class="cls-8" d="m302.19,272.86v-.75h.75v.75h-.75Z"/>
        <path class="cls-8" d="m308.24,270.53h-.6c-.08-.43-.4-.73-.83-.73-.52,0-.95.45-.95,1.33s.43,1.33.95,1.33c.47,0,.77-.34.85-.72h.62c-.1.7-.72,1.21-1.5,1.21-.97,0-1.55-.75-1.55-1.82s.6-1.82,1.61-1.82c.81,0,1.35.59,1.4,1.22Z"/>
        <path class="cls-8" d="m310.97,269.3c.8,0,1.62.55,1.62,1.82s-.82,1.82-1.62,1.82-1.62-.55-1.62-1.82.82-1.82,1.62-1.82Zm0,3.14c.53,0,.99-.39.99-1.32s-.46-1.32-.99-1.32-.99.39-.99,1.32.46,1.32.99,1.32Z"/>
        <path class="cls-8" d="m316.04,269.3c.36,0,.72.17.72,1.09v2.46h-.6v-2.16c0-.51,0-.9-.3-.9s-.39.35-.39,1.07v1.98h-.6v-2.16c0-.51,0-.9-.29-.9s-.4.36-.4,1.08v1.97h-.6v-3.5h.57v.37c.12-.23.31-.43.64-.43s.47.21.55.44c.15-.27.38-.44.7-.44Z"/>
      </g>
    </g>
    <g>
      <path class="cls-8" d="m540.91,320.85c.4,0,.7.11.92.32.22.21.33.5.33.87s-.11.67-.33.88c-.22.21-.52.32-.92.32h-.95v1.81h-.52v-4.2h1.48Zm.53,1.72c.12-.13.17-.3.17-.52s-.06-.39-.17-.52-.3-.19-.54-.19h-.95v1.42h.95c.24,0,.42-.06.54-.19Z"/>
      <path class="cls-8" d="m543.27,324.94c-.19-.1-.35-.24-.48-.42-.12-.18-.2-.37-.24-.58l.43-.27c.15.62.46.93.93.93.2,0,.37-.06.5-.18.13-.12.19-.3.19-.53,0-.15-.04-.28-.12-.39-.08-.11-.18-.2-.3-.27-.12-.07-.29-.16-.51-.26-.27-.13-.49-.29-.65-.46s-.24-.41-.24-.68c0-.2.05-.37.14-.53.09-.16.22-.28.38-.37s.34-.13.54-.13c.28,0,.5.06.67.18s.31.29.4.51l-.43.27c-.13-.31-.34-.47-.65-.47-.16,0-.3.05-.4.15-.1.1-.15.22-.15.36s.04.26.11.36c.08.1.17.18.28.25.11.07.27.15.47.23.31.14.55.3.71.49.17.19.25.43.25.74,0,.24-.05.46-.16.64-.11.18-.25.33-.44.43-.19.1-.39.15-.63.15s-.44-.05-.64-.15Z"/>
      <path class="cls-8" d="m546.61,324.84c-.29-.17-.52-.42-.69-.74-.17-.32-.26-.71-.26-1.15s.08-.83.26-1.15c.17-.32.4-.57.69-.74s.6-.25.95-.25.65.08.94.25c.29.17.52.42.69.74.17.32.25.71.25,1.15,0,.28-.04.54-.11.77-.07.23-.17.44-.31.62l.4.4-.36.36-.38-.38c-.16.12-.33.22-.53.29-.2.07-.4.1-.6.1-.34,0-.66-.08-.95-.25Zm1.72-.48l-.48-.49.36-.35.44.44c.17-.28.25-.62.25-1.02,0-.36-.06-.67-.18-.92s-.28-.44-.49-.56-.43-.19-.68-.19-.48.06-.68.19-.37.31-.49.56-.18.56-.18.92.06.67.18.92.28.44.49.56.43.19.68.19c.29,0,.55-.08.77-.25Z"/>
      <path class="cls-8" d="m550.27,320.85h.52v3.71h1.9v.49h-2.42v-4.2Z"/>
      <path class="cls-8" d="m556.15,320.85c.36,0,.68.08.97.25s.52.4.7.72c.17.32.26.69.26,1.13s-.09.82-.26,1.13c-.17.32-.4.56-.7.72s-.62.25-.97.25h-1.17v-4.2h1.17Zm.65,3.55c.22-.11.4-.29.53-.53.14-.24.2-.55.2-.92s-.07-.68-.2-.92-.31-.42-.53-.53c-.22-.11-.46-.17-.73-.17h-.57v3.23h.57c.26,0,.51-.05.73-.17Z"/>
      <path class="cls-8" d="m558.94,324.87c-.18-.15-.26-.38-.26-.69,0-.32.12-.57.36-.74s.57-.25.98-.25h.53v-.13c0-.22-.06-.38-.18-.48-.12-.1-.27-.15-.46-.15-.33,0-.55.16-.66.49l-.44-.1c.04-.25.16-.45.37-.61.21-.15.45-.23.74-.23.34,0,.61.1.82.3s.31.48.31.84v1.94h-.39l-.09-.44c-.21.32-.52.49-.94.49-.27,0-.5-.08-.67-.23Zm1.16-.31c.13-.07.23-.17.32-.31.08-.14.13-.32.13-.53v-.1h-.51c-.28,0-.49.05-.63.14-.14.1-.21.23-.21.41,0,.15.04.27.13.35s.21.13.38.13c.14,0,.27-.03.4-.1Z"/>
      <path class="cls-8" d="m562.24,324.85c-.16-.16-.23-.41-.23-.73v-1.66h-.51v-.44h.51v-.91l.5-.32v1.22h.81v.44h-.81v1.69c0,.33.14.49.42.49.14,0,.25-.03.35-.08l.13.42c-.14.07-.32.11-.52.11-.27,0-.49-.08-.64-.24Z"/>
      <path class="cls-8" d="m564.07,324.87c-.18-.15-.26-.38-.26-.69,0-.32.12-.57.36-.74s.57-.25.98-.25h.53v-.13c0-.22-.06-.38-.18-.48-.12-.1-.27-.15-.46-.15-.33,0-.55.16-.66.49l-.44-.1c.04-.25.16-.45.37-.61.21-.15.45-.23.74-.23.34,0,.61.1.82.3s.31.48.31.84v1.94h-.39l-.09-.44c-.21.32-.52.49-.94.49-.27,0-.5-.08-.67-.23Zm1.16-.31c.13-.07.23-.17.32-.31.08-.14.13-.32.13-.53v-.1h-.51c-.28,0-.49.05-.63.14-.14.1-.21.23-.21.41,0,.15.04.27.13.35s.21.13.38.13c.14,0,.27-.03.4-.1Z"/>
      <path class="cls-8" d="m567.86,324.97c-.17-.08-.29-.18-.36-.29v.37h-.5v-4.25h.5v1.6c.1-.13.23-.23.38-.31s.32-.12.5-.12c.29,0,.53.07.74.2s.36.32.46.55c.1.24.16.5.16.8s-.05.57-.16.8c-.1.24-.26.42-.46.55s-.45.2-.74.2c-.18,0-.36-.04-.52-.13Zm1.13-.63c.16-.21.24-.48.24-.81s-.08-.6-.24-.81c-.16-.21-.38-.31-.65-.31s-.49.1-.64.31c-.16.21-.24.48-.24.81s.08.6.23.81c.16.21.37.31.65.31s.49-.1.65-.31Z"/>
      <path class="cls-8" d="m570.54,324.87c-.18-.15-.26-.38-.26-.69,0-.32.12-.57.36-.74.24-.17.56-.25.98-.25h.53v-.13c0-.22-.06-.38-.18-.48-.12-.1-.27-.15-.46-.15-.33,0-.55.16-.66.49l-.44-.1c.04-.25.16-.45.37-.61.21-.15.45-.23.74-.23.34,0,.61.1.82.3s.31.48.31.84v1.94h-.39l-.09-.44c-.21.32-.52.49-.94.49-.27,0-.5-.08-.67-.23Zm1.16-.31c.13-.07.23-.17.32-.31.08-.14.13-.32.13-.53v-.1h-.51c-.28,0-.49.05-.63.14-.14.1-.21.23-.21.41,0,.15.04.27.13.35s.21.13.38.13c.14,0,.27-.03.4-.1Z"/>
      <path class="cls-8" d="m573.61,324.86c-.19-.16-.32-.35-.38-.58l.41-.22c.06.19.15.34.26.44.11.1.26.16.45.16.15,0,.26-.04.35-.12s.13-.19.13-.34c0-.13-.05-.23-.17-.31-.11-.08-.27-.16-.49-.24-.24-.09-.43-.2-.56-.33s-.19-.31-.19-.53c0-.24.08-.43.25-.58.17-.15.38-.22.63-.22.39,0,.68.16.88.47l-.32.29c-.14-.21-.32-.32-.56-.32-.11,0-.21.03-.28.1s-.11.16-.11.27.05.21.15.28c.1.07.27.16.52.25.49.18.74.47.74.86,0,.28-.09.51-.26.67-.18.16-.41.25-.7.25-.31,0-.56-.08-.75-.24Z"/>
      <path class="cls-8" d="m578.53,323.61h-2.23c.01.31.1.56.25.75.16.19.37.29.64.29.21,0,.38-.05.51-.14s.25-.24.35-.45l.42.18c-.14.3-.32.51-.53.65s-.46.2-.77.2c-.28,0-.53-.07-.74-.21-.21-.14-.37-.33-.48-.57-.11-.24-.17-.5-.17-.78s.06-.54.17-.78c.11-.24.27-.43.48-.57s.45-.21.74-.21.52.06.72.19.36.3.47.52.16.46.16.72v.21Zm-.5-.43c-.04-.24-.13-.42-.27-.56-.14-.14-.34-.21-.58-.21-.21,0-.39.07-.54.2-.15.13-.25.32-.31.57h1.69Z"/>
    </g>
    <g>
      <path class="cls-8" d="m431.51,292.83c-.31-.18-.56-.44-.74-.79-.19-.35-.28-.77-.28-1.27s.09-.92.29-1.27c.19-.35.44-.61.75-.79.31-.18.65-.27,1.01-.27.46,0,.84.12,1.16.37.31.25.52.58.64,1l-.53.14c-.11-.31-.27-.55-.48-.72-.21-.17-.47-.26-.78-.26-.29,0-.54.07-.76.21s-.39.34-.52.61c-.13.27-.19.6-.19.98s.06.72.19.99c.12.27.3.47.52.61s.47.21.76.21c.39,0,.7-.12.91-.35.21-.23.32-.56.33-.97h-.99v-.5h1.54v2.29h-.48l-.06-.63c-.11.2-.28.37-.5.49-.22.13-.48.19-.77.19-.36,0-.69-.09-1-.27Z"/>
      <path class="cls-8" d="m435.23,289.11c-.08-.08-.11-.17-.11-.28s.04-.21.11-.28c.08-.07.17-.11.28-.11s.21.04.28.11c.08.07.11.17.11.28s-.04.21-.11.28c-.08.07-.17.11-.28.11s-.2-.04-.28-.11Zm0,.67h.54v3.28h-.54v-3.28Z"/>
      <path class="cls-8" d="m437.14,292.84c-.17-.17-.25-.44-.25-.79v-1.79h-.55v-.48h.55v-.98l.54-.34v1.33h.88v.48h-.88v1.83c0,.36.15.53.46.53.15,0,.27-.03.38-.09l.14.46c-.16.08-.34.12-.56.12-.29,0-.53-.09-.7-.26Z"/>
      <path class="cls-8" d="m439.51,288.45v1.98c.11-.22.26-.4.47-.52.2-.12.42-.19.66-.19.32,0,.57.09.75.27s.27.44.27.78v2.28h-.53v-2.15c0-.23-.05-.4-.16-.52-.1-.12-.26-.18-.46-.18-.18,0-.34.06-.49.17-.15.11-.27.28-.36.5-.09.22-.14.48-.14.78v1.39h-.54v-4.6h.54Z"/>
      <path class="cls-8" d="m442.9,292.83c-.18-.18-.27-.44-.27-.77v-2.28h.54v2.17c0,.22.05.4.15.51.1.12.25.17.45.17.18,0,.34-.06.49-.17s.26-.29.35-.51c.08-.22.13-.48.13-.77v-1.39h.53v3.28h-.53v-.63c-.12.21-.27.37-.46.5-.19.12-.4.19-.63.19-.31,0-.55-.09-.73-.27Z"/>
      <path class="cls-8" d="m447.16,292.96c-.18-.09-.31-.19-.39-.31v.4h-.54v-4.6h.54v1.74c.11-.14.25-.25.42-.33.17-.08.35-.13.54-.13.31,0,.58.07.8.22.22.15.39.35.5.6.11.25.17.55.17.87s-.06.62-.17.87c-.11.26-.28.46-.5.6-.22.15-.49.22-.8.22-.2,0-.39-.05-.57-.14Zm1.22-.68c.17-.22.26-.51.26-.88s-.09-.65-.26-.87c-.17-.22-.41-.33-.71-.33s-.53.11-.7.33c-.17.22-.26.51-.26.87s.08.65.25.88c.17.22.4.33.7.33s.53-.11.71-.33Z"/>
      <path class="cls-8" d="m452.5,292.84c-.31-.17-.56-.44-.75-.79-.19-.35-.29-.78-.29-1.27s.09-.92.29-1.27c.19-.35.44-.61.75-.79.31-.18.65-.26,1.01-.26.45,0,.83.12,1.14.35.31.23.52.56.64.97l-.53.14c-.09-.3-.24-.53-.45-.7-.21-.16-.47-.25-.8-.25-.28,0-.53.07-.76.21-.22.14-.4.34-.52.61-.13.27-.19.6-.19.98s.06.71.19.98c.12.27.3.47.52.61.22.14.48.21.76.21.33,0,.59-.08.8-.25s.35-.4.45-.7l.53.14c-.12.42-.33.74-.64.98-.31.23-.69.35-1.14.35-.36,0-.7-.09-1.01-.26Z"/>
      <path class="cls-8" d="m456.63,292.87c-.24-.15-.42-.36-.55-.62s-.19-.54-.19-.84.06-.58.19-.84.31-.47.55-.62c.24-.15.52-.23.83-.23s.59.08.83.23c.24.15.42.36.55.62s.19.54.19.84-.06.58-.19.84-.31.47-.55.62c-.24.15-.52.23-.83.23s-.59-.08-.83-.23Zm1.38-.42c.15-.11.27-.26.35-.45.08-.18.12-.38.12-.59s-.04-.41-.12-.59c-.08-.18-.19-.33-.35-.45-.15-.11-.34-.17-.55-.17s-.4.06-.55.17c-.15.11-.27.26-.35.45-.08.18-.12.38-.12.59s.04.41.12.59c.08.18.2.33.35.45.15.11.34.17.55.17s.4-.06.55-.17Z"/>
      <path class="cls-8" d="m460.37,289.77v.63c.12-.21.27-.37.46-.5.19-.12.4-.19.62-.19.31,0,.55.09.74.27.18.18.27.44.27.77v2.28h-.53v-2.17c0-.22-.05-.4-.15-.51-.1-.12-.25-.17-.45-.17-.18,0-.34.06-.48.18-.14.12-.26.29-.34.5-.08.22-.13.48-.13.77v1.4h-.54v-3.28h.54Z"/>
      <path class="cls-8" d="m463.97,289.77v.63c.12-.21.27-.37.46-.5.19-.12.4-.19.62-.19.31,0,.55.09.73.27.18.18.27.44.27.77v2.28h-.53v-2.17c0-.22-.05-.4-.15-.51-.1-.12-.25-.17-.45-.17-.18,0-.34.06-.48.18s-.26.29-.34.5c-.08.22-.13.48-.13.77v1.4h-.54v-3.28h.54Z"/>
      <path class="cls-8" d="m469.8,291.5h-2.41c.01.33.1.6.27.81s.4.31.69.31c.23,0,.41-.05.55-.15.14-.1.27-.26.38-.49l.46.2c-.16.32-.35.55-.57.7-.22.15-.5.22-.83.22-.31,0-.57-.08-.8-.23-.23-.15-.4-.36-.52-.62s-.18-.54-.18-.84.06-.59.18-.85.29-.46.52-.61.49-.23.8-.23.56.07.78.21c.22.14.39.33.51.56.12.23.17.49.17.78v.23Zm-.55-.46c-.04-.25-.14-.46-.29-.61s-.36-.22-.62-.22c-.23,0-.42.07-.58.21-.17.14-.28.35-.33.62h1.83Z"/>
      <path class="cls-8" d="m471.09,292.87c-.23-.16-.4-.36-.51-.62-.11-.26-.17-.54-.17-.84s.06-.58.17-.84c.12-.26.29-.46.51-.62.22-.16.5-.23.82-.23.69,0,1.14.31,1.37.92l-.48.19c-.17-.42-.47-.62-.89-.62-.31,0-.54.11-.7.34-.16.22-.24.52-.24.87s.08.64.24.87c.16.23.39.34.7.34.22,0,.4-.05.54-.16.14-.1.26-.26.35-.47l.48.19c-.12.3-.29.53-.52.69-.23.15-.51.23-.85.23s-.59-.08-.82-.23Z"/>
      <path class="cls-8" d="m474.42,292.84c-.17-.17-.25-.44-.25-.79v-1.79h-.55v-.48h.55v-.98l.54-.34v1.33h.88v.48h-.88v1.83c0,.36.15.53.46.53.15,0,.27-.03.38-.09l.14.46c-.16.08-.34.12-.56.12-.29,0-.53-.09-.7-.26Z"/>
      <path class="cls-8" d="m478.93,291.5h-2.41c.01.33.1.6.27.81s.4.31.69.31c.23,0,.41-.05.55-.15.14-.1.27-.26.38-.49l.46.2c-.16.32-.35.55-.57.7-.22.15-.5.22-.83.22-.31,0-.57-.08-.8-.23-.23-.15-.4-.36-.52-.62s-.18-.54-.18-.84.06-.59.18-.85.29-.46.52-.61.49-.23.8-.23.56.07.78.21c.22.14.39.33.51.56.12.23.17.49.17.78v.23Zm-.55-.46c-.04-.25-.14-.46-.29-.61s-.36-.22-.62-.22c-.23,0-.42.07-.58.21-.17.14-.28.35-.33.62h1.83Z"/>
      <path class="cls-8" d="m480.2,292.88c-.22-.15-.38-.35-.49-.6-.11-.25-.17-.55-.17-.87s.06-.62.17-.87c.11-.26.28-.46.49-.6s.48-.22.79-.22c.21,0,.4.04.57.12.17.08.31.2.42.34v-1.74h.53v4.6h-.53v-.43c-.08.13-.21.24-.4.34-.18.09-.38.14-.58.14-.31,0-.57-.07-.79-.22Zm1.56-.59c.17-.22.25-.51.25-.88s-.08-.65-.25-.87c-.17-.22-.4-.33-.7-.33s-.53.11-.71.33c-.17.22-.26.51-.26.87s.09.65.26.88c.17.22.41.33.71.33s.53-.11.7-.33Z"/>
      <path class="cls-8" d="m432.75,297.5h.53l1.61,4.55h-.59l-.42-1.22h-1.73l-.42,1.22h-.6l1.61-4.55Zm.96,2.8l-.7-2.04-.7,2.04h1.39Z"/>
      <path class="cls-8" d="m436,298.77v.42c.08-.13.21-.24.38-.33.18-.09.37-.14.58-.14.31,0,.58.07.8.22s.39.35.5.6c.11.25.17.55.17.87s-.06.62-.17.87c-.11.26-.28.46-.5.6s-.49.22-.8.22c-.19,0-.37-.04-.55-.13-.18-.08-.31-.2-.41-.33v1.74h-.54v-4.6h.54Zm1.61,2.51c.17-.22.26-.51.26-.88s-.09-.65-.26-.87c-.17-.22-.41-.33-.71-.33s-.53.11-.7.33c-.17.22-.25.51-.25.87s.08.65.26.88c.17.22.4.33.7.33s.53-.11.71-.33Z"/>
      <path class="cls-8" d="m439.75,298.77v.42c.08-.13.21-.24.38-.33.17-.09.37-.14.58-.14.31,0,.58.07.8.22.22.15.39.35.5.6.11.25.17.55.17.87s-.06.62-.17.87c-.11.26-.28.46-.5.6-.22.15-.49.22-.8.22-.19,0-.37-.04-.55-.13-.18-.08-.31-.2-.41-.33v1.74h-.54v-4.6h.54Zm1.61,2.51c.17-.22.26-.51.26-.88s-.09-.65-.26-.87c-.17-.22-.41-.33-.71-.33s-.53.11-.7.33c-.17.22-.25.51-.25.87s.09.65.26.88c.17.22.4.33.7.33s.53-.11.71-.33Z"/>
      <path class="cls-8" d="m442.96,297.45h.54v4.6h-.54v-4.6Z"/>
      <path class="cls-8" d="m444.46,298.11c-.08-.08-.11-.17-.11-.28s.04-.21.11-.28c.08-.07.17-.11.28-.11s.21.04.28.11c.08.07.11.17.11.28s-.04.21-.11.28c-.08.07-.17.11-.28.11s-.2-.04-.28-.11Zm0,.67h.54v3.28h-.54v-3.28Z"/>
      <path class="cls-8" d="m446.47,301.87c-.22-.16-.4-.36-.51-.62-.12-.26-.17-.54-.17-.84s.06-.58.17-.84c.11-.26.29-.46.51-.62.23-.16.5-.23.82-.23.68,0,1.14.31,1.37.92l-.48.19c-.17-.42-.47-.62-.89-.62-.31,0-.54.11-.7.34-.16.22-.24.52-.24.87s.08.64.24.87.39.34.7.34c.22,0,.4-.05.54-.16.14-.1.26-.26.35-.47l.48.19c-.12.3-.29.53-.52.69-.23.15-.51.23-.85.23s-.59-.08-.82-.23Z"/>
      <path class="cls-8" d="m449.46,301.85c-.19-.17-.29-.42-.29-.74,0-.35.13-.61.39-.8.26-.18.61-.28,1.06-.28h.57v-.14c0-.24-.06-.41-.19-.52s-.3-.17-.5-.17c-.36,0-.6.18-.71.53l-.48-.11c.04-.27.18-.49.4-.66.22-.17.49-.25.8-.25.37,0,.67.11.89.32.23.21.34.52.34.91v2.1h-.42l-.1-.47c-.23.35-.57.53-1.02.53-.29,0-.54-.08-.73-.25Zm1.25-.34c.14-.07.25-.18.34-.34.09-.15.14-.35.14-.58v-.1h-.55c-.3,0-.53.05-.68.16-.15.1-.23.25-.23.45,0,.17.05.29.15.38.1.09.23.14.41.14.15,0,.29-.04.43-.11Z"/>
      <path class="cls-8" d="m453.02,301.84c-.17-.17-.25-.44-.25-.79v-1.79h-.55v-.48h.55v-.98l.54-.34v1.33h.88v.48h-.88v1.83c0,.36.15.53.46.53.15,0,.27-.03.38-.09l.14.46c-.16.08-.34.12-.56.12-.29,0-.53-.09-.7-.26Z"/>
      <path class="cls-8" d="m454.91,298.11c-.08-.08-.11-.17-.11-.28s.04-.21.11-.28c.08-.07.17-.11.28-.11s.21.04.28.11c.08.07.11.17.11.28s-.04.21-.11.28c-.08.07-.17.11-.28.11s-.2-.04-.28-.11Zm0,.67h.54v3.28h-.54v-3.28Z"/>
      <path class="cls-8" d="m456.98,301.87c-.24-.15-.42-.36-.55-.62s-.19-.54-.19-.84.06-.58.19-.84.31-.47.55-.62c.24-.15.52-.23.83-.23s.59.08.83.23c.24.15.42.36.55.62s.19.54.19.84-.06.58-.19.84-.31.47-.55.62c-.24.15-.52.23-.83.23s-.59-.08-.83-.23Zm1.38-.42c.15-.11.27-.26.35-.45.08-.18.12-.38.12-.59s-.04-.41-.12-.59c-.08-.18-.19-.33-.35-.45-.15-.11-.34-.17-.55-.17s-.4.06-.55.17c-.15.11-.27.26-.35.45-.08.18-.12.38-.12.59s.04.41.12.59c.08.18.2.33.35.45.15.11.34.17.55.17s.4-.06.55-.17Z"/>
      <path class="cls-8" d="m460.71,298.77v.63c.12-.21.27-.37.46-.5.19-.12.4-.19.62-.19.31,0,.55.09.73.27.18.18.27.44.27.77v2.28h-.53v-2.17c0-.22-.05-.4-.15-.51-.1-.12-.25-.17-.45-.17-.18,0-.34.06-.48.18s-.26.29-.34.5c-.08.22-.13.48-.13.77v1.4h-.54v-3.28h.54Z"/>
      <path class="cls-8" d="m466.29,301.84c-.31-.17-.56-.44-.75-.79-.19-.35-.29-.78-.29-1.27s.1-.92.29-1.27c.19-.35.44-.61.75-.79s.65-.26,1.01-.26c.45,0,.83.12,1.14.35.31.23.52.56.64.97l-.53.14c-.09-.3-.24-.53-.45-.7-.21-.16-.47-.25-.8-.25-.28,0-.53.07-.76.21-.22.14-.4.34-.52.61s-.19.6-.19.98.06.71.19.98.3.47.52.61c.22.14.48.21.76.21.33,0,.59-.08.8-.25.21-.17.35-.4.45-.7l.53.14c-.12.42-.33.74-.64.98-.31.23-.69.35-1.14.35-.36,0-.7-.09-1.01-.26Z"/>
      <path class="cls-8" d="m470.43,301.87c-.24-.15-.42-.36-.55-.62s-.19-.54-.19-.84.06-.58.19-.84.31-.47.55-.62c.24-.15.52-.23.83-.23s.59.08.83.23c.24.15.42.36.55.62s.19.54.19.84-.06.58-.19.84-.31.47-.55.62c-.24.15-.52.23-.83.23s-.59-.08-.83-.23Zm1.38-.42c.15-.11.27-.26.35-.45.08-.18.12-.38.12-.59s-.04-.41-.12-.59c-.08-.18-.19-.33-.35-.45-.15-.11-.34-.17-.55-.17s-.4.06-.55.17c-.15.11-.27.26-.35.45-.08.18-.12.38-.12.59s.04.41.12.59c.08.18.2.33.35.45.15.11.34.17.55.17s.4-.06.55-.17Z"/>
      <path class="cls-8" d="m474.1,301.88c-.22-.15-.38-.35-.49-.6-.11-.25-.17-.55-.17-.87s.06-.62.17-.87c.11-.26.28-.46.49-.6s.48-.22.79-.22c.21,0,.4.04.57.12.17.08.31.2.42.34v-1.74h.53v4.6h-.53v-.43c-.08.13-.21.24-.4.34-.18.09-.38.14-.58.14-.31,0-.57-.07-.79-.22Zm1.56-.59c.17-.22.25-.51.25-.88s-.08-.65-.25-.87c-.17-.22-.4-.33-.7-.33s-.53.11-.71.33c-.17.22-.26.51-.26.87s.09.65.26.88c.17.22.41.33.71.33s.53-.11.7-.33Z"/>
      <path class="cls-8" d="m480.14,300.5h-2.41c.01.33.1.6.27.81s.4.31.69.31c.22,0,.41-.05.55-.15.14-.1.27-.26.38-.49l.46.2c-.16.32-.35.55-.57.7-.22.15-.5.22-.84.22-.31,0-.57-.08-.8-.23-.23-.15-.4-.36-.52-.62s-.18-.54-.18-.84.06-.59.18-.85.29-.46.52-.61c.22-.15.49-.23.8-.23s.56.07.78.21.39.33.51.56c.12.23.18.49.18.78v.23Zm-.55-.46c-.04-.25-.14-.46-.29-.61-.16-.15-.36-.22-.62-.22-.22,0-.42.07-.58.21-.16.14-.28.35-.33.62h1.83Z"/>
    </g>
    <g>
      <path class="cls-8" d="m421.57,311.27c-.12-.38-.17-.82-.17-1.33s.06-.95.17-1.33c.12-.38.27-.74.47-1.07h.47c-.2.33-.35.69-.45,1.08-.1.39-.15.83-.15,1.32s.05.94.15,1.32c.1.38.25.74.45,1.08h-.47c-.2-.34-.36-.69-.47-1.07Z"/>
      <path class="cls-8" d="m423.18,307.85h2.44v.49h-1.92v1.24h1.56v.48h-1.56v1.51h1.98v.49h-2.5v-4.2Z"/>
      <path class="cls-8" d="m427.08,310.41l-.86-1.39h.53l.59.96.59-.96h.53l-.86,1.39,1.01,1.64h-.52l-.77-1.21-.76,1.21h-.52l1.01-1.64Z"/>
      <path class="cls-8" d="m429.64,309.02v.39c.07-.12.19-.22.35-.31s.34-.13.53-.13c.29,0,.53.07.74.2s.36.32.46.55c.1.24.16.5.16.8s-.05.57-.16.8c-.1.24-.26.42-.46.55s-.45.2-.74.2c-.17,0-.34-.04-.5-.12-.16-.08-.29-.18-.38-.31v1.6h-.5v-4.25h.5Zm1.48,2.32c.16-.21.24-.48.24-.81s-.08-.6-.24-.81-.38-.31-.65-.31-.49.1-.65.31-.23.48-.23.81.08.6.24.81.37.31.65.31.49-.1.65-.31Z"/>
      <path class="cls-8" d="m433.12,309.02v.52c.1-.18.22-.33.37-.42.15-.1.32-.15.52-.15.13,0,.27.03.43.09l-.1.46c-.12-.07-.25-.1-.39-.1-.24,0-.44.13-.59.38s-.23.62-.23,1.1v1.14h-.5v-3.02h.5Z"/>
      <path class="cls-8" d="m437.38,310.61h-2.23c.01.31.1.56.25.75.16.19.37.29.64.29.21,0,.38-.05.51-.14s.25-.24.35-.45l.42.18c-.14.3-.32.51-.53.65s-.46.2-.77.2c-.28,0-.53-.07-.74-.21-.21-.14-.37-.33-.48-.57-.11-.24-.17-.5-.17-.78s.06-.54.17-.78c.11-.24.27-.43.48-.57s.45-.21.74-.21.52.06.72.19.36.3.47.52.16.46.16.72v.21Zm-.5-.43c-.04-.24-.13-.42-.27-.56-.14-.14-.34-.21-.58-.21-.21,0-.39.07-.54.2-.15.13-.25.32-.31.57h1.69Z"/>
      <path class="cls-8" d="m438.23,311.86c-.19-.16-.32-.35-.38-.58l.41-.22c.06.19.15.34.26.44.11.1.27.16.45.16.15,0,.27-.04.35-.12s.13-.19.13-.34c0-.13-.05-.23-.17-.31s-.27-.16-.49-.24c-.24-.09-.42-.2-.55-.33s-.2-.31-.2-.53c0-.24.08-.43.25-.58.17-.15.38-.22.63-.22.39,0,.68.16.88.47l-.32.29c-.14-.21-.32-.32-.56-.32-.11,0-.21.03-.28.1-.08.07-.11.16-.11.27s.05.21.15.28c.1.07.27.16.53.25.49.18.74.47.74.86,0,.28-.09.51-.26.67s-.41.25-.7.25c-.31,0-.56-.08-.75-.24Z"/>
      <path class="cls-8" d="m440.79,311.86c-.19-.16-.32-.35-.38-.58l.41-.22c.06.19.15.34.26.44.11.1.26.16.45.16.15,0,.26-.04.35-.12s.13-.19.13-.34c0-.13-.05-.23-.17-.31-.11-.08-.27-.16-.49-.24-.24-.09-.43-.2-.56-.33s-.19-.31-.19-.53c0-.24.08-.43.25-.58.17-.15.38-.22.63-.22.39,0,.68.16.88.47l-.32.29c-.14-.21-.32-.32-.56-.32-.11,0-.21.03-.28.1s-.11.16-.11.27.05.21.15.28c.1.07.27.16.52.25.49.18.74.47.74.86,0,.28-.09.51-.26.67-.18.16-.41.25-.7.25-.31,0-.56-.08-.75-.24Z"/>
      <path class="cls-8" d="m443.24,311.96c-.07-.07-.1-.16-.1-.26s.04-.2.1-.27c.07-.07.16-.11.26-.11s.2.04.27.11.11.16.11.27-.04.19-.11.26c-.07.07-.16.1-.27.1s-.19-.04-.26-.1Z"/>
      <path class="cls-8" d="m444.56,312.65c.09-.1.13-.25.13-.46v-3.16h.5v3.17c0,.33-.08.59-.23.77-.15.18-.38.3-.69.36l-.12-.45c.19-.05.32-.13.41-.22Zm.12-4.24c-.07-.07-.1-.15-.1-.25s.04-.19.1-.26c.07-.07.16-.1.25-.1.1,0,.19.03.26.1.07.07.1.15.1.26s-.04.19-.1.26c-.07.07-.16.1-.26.1s-.18-.04-.25-.11Z"/>
      <path class="cls-8" d="m446.28,311.86c-.19-.16-.32-.35-.38-.58l.41-.22c.06.19.15.34.26.44.11.1.27.16.45.16.15,0,.27-.04.35-.12s.13-.19.13-.34c0-.13-.05-.23-.17-.31s-.27-.16-.49-.24c-.24-.09-.42-.2-.55-.33s-.2-.31-.2-.53c0-.24.08-.43.25-.58.17-.15.38-.22.63-.22.39,0,.68.16.88.47l-.32.29c-.14-.21-.32-.32-.56-.32-.11,0-.21.03-.28.1-.08.07-.11.16-.11.27s.05.21.15.28c.1.07.27.16.53.25.49.18.74.47.74.86,0,.28-.09.51-.26.67s-.41.25-.7.25c-.31,0-.56-.08-.75-.24Z"/>
      <path class="cls-8" d="m448.77,311.42h.7l-.67,1.2h-.37l.33-1.2Z"/>
      <path class="cls-8" d="m451.87,311.86c-.19-.16-.32-.35-.38-.58l.41-.22c.06.19.15.34.26.44.11.1.27.16.45.16.15,0,.27-.04.35-.12s.13-.19.13-.34c0-.13-.05-.23-.17-.31s-.27-.16-.49-.24c-.24-.09-.42-.2-.55-.33s-.2-.31-.2-.53c0-.24.08-.43.25-.58.17-.15.38-.22.63-.22.39,0,.68.16.88.47l-.32.29c-.14-.21-.32-.32-.56-.32-.11,0-.21.03-.28.1-.08.07-.11.16-.11.27s.05.21.15.28c.1.07.27.16.53.25.49.18.74.47.74.86,0,.28-.09.51-.26.67s-.41.25-.7.25c-.31,0-.56-.08-.75-.24Z"/>
      <path class="cls-8" d="m454.62,311.85c-.16-.16-.23-.41-.23-.73v-1.66h-.51v-.44h.51v-.91l.5-.32v1.22h.81v.44h-.81v1.69c0,.33.14.49.42.49.14,0,.25-.03.35-.08l.13.42c-.14.07-.32.11-.52.11-.27,0-.49-.08-.64-.24Z"/>
      <path class="cls-8" d="m456.44,311.87c-.18-.15-.26-.38-.26-.69,0-.32.12-.57.36-.74s.57-.25.98-.25h.53v-.13c0-.22-.06-.38-.18-.48-.12-.1-.27-.15-.46-.15-.33,0-.55.16-.66.49l-.44-.1c.04-.25.16-.45.37-.61.21-.15.45-.23.74-.23.34,0,.61.1.82.3s.31.48.31.84v1.94h-.39l-.09-.44c-.21.32-.52.49-.94.49-.27,0-.5-.08-.67-.23Zm1.16-.31c.13-.07.23-.17.32-.31.08-.14.13-.32.13-.53v-.1h-.51c-.28,0-.49.05-.63.14-.14.1-.21.23-.21.41,0,.15.04.27.13.35s.21.13.38.13c.14,0,.27-.03.4-.1Z"/>
      <path class="cls-8" d="m459.74,311.85c-.16-.16-.23-.41-.23-.73v-1.66h-.51v-.44h.51v-.91l.5-.32v1.22h.81v.44h-.81v1.69c0,.33.14.49.42.49.14,0,.25-.03.35-.08l.13.42c-.14.07-.32.11-.52.11-.27,0-.49-.08-.64-.24Z"/>
      <path class="cls-8" d="m461.49,308.41c-.07-.07-.1-.15-.1-.25s.04-.19.1-.26c.07-.07.16-.1.25-.1.1,0,.19.03.26.1.07.07.1.15.1.26s-.04.19-.1.26c-.07.07-.16.1-.26.1s-.18-.04-.25-.11Zm0,.62h.5v3.02h-.5v-3.02Z"/>
      <path class="cls-8" d="m463.36,311.88c-.21-.14-.37-.33-.47-.57-.11-.24-.16-.49-.16-.77s.05-.54.16-.77c.11-.24.26-.43.47-.57.21-.14.46-.22.76-.22.63,0,1.05.28,1.27.85l-.44.17c-.16-.38-.43-.58-.82-.58-.28,0-.5.1-.65.31-.15.21-.22.48-.22.8s.07.59.22.8c.15.21.36.31.65.31.2,0,.37-.05.5-.14.13-.1.24-.24.32-.43l.44.17c-.11.28-.27.49-.48.63-.21.14-.48.21-.78.21s-.55-.07-.76-.22Z"/>
      <path class="cls-8" d="m467.22,309.47v-.44h.45v-.08c0-.36.12-.65.35-.85s.53-.3.9-.3c.14,0,.28.01.41.04.13.03.24.07.33.13l-.13.43c-.19-.11-.4-.16-.62-.16s-.41.06-.55.18c-.14.12-.2.28-.2.49v.11h1.72v3.02h-.49v-2.58h-1.22v2.58h-.49v-2.58h-.45Z"/>
      <path class="cls-8" d="m470.79,307.8h.5v4.25h-.5v-4.25Z"/>
      <path class="cls-8" d="m474.76,310.61h-2.23c.01.31.1.56.25.75.16.19.37.29.64.29.21,0,.38-.05.51-.14.13-.09.25-.24.35-.45l.42.18c-.14.3-.32.51-.53.65s-.46.2-.77.2c-.28,0-.53-.07-.74-.21-.21-.14-.37-.33-.48-.57-.11-.24-.17-.5-.17-.78s.05-.54.17-.78c.11-.24.27-.43.48-.57s.45-.21.74-.21.52.06.72.19.36.3.47.52c.11.22.16.46.16.72v.21Zm-.5-.43c-.04-.24-.13-.42-.27-.56-.14-.14-.34-.21-.58-.21-.21,0-.39.07-.54.2-.15.13-.25.32-.31.57h1.69Z"/>
      <path class="cls-8" d="m475.61,311.86c-.19-.16-.32-.35-.38-.58l.41-.22c.06.19.15.34.26.44.11.1.26.16.45.16.15,0,.26-.04.35-.12s.13-.19.13-.34c0-.13-.05-.23-.17-.31-.11-.08-.27-.16-.49-.24-.24-.09-.43-.2-.56-.33s-.19-.31-.19-.53c0-.24.08-.43.25-.58.17-.15.38-.22.63-.22.39,0,.68.16.88.47l-.32.29c-.14-.21-.32-.32-.56-.32-.11,0-.21.03-.28.1s-.11.16-.11.27.05.21.15.28c.1.07.27.16.52.25.49.18.74.47.74.86,0,.28-.09.51-.26.67-.18.16-.41.25-.7.25-.31,0-.56-.08-.75-.24Z"/>
      <path class="cls-8" d="m478.09,311.42h.7l-.67,1.2h-.37l.33-1.2Z"/>
      <path class="cls-8" d="m483.57,310.61h-2.23c.01.31.1.56.25.75.16.19.37.29.64.29.21,0,.38-.05.51-.14s.25-.24.35-.45l.42.18c-.14.3-.32.51-.53.65s-.46.2-.77.2c-.28,0-.53-.07-.74-.21-.21-.14-.37-.33-.48-.57-.11-.24-.17-.5-.17-.78s.06-.54.17-.78c.11-.24.27-.43.48-.57s.45-.21.74-.21.52.06.72.19.36.3.47.52.16.46.16.72v.21Zm-.5-.43c-.04-.24-.13-.42-.27-.56-.14-.14-.34-.21-.58-.21-.21,0-.39.07-.54.2-.15.13-.25.32-.31.57h1.69Z"/>
      <path class="cls-8" d="m484.67,311.85c-.16-.16-.23-.41-.23-.73v-1.66h-.51v-.44h.51v-.91l.5-.32v1.22h.81v.44h-.81v1.69c0,.33.14.49.42.49.14,0,.25-.03.35-.08l.13.42c-.14.07-.32.11-.52.11-.27,0-.49-.08-.64-.24Z"/>
      <path class="cls-8" d="m486.75,311.88c-.21-.14-.37-.33-.47-.57-.11-.24-.16-.49-.16-.77s.05-.54.16-.77c.11-.24.26-.43.47-.57.21-.14.46-.22.76-.22.63,0,1.05.28,1.27.85l-.44.17c-.16-.38-.43-.58-.82-.58-.28,0-.5.1-.65.31-.15.21-.22.48-.22.8s.07.59.22.8c.15.21.36.31.65.31.2,0,.37-.05.5-.14.13-.1.24-.24.32-.43l.44.17c-.11.28-.27.49-.48.63-.21.14-.48.21-.78.21s-.55-.07-.76-.22Z"/>
      <path class="cls-8" d="m489.49,311.96c-.07-.07-.11-.16-.11-.26s.04-.2.11-.27.16-.11.26-.11.2.04.27.11c.07.07.1.16.1.27s-.04.19-.1.26c-.07.07-.16.1-.27.1s-.19-.04-.26-.1Z"/>
      <path class="cls-8" d="m491.07,311.27c.1-.38.15-.82.15-1.32s-.05-.93-.15-1.32c-.1-.39-.25-.75-.45-1.08h.47c.2.34.36.69.47,1.07.12.38.17.82.17,1.33s-.06.95-.17,1.33c-.12.38-.27.74-.47,1.07h-.47c.2-.34.35-.7.45-1.08Z"/>
    </g>
    <g>
      <path class="cls-8" d="m460.44,99.21c-.13-.41-.19-.89-.19-1.44s.06-1.02.19-1.44c.12-.41.3-.8.51-1.16h.51c-.22.36-.38.75-.49,1.17s-.17.9-.17,1.43.06,1.01.17,1.43.27.81.49,1.17h-.51c-.22-.36-.39-.75-.51-1.16Z"/>
      <path class="cls-8" d="m462.17,95.5h2.65v.53h-2.08v1.34h1.69v.52h-1.69v1.64h2.14v.53h-2.71v-4.55Z"/>
      <path class="cls-8" d="m466.38,98.27l-.93-1.5h.58l.64,1.04.64-1.04h.58l-.93,1.5,1.1,1.77h-.56l-.83-1.31-.83,1.31h-.56l1.1-1.77Z"/>
      <path class="cls-8" d="m469.15,96.77v.42c.08-.13.21-.24.38-.33.17-.1.37-.14.58-.14.31,0,.58.07.8.22.22.15.39.35.5.6.11.26.17.55.17.87s-.06.62-.17.87c-.11.26-.28.46-.5.6-.22.15-.49.22-.8.22-.19,0-.37-.04-.55-.13s-.31-.2-.41-.33v1.74h-.54v-4.6h.54Zm1.61,2.51c.17-.22.26-.51.26-.87s-.09-.65-.26-.87c-.17-.22-.41-.33-.71-.33s-.53.11-.7.33-.25.51-.25.87.09.65.26.87.4.33.7.33.53-.11.71-.33Z"/>
      <path class="cls-8" d="m472.9,96.77v.57c.1-.2.24-.35.4-.46.16-.11.35-.16.56-.16.14,0,.3.03.46.1l-.11.5c-.13-.07-.27-.11-.42-.11-.26,0-.47.14-.64.41s-.25.67-.25,1.2v1.23h-.54v-3.28h.54Z"/>
      <path class="cls-8" d="m477.5,98.5h-2.41c.01.33.1.6.27.81s.4.31.69.31c.23,0,.41-.05.55-.15.14-.1.27-.26.38-.49l.46.19c-.16.32-.35.55-.57.7-.22.15-.5.22-.83.22-.31,0-.57-.08-.8-.23s-.4-.36-.52-.62-.18-.54-.18-.84.06-.59.18-.85.29-.46.52-.61c.23-.15.49-.23.8-.23s.56.07.78.21c.22.14.39.33.51.56s.17.49.17.78v.23Zm-.55-.46c-.04-.26-.14-.46-.29-.61-.16-.15-.36-.22-.62-.22-.23,0-.42.07-.58.21-.17.14-.28.35-.33.62h1.83Z"/>
      <path class="cls-8" d="m478.41,99.84c-.21-.17-.34-.38-.41-.63l.45-.24c.07.21.16.37.28.48.12.11.29.17.49.17.16,0,.29-.04.38-.13.09-.09.14-.21.14-.36,0-.14-.06-.25-.18-.34-.12-.09-.3-.17-.53-.26-.26-.1-.46-.21-.6-.36-.14-.14-.21-.33-.21-.57,0-.26.09-.47.27-.63.18-.16.41-.24.69-.24.42,0,.74.17.95.51l-.35.31c-.15-.23-.35-.34-.6-.34-.12,0-.22.04-.31.11s-.12.17-.12.29.05.22.16.3c.11.08.3.17.57.27.53.19.8.51.8.94,0,.31-.1.55-.29.73s-.44.27-.76.27c-.33,0-.6-.09-.81-.26Z"/>
      <path class="cls-8" d="m481.17,99.84c-.21-.17-.34-.38-.41-.63l.45-.24c.06.21.16.37.28.48.12.11.29.17.49.17.16,0,.29-.04.38-.13.09-.09.14-.21.14-.36,0-.14-.06-.25-.18-.34-.12-.09-.3-.17-.53-.26-.26-.1-.46-.21-.6-.36s-.21-.33-.21-.57c0-.26.09-.47.27-.63.18-.16.41-.24.69-.24.42,0,.74.17.95.51l-.35.31c-.15-.23-.35-.34-.6-.34-.12,0-.22.04-.3.11-.08.07-.12.17-.12.29s.05.22.16.3c.11.08.3.17.57.27.53.19.8.51.8.94,0,.31-.09.55-.29.73-.19.18-.44.27-.76.27-.33,0-.6-.09-.81-.26Z"/>
      <path class="cls-8" d="m483.81,99.95c-.08-.08-.11-.17-.11-.28s.04-.21.11-.29c.08-.08.17-.11.28-.11s.21.04.29.11c.08.08.11.17.11.29s-.04.21-.11.28c-.08.08-.17.11-.29.11s-.21-.04-.28-.11Z"/>
      <path class="cls-8" d="m485.23,100.7c.09-.11.14-.27.14-.5v-3.43h.54v3.43c0,.36-.08.64-.25.83-.17.2-.42.33-.74.39l-.13-.49c.2-.06.35-.14.45-.24Zm.13-4.59c-.08-.08-.11-.17-.11-.28s.04-.21.11-.28.17-.11.28-.11.21.04.28.11c.08.07.11.17.11.28s-.04.21-.11.28c-.08.07-.17.11-.28.11s-.2-.04-.28-.11Z"/>
      <path class="cls-8" d="m487.08,99.84c-.21-.17-.34-.38-.41-.63l.45-.24c.07.21.16.37.28.48.12.11.29.17.49.17.16,0,.29-.04.38-.13.09-.09.14-.21.14-.36,0-.14-.06-.25-.18-.34-.12-.09-.3-.17-.53-.26-.26-.1-.46-.21-.6-.36-.14-.14-.21-.33-.21-.57,0-.26.09-.47.27-.63.18-.16.41-.24.69-.24.42,0,.74.17.95.51l-.35.31c-.15-.23-.35-.34-.6-.34-.12,0-.22.04-.31.11s-.12.17-.12.29.05.22.16.3c.11.08.3.17.57.27.53.19.8.51.8.94,0,.31-.1.55-.29.73s-.44.27-.76.27c-.33,0-.6-.09-.81-.26Z"/>
      <path class="cls-8" d="m489.76,99.37h.76l-.72,1.3h-.4l.36-1.3Z"/>
      <path class="cls-8" d="m493.09,99.84c-.21-.17-.34-.38-.41-.63l.45-.24c.06.21.16.37.28.48.12.11.29.17.49.17.16,0,.29-.04.38-.13.09-.09.14-.21.14-.36,0-.14-.06-.25-.18-.34-.12-.09-.3-.17-.53-.26-.26-.1-.46-.21-.6-.36s-.21-.33-.21-.57c0-.26.09-.47.27-.63.18-.16.41-.24.69-.24.42,0,.74.17.95.51l-.35.31c-.15-.23-.35-.34-.6-.34-.12,0-.22.04-.3.11-.08.07-.12.17-.12.29s.05.22.16.3c.11.08.3.17.57.27.53.19.8.51.8.94,0,.31-.09.55-.29.73-.19.18-.44.27-.76.27-.33,0-.6-.09-.81-.26Z"/>
      <path class="cls-8" d="m496.06,99.84c-.17-.18-.25-.44-.25-.79v-1.79h-.55v-.48h.55v-.98l.54-.34v1.33h.88v.48h-.88v1.83c0,.36.15.53.46.53.15,0,.27-.03.38-.09l.14.46c-.16.08-.34.12-.56.12-.29,0-.53-.09-.7-.26Z"/>
      <path class="cls-8" d="m498.02,99.85c-.19-.17-.29-.42-.29-.74,0-.35.13-.61.39-.8s.61-.28,1.06-.28h.57v-.14c0-.24-.06-.41-.19-.52-.13-.11-.29-.17-.5-.17-.36,0-.6.18-.71.53l-.48-.11c.04-.27.18-.49.4-.66.22-.16.49-.25.8-.25.37,0,.67.11.89.32.23.21.34.52.34.91v2.1h-.42l-.1-.47c-.22.35-.57.53-1.02.53-.29,0-.54-.08-.73-.25Zm1.25-.34c.14-.07.25-.18.35-.34.09-.15.14-.35.14-.58v-.1h-.55c-.3,0-.53.05-.68.16-.15.1-.23.25-.23.45,0,.17.05.29.15.38.1.09.23.14.41.14.15,0,.29-.04.43-.11Z"/>
      <path class="cls-8" d="m501.58,99.84c-.17-.18-.25-.44-.25-.79v-1.79h-.55v-.48h.55v-.98l.54-.34v1.33h.88v.48h-.88v1.83c0,.36.15.53.46.53.15,0,.27-.03.38-.09l.14.46c-.16.08-.34.12-.56.12-.29,0-.53-.09-.7-.26Z"/>
      <path class="cls-8" d="m503.47,96.11c-.08-.08-.11-.17-.11-.28s.04-.21.11-.28c.08-.07.17-.11.28-.11s.21.04.28.11c.08.07.11.17.11.28s-.04.21-.11.28c-.08.07-.17.11-.28.11s-.2-.04-.28-.11Zm0,.67h.54v3.28h-.54v-3.28Z"/>
      <path class="cls-8" d="m505.48,99.87c-.23-.16-.4-.36-.51-.62-.12-.26-.17-.54-.17-.84s.06-.58.17-.84c.11-.26.28-.46.51-.62.23-.16.5-.23.82-.23.68,0,1.14.31,1.37.92l-.48.19c-.17-.42-.47-.62-.89-.62-.31,0-.54.11-.7.34-.16.23-.24.52-.24.87s.08.64.24.87c.16.23.39.34.7.34.22,0,.4-.05.54-.16.14-.1.26-.26.35-.47l.48.19c-.12.3-.29.53-.52.69-.23.15-.51.23-.85.23s-.59-.08-.82-.23Z"/>
      <path class="cls-8" d="m509.63,97.25v-.48h.49v-.08c0-.39.13-.7.38-.92.25-.22.58-.33.97-.33.16,0,.3.02.45.05s.26.08.36.14l-.14.47c-.21-.12-.43-.18-.68-.18s-.44.06-.59.2c-.15.13-.22.31-.22.53v.12h1.86v3.28h-.53v-2.79h-1.33v2.79h-.53v-2.79h-.49Z"/>
      <path class="cls-8" d="m513.49,95.45h.54v4.6h-.54v-4.6Z"/>
      <path class="cls-8" d="m517.77,98.5h-2.41c.01.33.1.6.27.81s.4.31.69.31c.23,0,.41-.05.55-.15.14-.1.27-.26.38-.49l.46.19c-.16.32-.35.55-.57.7-.22.15-.5.22-.83.22-.31,0-.57-.08-.8-.23-.22-.15-.4-.36-.52-.62s-.18-.54-.18-.84.06-.59.18-.85.29-.46.52-.61c.23-.15.49-.23.8-.23s.56.07.78.21c.22.14.39.33.51.56s.18.49.18.78v.23Zm-.55-.46c-.04-.26-.14-.46-.29-.61-.16-.15-.36-.22-.62-.22-.23,0-.42.07-.58.21s-.28.35-.33.62h1.83Z"/>
      <path class="cls-8" d="m518.68,99.84c-.21-.17-.34-.38-.41-.63l.45-.24c.06.21.16.37.28.48.12.11.29.17.49.17.16,0,.29-.04.38-.13.09-.09.14-.21.14-.36,0-.14-.06-.25-.18-.34-.12-.09-.3-.17-.53-.26-.26-.1-.46-.21-.6-.36s-.21-.33-.21-.57c0-.26.09-.47.27-.63.18-.16.41-.24.69-.24.42,0,.74.17.95.51l-.35.31c-.15-.23-.35-.34-.6-.34-.12,0-.22.04-.31.11-.08.07-.12.17-.12.29s.05.22.16.3c.11.08.3.17.57.27.53.19.8.51.8.94,0,.31-.09.55-.29.73-.19.18-.44.27-.76.27-.33,0-.6-.09-.81-.26Z"/>
      <path class="cls-8" d="m521.36,99.37h.76l-.72,1.3h-.4l.36-1.3Z"/>
      <path class="cls-8" d="m527.27,98.5h-2.41c.01.33.1.6.27.81s.4.31.69.31c.23,0,.41-.05.55-.15.14-.1.27-.26.38-.49l.46.19c-.16.32-.35.55-.57.7-.22.15-.5.22-.83.22-.31,0-.57-.08-.8-.23-.22-.15-.4-.36-.52-.62s-.18-.54-.18-.84.06-.59.18-.85.29-.46.52-.61c.23-.15.49-.23.8-.23s.56.07.78.21c.22.14.39.33.51.56s.18.49.18.78v.23Zm-.55-.46c-.04-.26-.14-.46-.29-.61-.16-.15-.36-.22-.62-.22-.23,0-.42.07-.58.21s-.28.35-.33.62h1.83Z"/>
      <path class="cls-8" d="m528.45,99.84c-.17-.18-.25-.44-.25-.79v-1.79h-.55v-.48h.55v-.98l.54-.34v1.33h.88v.48h-.88v1.83c0,.36.15.53.46.53.15,0,.27-.03.38-.09l.14.46c-.16.08-.34.12-.56.12-.29,0-.53-.09-.7-.26Z"/>
      <path class="cls-8" d="m530.69,99.87c-.23-.16-.4-.36-.51-.62-.12-.26-.17-.54-.17-.84s.06-.58.17-.84c.11-.26.28-.46.51-.62.23-.16.5-.23.82-.23.68,0,1.14.31,1.37.92l-.48.19c-.17-.42-.47-.62-.89-.62-.31,0-.54.11-.7.34-.16.23-.24.52-.24.87s.08.64.24.87c.16.23.39.34.7.34.22,0,.4-.05.54-.16.14-.1.26-.26.35-.47l.48.19c-.12.3-.29.53-.52.69-.23.15-.51.23-.85.23s-.59-.08-.82-.23Z"/>
      <path class="cls-8" d="m533.64,99.95c-.08-.08-.11-.17-.11-.28s.04-.21.11-.29c.08-.08.17-.11.28-.11s.21.04.29.11c.08.08.11.17.11.29s-.04.21-.11.28c-.08.08-.17.11-.29.11s-.21-.04-.28-.11Z"/>
      <path class="cls-8" d="m535.34,99.2c.11-.42.17-.89.17-1.43s-.06-1-.17-1.43-.27-.81-.49-1.17h.51c.22.36.39.75.51,1.16.13.41.19.89.19,1.44s-.06,1.02-.19,1.44c-.12.41-.3.8-.51,1.16h-.51c.22-.36.38-.75.49-1.17Z"/>
    </g>
    <g>
      <path class="cls-8" d="m437.79,259.77l.16-3.43h1.02l-.29,4.71h-1.2l-.41-2.4-.4,2.4h-1.2l-.29-4.71h1.02l.16,3.43.35-2.18h.73l.35,2.18Z"/>
      <path class="cls-8" d="m440.52,259.54c.03.64.38.93.77.93.37,0,.59-.19.66-.51h.89c-.1.59-.62,1.18-1.57,1.18-1.09,0-1.66-.73-1.66-1.8s.6-1.86,1.64-1.86,1.67.78,1.64,2.07h-2.38Zm0-.59h1.5c-.02-.64-.39-.81-.76-.81-.3,0-.68.21-.73.81Z"/>
      <path class="cls-8" d="m444.82,257.99c.16-.33.49-.52.89-.52.8,0,1.42.64,1.42,1.83s-.62,1.83-1.42,1.83c-.4,0-.73-.19-.89-.52v.44h-.93v-4.71h.93v1.66Zm.68,2.45c.44,0,.7-.44.7-1.14s-.25-1.14-.7-1.14-.72.41-.72,1.14.27,1.14.72,1.14Z"/>
      <path class="cls-8" d="m453.88,256.25c.79,0,1.53.44,1.63,1.49h-.94c-.06-.46-.33-.74-.75-.74-.36,0-.61.21-.61.53,0,.3.17.52.59.62l.41.1c.62.16,1.39.46,1.39,1.42,0,1.03-.82,1.46-1.61,1.46-1.05,0-1.74-.64-1.84-1.64h.94c.07.53.36.9.87.9.37,0,.65-.21.65-.56s-.23-.58-.69-.7l-.48-.13c-.63-.16-1.22-.61-1.22-1.38,0-.94.84-1.37,1.64-1.37Z"/>
      <path class="cls-8" d="m457.32,259.54c.03.64.38.93.77.93.37,0,.59-.19.66-.51h.89c-.1.59-.62,1.18-1.57,1.18-1.09,0-1.66-.73-1.66-1.8s.6-1.86,1.64-1.86,1.67.78,1.64,2.07h-2.38Zm0-.59h1.5c-.02-.64-.39-.81-.76-.81-.3,0-.68.21-.73.81Z"/>
      <path class="cls-8" d="m462.45,257.55v.59c.14-.3.42-.59.97-.59h.53v.75h-.67c-.59,0-.82.28-.82.96v1.09h1.27v.7h-3.08v-.7h.87v-2.09h-.87v-.71h1.79Z"/>
      <path class="cls-8" d="m466.5,259.94l.83-2.39h.92l-1.32,3.5h-.9l-1.34-3.5h.97l.84,2.39Z"/>
      <path class="cls-8" d="m469.2,261.05v-.7h1.01v-2.09h-1.01v-.7h1.95v2.79h1.02v.7h-2.97Zm1.95-4.71v.86h-.94v-.86h.94Z"/>
      <path class="cls-8" d="m476.41,258.81h-.88c-.05-.37-.23-.65-.64-.65s-.68.36-.68,1.14.26,1.14.68,1.14c.29,0,.58-.14.66-.68h.9c-.12.95-.87,1.37-1.57,1.37-1.02,0-1.6-.77-1.6-1.83s.59-1.83,1.62-1.83c.68,0,1.42.41,1.52,1.34Z"/>
      <path class="cls-8" d="m478.31,259.54c.03.64.38.93.77.93s.59-.19.66-.51h.89c-.1.59-.62,1.18-1.57,1.18-1.09,0-1.66-.73-1.66-1.8s.6-1.86,1.64-1.86,1.67.78,1.64,2.07h-2.39Zm0-.59h1.5c-.02-.64-.39-.81-.76-.81-.3,0-.68.21-.73.81Z"/>
    </g>
    <g>
      <path class="cls-8" d="m536.73,256.34c1.08,0,1.83.35,1.83,1.45s-.75,1.43-1.83,1.43h-.48v1.83h-.97v-4.71h1.46Zm-.48.79v1.31h.46c.45,0,.81-.15.81-.65s-.36-.66-.81-.66h-.46Z"/>
      <path class="cls-8" d="m540.97,256.25c.79,0,1.53.44,1.63,1.49h-.94c-.06-.46-.33-.74-.75-.74-.36,0-.61.21-.61.53,0,.3.17.52.59.62l.41.1c.62.16,1.39.46,1.39,1.42,0,1.03-.82,1.46-1.61,1.46-1.05,0-1.74-.64-1.84-1.64h.94c.07.53.36.9.87.9.37,0,.65-.21.65-.56s-.23-.58-.69-.7l-.48-.13c-.63-.16-1.22-.61-1.22-1.38,0-.94.84-1.37,1.64-1.37Z"/>
      <path class="cls-8" d="m545.16,256.25c1.27,0,1.85.98,1.85,2.44,0,.84-.19,1.53-.6,1.96l.55.77-.53.38-.55-.79c-.21.08-.45.12-.71.12-1.27,0-1.85-.98-1.85-2.44s.57-2.44,1.85-2.44Zm0,4.12c.08,0,.17-.01.24-.04l-.53-.76.52-.38.44.62c.1-.29.14-.67.14-1.12,0-1-.21-1.67-.81-1.67s-.81.68-.81,1.67.21,1.68.81,1.68Z"/>
      <path class="cls-8" d="m548.92,260.21h2.2v.84h-3.17v-4.71h.98v3.87Z"/>
      <path class="cls-8" d="m557.76,256.25c.79,0,1.53.44,1.63,1.49h-.94c-.06-.46-.33-.74-.75-.74-.36,0-.61.21-.61.53,0,.3.17.52.59.62l.41.1c.62.16,1.39.46,1.39,1.42,0,1.03-.82,1.46-1.61,1.46-1.05,0-1.74-.64-1.84-1.64h.94c.07.53.36.9.87.9.37,0,.65-.21.65-.56s-.23-.58-.69-.7l-.48-.13c-.63-.16-1.22-.61-1.22-1.38,0-.94.84-1.37,1.64-1.37Z"/>
      <path class="cls-8" d="m561.2,259.54c.03.64.38.93.77.93.37,0,.59-.19.66-.51h.89c-.1.59-.62,1.18-1.57,1.18-1.09,0-1.66-.73-1.66-1.8s.6-1.86,1.64-1.86,1.67.78,1.64,2.07h-2.38Zm0-.59h1.5c-.02-.64-.39-.81-.76-.81-.3,0-.68.21-.73.81Z"/>
      <path class="cls-8" d="m566.34,257.55v.59c.14-.3.42-.59.97-.59h.53v.75h-.67c-.59,0-.82.28-.82.96v1.09h1.27v.7h-3.08v-.7h.87v-2.09h-.87v-.71h1.79Z"/>
      <path class="cls-8" d="m570.38,259.94l.83-2.39h.92l-1.32,3.5h-.9l-1.34-3.5h.97l.84,2.39Z"/>
      <path class="cls-8" d="m573.08,261.05v-.7h1.01v-2.09h-1.01v-.7h1.95v2.79h1.02v.7h-2.97Zm1.95-4.71v.86h-.94v-.86h.94Z"/>
      <path class="cls-8" d="m580.29,258.81h-.88c-.05-.37-.23-.65-.64-.65s-.68.36-.68,1.14.26,1.14.68,1.14c.29,0,.58-.14.66-.68h.9c-.12.95-.87,1.37-1.57,1.37-1.02,0-1.6-.77-1.6-1.83s.59-1.83,1.62-1.83c.68,0,1.42.41,1.52,1.34Z"/>
      <path class="cls-8" d="m582.2,259.54c.03.64.38.93.77.93s.59-.19.66-.51h.89c-.1.59-.62,1.18-1.57,1.18-1.09,0-1.66-.73-1.66-1.8s.6-1.86,1.64-1.86,1.67.78,1.64,2.07h-2.39Zm0-.59h1.5c-.02-.64-.39-.81-.76-.81-.3,0-.68.21-.73.81Z"/>
    </g>
    <g>
      <g>
        <circle class="cls-13" cx="267.94" cy="308.98" r="23.77"/>
        <path class="cls-8" d="m267.94,333.24c-13.38,0-24.27-10.89-24.27-24.27s10.89-24.27,24.27-24.27,24.27,10.89,24.27,24.27-10.89,24.27-24.27,24.27Zm0-47.53c-12.83,0-23.27,10.44-23.27,23.27s10.44,23.27,23.27,23.27,23.27-10.44,23.27-23.27-10.44-23.27-23.27-23.27Z"/>
      </g>
      <path class="cls-8" d="m267.94,326.11c-13.52,0-24.53-7.69-24.53-17.13s11-17.13,24.53-17.13,24.52,7.69,24.52,17.13-11,17.13-24.52,17.13Zm0-33.26c-12.97,0-23.53,7.24-23.53,16.13s10.55,16.13,23.53,16.13,23.52-7.24,23.52-16.13-10.55-16.13-23.52-16.13Z"/>
      <path class="cls-8" d="m267.94,315.03c-11.89,0-24.53-2.12-24.53-6.05s12.64-6.05,24.53-6.05,24.52,2.12,24.52,6.05-12.64,6.05-24.52,6.05Zm0-11.11c-13.86,0-23.53,2.66-23.53,5.05s9.66,5.05,23.53,5.05,23.52-2.66,23.52-5.05-9.66-5.05-23.52-5.05Z"/>
      <path class="cls-8" d="m267.94,333.5c-9.45,0-17.13-11-17.13-24.53s7.69-24.52,17.13-24.52,17.13,11,17.13,24.52-7.69,24.53-17.13,24.53Zm0-48.05c-8.9,0-16.13,10.55-16.13,23.52s7.24,23.53,16.13,23.53,16.13-10.55,16.13-23.53-7.24-23.52-16.13-23.52Z"/>
      <path class="cls-8" d="m267.94,333.5c-3.99,0-6.15-12.64-6.15-24.53s2.15-24.52,6.15-24.52,6.15,12.64,6.15,24.52-2.15,24.53-6.15,24.53Zm0-48.05c-2.43,0-5.15,9.66-5.15,23.52s2.71,23.53,5.15,23.53,5.15-9.66,5.15-23.53-2.71-23.52-5.15-23.52Z"/>
    </g>
    <g>
      <path class="cls-8" d="m467,85.38h1.22l1.22,4.71h-1.07l-.21-.98h-1.1l-.21.98h-1.04l1.21-4.71Zm.21,2.97h.77l-.38-1.73-.39,1.73Z"/>
      <path class="cls-8" d="m471.16,87.04c.17-.33.49-.52.9-.52.8,0,1.42.64,1.42,1.83s-.62,1.83-1.42,1.83c-.41,0-.73-.19-.9-.52v1.57h-.94v-4.63h.94v.44Zm.69,2.45c.44,0,.69-.44.69-1.14s-.25-1.14-.69-1.14-.72.41-.72,1.14.27,1.14.72,1.14Z"/>
      <path class="cls-8" d="m475.36,87.04c.17-.33.49-.52.9-.52.8,0,1.42.64,1.42,1.83s-.62,1.83-1.42,1.83c-.41,0-.73-.19-.9-.52v1.57h-.94v-4.63h.94v.44Zm.69,2.45c.44,0,.69-.44.69-1.14s-.25-1.14-.69-1.14-.72.41-.72,1.14.27,1.14.72,1.14Z"/>
      <path class="cls-8" d="m478.75,90.09v-.7h1.01v-3.31h-1.01v-.7h1.95v4.01h1.01v.7h-2.96Z"/>
      <path class="cls-8" d="m482.94,90.09v-.7h1.01v-2.09h-1.01v-.7h1.95v2.79h1.02v.7h-2.97Zm1.95-4.71v.86h-.94v-.86h.94Z"/>
      <path class="cls-8" d="m490.15,87.86h-.88c-.05-.37-.23-.65-.64-.65s-.68.36-.68,1.14.26,1.14.68,1.14c.29,0,.58-.14.66-.68h.9c-.12.95-.87,1.37-1.57,1.37-1.02,0-1.6-.77-1.6-1.83s.59-1.83,1.62-1.83c.68,0,1.42.41,1.52,1.34Z"/>
      <path class="cls-8" d="m492.33,90.18c-.6,0-1.18-.38-1.18-1.02,0-.89,1.02-1.07,2.2-1.22v-.08c0-.54-.23-.72-.62-.72s-.62.18-.65.57h-.84c.06-.69.63-1.2,1.52-1.2s1.48.35,1.48,1.53c0,.11-.01.58-.01.9,0,.96.04,1.05.07,1.16h-.85v-.45c-.25.37-.61.53-1.12.53Zm1.04-1.67c-.9.09-1.3.19-1.3.61,0,.26.18.42.51.42.58,0,.79-.38.79-.94v-.09Z"/>
      <path class="cls-8" d="m496.17,85.66h.94v.94h1.37v.71h-1.37v1.69c0,.33.11.4.38.4h.97v.7h-1.31c-.76,0-.97-.25-.97-.95v-1.84h-1.01v-.71h1.01v-.94Z"/>
      <path class="cls-8" d="m499.74,90.09v-.7h1.01v-2.09h-1.01v-.7h1.95v2.79h1.02v.7h-2.97Zm1.95-4.71v.86h-.94v-.86h.94Z"/>
      <path class="cls-8" d="m505.41,90.18c-.86,0-1.67-.49-1.67-1.83s.81-1.83,1.67-1.83,1.67.49,1.67,1.83-.82,1.83-1.67,1.83Zm0-2.97c-.45,0-.73.33-.73,1.14s.29,1.14.73,1.14.73-.34.73-1.14-.29-1.14-.73-1.14Z"/>
      <path class="cls-8" d="m509.03,86.59v.41c.2-.31.52-.49.93-.49.81,0,1.14.54,1.14,1.38v2.2h-.94v-2.04c0-.37-.04-.81-.51-.81-.53,0-.62.47-.62,1v1.85h-.94v-3.5h.94Z"/>
      <path class="cls-8" d="m519.76,88.45c-.12,1.1-.65,1.72-1.7,1.72-1.23,0-1.82-.92-1.82-2.44s.62-2.44,1.85-2.44c1.04,0,1.54.68,1.63,1.72h-.96c-.05-.64-.25-.95-.71-.95-.52,0-.78.49-.78,1.67s.25,1.68.78,1.68c.42,0,.7-.25.74-.96h.97Z"/>
      <path class="cls-8" d="m522.2,90.18c-.86,0-1.67-.49-1.67-1.83s.81-1.83,1.67-1.83,1.67.49,1.67,1.83-.82,1.83-1.67,1.83Zm0-2.97c-.45,0-.73.33-.73,1.14s.29,1.14.73,1.14.73-.34.73-1.14-.29-1.14-.73-1.14Z"/>
      <path class="cls-8" d="m527.06,85.38h.93v4.71h-.92v-.44c-.18.33-.5.52-.9.52-.8,0-1.42-.63-1.42-1.83s.62-1.83,1.42-1.83c.4,0,.73.19.9.52v-1.66Zm-.69,1.83c-.44,0-.69.44-.69,1.14s.25,1.14.69,1.14.72-.4.72-1.14-.27-1.14-.72-1.14Z"/>
      <path class="cls-8" d="m529.84,88.58c.03.64.38.93.77.93s.59-.19.66-.51h.89c-.1.59-.62,1.18-1.57,1.18-1.09,0-1.66-.73-1.66-1.8s.6-1.86,1.64-1.86,1.67.78,1.64,2.07h-2.39Zm0-.59h1.5c-.02-.64-.39-.81-.76-.81-.3,0-.68.21-.73.81Z"/>
    </g>
    <g>
      <g>
        <path class="cls-20" d="m344.41,296.91h39.72"/>
        <path class="cls-8" d="m384.13,297.42h-39.72c-.28,0-.5-.22-.5-.5s.22-.5.5-.5h39.72c.28,0,.5.22.5.5s-.22.5-.5.5Z"/>
      </g>
      <path class="cls-8" d="m374.51,308.01c-.13,0-.26-.05-.35-.15-.2-.2-.2-.51,0-.71l10.15-10.15-10.15-10.15c-.2-.2-.2-.51,0-.71s.51-.2.71,0l10.5,10.5c.2.2.2.51,0,.71l-10.5,10.5c-.1.1-.23.15-.35.15Z"/>
      <path class="cls-8" d="m354.01,308.01c-.13,0-.26-.05-.35-.15l-10.5-10.5c-.2-.2-.2-.51,0-.71l10.5-10.5c.2-.2.51-.2.71,0s.2.51,0,.71l-10.15,10.15,10.15,10.15c.2.2.2.51,0,.71-.1.1-.23.15-.35.15Z"/>
    </g>
    <g>
      <path d="m489.5,269c-.28,0-.5-.22-.5-.5v-2.5c0-.28.22-.5.5-.5s.5.22.5.5v2.5c0,.28-.22.5-.5.5Z"/>
      <path d="m489.5,261.55c-.28,0-.5-.22-.5-.5v-4.95c0-.28.22-.5.5-.5s.5.22.5.5v4.95c0,.28-.22.5-.5.5Zm0-9.9c-.28,0-.5-.22-.5-.5v-4.95c0-.28.22-.5.5-.5s.5.22.5.5v4.95c0,.28-.22.5-.5.5Zm0-9.91c-.28,0-.5-.22-.5-.5v-4.95c0-.28.22-.5.5-.5s.5.22.5.5v4.95c0,.28-.22.5-.5.5Zm0-9.9c-.28,0-.5-.22-.5-.5v-4.95c0-.28.22-.5.5-.5s.5.22.5.5v4.95c0,.28-.22.5-.5.5Zm0-9.91c-.28,0-.5-.22-.5-.5v-4.95c0-.28.22-.5.5-.5s.5.22.5.5v4.95c0,.28-.22.5-.5.5Zm0-9.9c-.28,0-.5-.22-.5-.5v-4.95c0-.28.22-.5.5-.5s.5.22.5.5v4.95c0,.28-.22.5-.5.5Zm0-9.91c-.28,0-.5-.22-.5-.5v-4.95c0-.28.22-.5.5-.5s.5.22.5.5v4.95c0,.28-.22.5-.5.5Zm0-9.9c-.28,0-.5-.22-.5-.5v-4.95c0-.28.22-.5.5-.5s.5.22.5.5v4.95c0,.28-.22.5-.5.5Zm0-9.9c-.28,0-.5-.22-.5-.5v-4.95c0-.28.22-.5.5-.5s.5.22.5.5v4.95c0,.28-.22.5-.5.5Zm0-9.9c-.28,0-.5-.22-.5-.5v-4.95c0-.28.22-.5.5-.5s.5.22.5.5v4.95c0,.28-.22.5-.5.5Z"/>
      <path d="m489.5,162.5c-.28,0-.5-.22-.5-.5v-2.5c0-.28.22-.5.5-.5s.5.22.5.5v2.5c0,.28-.22.5-.5.5Z"/>
    </g>
    <g>
      <g>
        <path class="cls-20" d="m151.29,251.9l28.09,28.09"/>
        <path class="cls-8" d="m179.38,280.49c-.13,0-.26-.05-.35-.15l-28.09-28.09c-.2-.2-.2-.51,0-.71s.51-.2.71,0l28.09,28.09c.2.2.2.51,0,.71-.1.1-.23.15-.35.15Z"/>
      </g>
      <path class="cls-8" d="m179.94,281.18h-14.85c-.28,0-.5-.22-.5-.5s.22-.5.5-.5h14.35v-14.35c0-.28.22-.5.5-.5s.5.22.5.5v14.85c0,.28-.22.5-.5.5Z"/>
      <path class="cls-8" d="m150.59,266.68c-.28,0-.5-.22-.5-.5v-14.85c0-.28.22-.5.5-.5h14.85c.28,0,.5.22.5.5s-.22.5-.5.5h-14.35v14.35c0,.28-.22.5-.5.5Z"/>
    </g>
    <g>
      <g>
        <rect class="cls-13" x="468.82" y="109" width="60.57" height="50"/>
        <path class="cls-8" d="m529.89,159.5h-61.57v-51h61.57v51Zm-60.57-1h59.57v-49h-59.57v49Z"/>
      </g>
      <g>
        <rect class="cls-11" x="472.35" y="126.77" width="53.51" height="3.57"/>
        <path class="cls-8" d="m526.36,130.83h-54.51v-4.57h54.51v4.57Zm-53.51-1h52.51v-2.57h-52.51v2.57Z"/>
      </g>
      <g>
        <rect class="cls-11" x="472.35" y="113.29" width="53.51" height="8.58"/>
        <path class="cls-8" d="m526.36,122.38h-54.51v-9.58h54.51v9.58Zm-53.51-1h52.51v-7.58h-52.51v7.58Z"/>
      </g>
      <g>
        <rect class="cls-11" x="472.35" y="134.08" width="53.51" height="3.57"/>
        <path class="cls-8" d="m526.36,138.15h-54.51v-4.57h54.51v4.57Zm-53.51-1h52.51v-2.57h-52.51v2.57Z"/>
      </g>
      <g>
        <rect class="cls-11" x="472.35" y="141.39" width="53.51" height="3.57"/>
        <path class="cls-8" d="m526.36,145.46h-54.51v-4.57h54.51v4.57Zm-53.51-1h52.51v-2.57h-52.51v2.57Z"/>
      </g>
      <g>
        <rect class="cls-11" x="472.35" y="148.7" width="53.51" height="3.57"/>
        <path class="cls-8" d="m526.36,152.77h-54.51v-4.57h54.51v4.57Zm-53.51-1h52.51v-2.57h-52.51v2.57Z"/>
      </g>
    </g>
  </g>
</svg>