<?xml version="1.0" encoding="UTF-8"?>
<svg xmlns="http://www.w3.org/2000/svg" xmlns:xlink="http://www.w3.org/1999/xlink" viewBox="0 0 640 420">
  <defs>
    <style>
      .cls-1 {
        fill: none;
      }

      .cls-2 {
        clip-rule: evenodd;
      }

      .cls-2, .cls-3, .cls-4 {
        fill: #10162f;
      }

      .cls-5 {
        clip-path: url(#clippath);
      }

      .cls-6 {
        fill: #f966ff;
      }

      .cls-7 {
        fill: #008927;
      }

      .cls-8 {
        fill: #f5fcff;
      }

      .cls-9 {
        fill: #f5ffe3;
      }

      .cls-10 {
        fill: #fff;
      }

      .cls-11 {
        fill: #fff5ff;
      }

      .cls-12 {
        fill: #fffae5;
      }

      .cls-13 {
        fill: #fefae7;
      }

      .cls-14 {
        fill: #ffd300;
      }

      .cls-15 {
        fill: #ff8c00;
      }

      .cls-16 {
        fill: #fdf6fe;
      }

      .cls-17 {
        fill: #66c4ff;
      }

      .cls-18 {
        fill: #d8d8d8;
      }

      .cls-19 {
        fill: #c49a6c;
      }

      .cls-20 {
        fill: #a8775b;
      }

      .cls-21 {
        fill: #11162d;
      }

      .cls-22 {
        fill: #221f20;
      }

      .cls-23 {
        clip-path: url(#clippath-1);
      }

      .cls-24 {
        clip-path: url(#clippath-4);
      }

      .cls-25 {
        clip-path: url(#clippath-3);
      }

      .cls-26 {
        clip-path: url(#clippath-2);
      }

      .cls-27 {
        clip-path: url(#clippath-7);
      }

      .cls-28 {
        clip-path: url(#clippath-6);
      }

      .cls-29 {
        clip-path: url(#clippath-5);
      }

      .cls-4 {
        fill-rule: evenodd;
      }

      .cls-30 {
        isolation: isolate;
      }
    </style>
    <clipPath id="clippath">
      <circle class="cls-1" cx="382.36" cy="318.88" r="39.87"/>
    </clipPath>
    <clipPath id="clippath-1">
      <path class="cls-1" d="m360.08,314.99c-.3-.13-.71-.59-1.15-.69-.29-.06-.59-.09-.89-.1-.37.03-.74.09-1.11.18-.43.09-.63.46-.93.6.43.74,1.19,1.22,2.04,1.29,1.44.15,2.04-1.28,2.04-1.28Z"/>
    </clipPath>
    <clipPath id="clippath-2">
      <path class="cls-1" d="m366.4,314.99c-.3-.13-.71-.59-1.15-.69-.29-.06-.59-.1-.89-.1-.37.03-.74.09-1.11.18-.44.09-.63.46-.93.6.43.74,1.19,1.22,2.04,1.29,1.46.15,2.04-1.28,2.04-1.28Z"/>
    </clipPath>
    <clipPath id="clippath-3">
      <path class="cls-1" d="m412.02,312.04c-.39-.18-.81-.31-1.23-.4-.66-.14-1.35-.14-2.01,0-.42.09-.84.22-1.23.4.47.81,1.3,1.34,2.24,1.42,1.6.15,2.24-1.42,2.24-1.42Z"/>
    </clipPath>
    <clipPath id="clippath-4">
      <path class="cls-1" d="m404.87,312.04c-.39-.18-.81-.31-1.23-.4-.66-.14-1.35-.14-2.01,0-.42.09-.84.22-1.23.4.47.81,1.3,1.34,2.24,1.42,1.6.15,2.24-1.42,2.24-1.42Z"/>
    </clipPath>
    <clipPath id="clippath-5">
      <polygon class="cls-2" points="463.34 108.74 470.03 85.41 473.37 101.53 487.22 110.51 463.34 108.74"/>
    </clipPath>
    <clipPath id="clippath-6">
      <rect class="cls-3" x="-167.68" y="-478.27" width="753.62" height="1291.92" transform="translate(5.6 342.13) rotate(-79.32)"/>
    </clipPath>
    <clipPath id="clippath-7">
      <circle class="cls-1" cx="272.01" cy="304.31" r="14.27"/>
    </clipPath>
  </defs>
  <g id="BG">
    <g>
      <rect class="cls-12" x=".5" y=".5" width="639" height="419"/>
      <path d="m639,1v418H1V1h638m1-1H0v420h640V0h0Z"/>
    </g>
  </g>
  <g id="Layer_5" data-name="Layer 5">
    <g id="_Radial_Repeat_" data-name="&amp;lt;Radial Repeat&amp;gt;">
      <g>
        <circle class="cls-10" cx="319.08" cy="78" r="40"/>
        <path class="cls-3" d="m319.12,118.5c-.57,0-1.15-.01-1.72-.04-22.31-.93-39.71-19.84-38.78-42.15.93-22.31,19.83-39.72,42.15-38.78,10.81.45,20.8,5.08,28.12,13.04,7.32,7.96,11.11,18.3,10.66,29.11-.45,10.81-5.08,20.79-13.04,28.12-7.54,6.93-17.2,10.7-27.38,10.7Zm-.08-80c-9.93,0-19.36,3.67-26.71,10.43-7.76,7.14-12.28,16.88-12.72,27.43-.44,10.54,3.25,20.62,10.4,28.39,7.14,7.76,16.88,12.28,27.43,12.72,10.54.44,20.62-3.25,28.39-10.4,7.76-7.14,12.28-16.88,12.72-27.43.44-10.54-3.25-20.62-10.4-28.39s-16.88-12.28-27.43-12.72c-.56-.02-1.12-.04-1.68-.04Z"/>
      </g>
    </g>
    <g id="_Radial_Repeat_-2" data-name="&amp;lt;Radial Repeat&amp;gt;">
      <g>
        <circle class="cls-10" cx="450" cy="116" r="40"/>
        <path class="cls-3" d="m450.09,156.51c-2.09,0-4.19-.16-6.29-.49-10.69-1.66-20.09-7.38-26.48-16.11-13.19-18.02-9.25-43.41,8.77-56.6,8.73-6.39,19.42-8.99,30.11-7.34,10.69,1.66,20.09,7.38,26.48,16.11,6.39,8.73,8.99,19.43,7.34,30.11-1.66,10.69-7.38,20.09-16.11,26.48-7.01,5.13-15.3,7.82-23.83,7.82Zm-.17-80.01c-8.32,0-16.4,2.62-23.24,7.63-17.58,12.86-21.41,37.62-8.55,55.2,6.23,8.51,15.4,14.09,25.83,15.71,10.43,1.62,20.86-.92,29.37-7.15h0c8.51-6.23,14.09-15.4,15.71-25.83,1.62-10.43-.92-20.86-7.15-29.37-6.23-8.51-15.4-14.09-25.83-15.71-2.05-.32-4.1-.47-6.13-.47Z"/>
      </g>
    </g>
    <g id="_Radial_Repeat_-3" data-name="&amp;lt;Radial Repeat&amp;gt;">
      <g>
        <circle class="cls-10" cx="480.91" cy="245" r="40"/>
        <path class="cls-3" d="m480.9,285.51c-3.51,0-7.08-.46-10.63-1.43-10.44-2.84-19.14-9.58-24.51-18.97s-6.76-20.31-3.92-30.75,9.58-19.14,18.97-24.51c9.39-5.37,20.31-6.76,30.75-3.92,10.44,2.84,19.14,9.58,24.51,18.97,5.37,9.39,6.76,20.31,3.92,30.75-4.9,18-21.27,29.86-39.09,29.86Zm-.05-80.02c-6.79,0-13.49,1.77-19.55,5.23-9.16,5.24-15.73,13.73-18.5,23.91-2.77,10.18-1.42,20.83,3.82,29.99,5.24,9.16,13.73,15.73,23.91,18.5,21.02,5.73,42.77-6.71,48.49-27.73,2.77-10.18,1.42-20.83-3.82-29.99-5.24-9.16-13.73-15.73-23.91-18.5-3.45-.94-6.96-1.41-10.44-1.41Z"/>
      </g>
    </g>
    <g id="_Radial_Repeat_-4" data-name="&amp;lt;Radial Repeat&amp;gt;">
      <g>
        <circle class="cls-10" cx="382.36" cy="318.88" r="39.87"/>
        <path class="cls-3" d="m382.37,359.27c-5.04,0-10.09-.96-14.91-2.87-10.02-3.98-17.89-11.63-22.16-21.53-4.27-9.9-4.43-20.87-.45-30.9,3.98-10.02,11.63-17.89,21.53-22.16,9.9-4.27,20.88-4.43,30.9-.45,10.02,3.98,17.89,11.63,22.16,21.53,4.27,9.9,4.43,20.87.45,30.9s-11.63,17.89-21.53,22.16c-5.13,2.21-10.56,3.32-15.98,3.32Zm-.02-79.79c-5.29,0-10.58,1.08-15.59,3.24-9.66,4.17-17.11,11.84-21,21.62s-3.73,20.47.44,30.13,11.84,17.11,21.62,21c9.77,3.88,20.47,3.73,30.13-.44s17.11-11.84,21-21.62,3.73-20.47-.44-30.13c-4.17-9.66-11.84-17.11-21.62-21-4.71-1.87-9.63-2.8-14.54-2.8Z"/>
      </g>
    </g>
    <g id="_Radial_Repeat_-5" data-name="&amp;lt;Radial Repeat&amp;gt;">
      <g>
        <circle class="cls-10" cx="259.95" cy="319.12" r="39.87"/>
        <path class="cls-3" d="m259.88,359.49c-6.41,0-12.91-1.53-18.95-4.75-19.64-10.48-27.09-34.99-16.6-54.63,10.48-19.64,34.99-27.09,54.63-16.6,19.64,10.48,27.09,34.99,16.6,54.63-7.26,13.6-21.25,21.35-35.68,21.35Zm.13-79.74c-14.08,0-27.72,7.56-34.8,20.83-10.22,19.15-2.96,43.05,16.19,53.28,19.15,10.22,43.05,2.96,53.28-16.19,10.22-19.15,2.96-43.05-16.19-53.28-5.89-3.14-12.23-4.63-18.48-4.63Z"/>
      </g>
    </g>
    <g id="_Radial_Repeat_-6" data-name="&amp;lt;Radial Repeat&amp;gt;">
      <g>
        <circle class="cls-10" cx="157.09" cy="245" r="39.99"/>
        <path class="cls-3" d="m157,285.5c-8.12,0-16.03-2.44-22.86-7.14-8.91-6.13-14.9-15.36-16.87-26-1.97-10.64.33-21.4,6.46-30.31,6.13-8.91,15.36-14.9,26-16.87h0c10.63-1.97,21.4.33,30.31,6.46s14.9,15.36,16.87,26c1.97,10.64-.33,21.4-6.46,30.31s-15.36,14.9-26,16.87c-2.48.46-4.98.69-7.45.69Zm-7.09-79.34c-10.37,1.92-19.38,7.76-25.36,16.45-5.98,8.69-8.22,19.19-6.3,29.56s7.76,19.38,16.45,25.36c8.69,5.98,19.19,8.21,29.56,6.3,10.37-1.92,19.38-7.76,25.36-16.45s8.22-19.19,6.3-29.56-7.76-19.38-16.45-25.36c-8.69-5.98-19.19-8.22-29.56-6.3h0Z"/>
      </g>
    </g>
    <g id="_Radial_Repeat_-7" data-name="&amp;lt;Radial Repeat&amp;gt;">
      <g>
        <circle class="cls-10" cx="187" cy="116" r="40"/>
        <path class="cls-3" d="m186.97,156.48c-9.41,0-18.87-3.25-26.52-9.89-8.17-7.09-13.09-16.94-13.85-27.73-.76-10.79,2.72-21.23,9.81-29.4,14.64-16.87,40.27-18.68,57.13-4.04,16.87,14.64,18.68,40.27,4.04,57.13-8,9.21-19.28,13.94-30.61,13.94Zm.09-79.98c-.95,0-1.89.03-2.85.1-10.52.74-20.13,5.54-27.04,13.51-6.92,7.97-10.31,18.15-9.57,28.68.74,10.52,5.54,20.13,13.51,27.04,16.45,14.27,41.45,12.51,55.72-3.94,6.92-7.97,10.31-18.15,9.57-28.68-.74-10.52-5.54-20.13-13.51-27.04-7.25-6.29-16.33-9.67-25.83-9.67Z"/>
      </g>
    </g>
    <g>
      <path d="m301.87,124.3c1.33,0,2.25.43,2.25,1.78s-.92,1.76-2.25,1.76h-.59v2.25h-1.2v-5.8h1.79Zm-.59.98v1.61h.56c.55,0,1-.18,1-.8s-.45-.81-1-.81h-.56Z"/>
      <path d="m305.28,130.1v-.86h1.25v-4.08h-1.25v-.86h2.4v4.93h1.25v.86h-3.65Z"/>
      <path d="m311.66,130.21c-.74,0-1.46-.47-1.46-1.26,0-1.1,1.25-1.32,2.7-1.5v-.1c0-.66-.29-.89-.76-.89s-.77.22-.8.7h-1.03c.08-.85.78-1.47,1.87-1.47s1.82.43,1.82,1.89c0,.14-.02.71-.02,1.1,0,1.18.05,1.3.09,1.42h-1.05v-.55c-.31.46-.75.66-1.38.66Zm1.28-2.05c-1.11.11-1.6.24-1.6.75,0,.32.22.52.63.52.72,0,.97-.46.97-1.16v-.11Z"/>
      <path d="m316.7,125.8v.5c.25-.38.64-.6,1.14-.6.99,0,1.4.66,1.4,1.69v2.7h-1.15v-2.51c0-.46-.05-1-.63-1-.65,0-.76.58-.76,1.23v2.28h-1.15v-4.3h1.15Z"/>
      <path d="m321.87,125.8v.5c.25-.38.64-.6,1.14-.6.99,0,1.4.66,1.4,1.69v2.7h-1.15v-2.51c0-.46-.05-1-.63-1-.65,0-.76.58-.76,1.23v2.28h-1.15v-4.3h1.15Z"/>
      <path d="m325.94,130.1v-.86h1.25v-2.57h-1.25v-.86h2.4v3.44h1.26v.86h-3.65Zm2.4-5.8v1.06h-1.15v-1.06h1.15Z"/>
      <path d="m332.21,125.8v.5c.25-.38.64-.6,1.14-.6.99,0,1.4.66,1.4,1.69v2.7h-1.15v-2.51c0-.46-.05-1-.63-1-.65,0-.76.58-.76,1.23v2.28h-1.15v-4.3h1.15Z"/>
      <path d="m338.89,125.8h1.14v3.86c0,1.42-.75,1.94-1.99,1.94-.86,0-1.67-.34-1.81-1.38h1.06c.07.37.3.56.76.56.58,0,.84-.38.84-.91v-.46c-.21.39-.61.63-1.1.63-.98,0-1.74-.77-1.74-2.16s.76-2.17,1.74-2.17c.5,0,.9.24,1.1.64v-.54Zm-.85.75c-.54,0-.85.54-.85,1.32s.3,1.32.85,1.32.89-.5.89-1.32-.33-1.32-.89-1.32Z"/>
    </g>
    <g>
      <path d="m401.79,162.3c1.57,0,2.8.68,2.8,2.89s-1.25,2.9-2.83,2.9h-1.33v-5.8h1.36Zm-.06.98h-.1v3.84h.1c.98,0,1.58-.39,1.58-1.92s-.61-1.92-1.58-1.92Z"/>
      <path d="m406.63,166.25c.04.79.47,1.14.95,1.14s.73-.23.82-.63h1.1c-.12.73-.77,1.45-1.93,1.45-1.34,0-2.04-.9-2.04-2.21s.74-2.29,2.02-2.29,2.05.96,2.01,2.54h-2.93Zm0-.73h1.84c-.02-.78-.48-.99-.94-.99-.37,0-.84.26-.9.99Z"/>
      <path d="m411.7,163.57c0-1.1.56-1.26,1.58-1.26h1.38v.86h-1.24c-.48,0-.58.06-.58.4v.24h1.82v.86h-1.82v3.44h-1.15v-3.44h-1.25v-.86h1.25v-.23Z"/>
      <path d="m416.09,168.1v-.86h1.25v-2.57h-1.25v-.86h2.4v3.44h1.25v.86h-3.65Zm2.4-5.8v1.06h-1.15v-1.06h1.15Z"/>
      <path d="m422.35,163.8v.5c.25-.38.64-.6,1.14-.6.99,0,1.4.66,1.4,1.69v2.7h-1.15v-2.51c0-.46-.05-1-.63-1-.65,0-.76.58-.76,1.23v2.28h-1.15v-4.3h1.15Z"/>
      <path d="m426.42,168.1v-.86h1.25v-2.57h-1.25v-.86h2.4v3.44h1.25v.86h-3.65Zm2.4-5.8v1.06h-1.15v-1.06h1.15Z"/>
      <path d="m432.38,162.65h1.15v1.15h1.68v.87h-1.68v2.08c0,.41.14.49.47.49h1.19v.86h-1.62c-.94,0-1.2-.31-1.2-1.17v-2.26h-1.25v-.87h1.25v-1.15Z"/>
      <path d="m436.76,168.1v-.86h1.25v-2.57h-1.25v-.86h2.4v3.44h1.25v.86h-3.65Zm2.4-5.8v1.06h-1.15v-1.06h1.15Z"/>
      <path d="m443.74,168.21c-1.06,0-2.05-.61-2.05-2.25s1-2.25,2.05-2.25,2.05.6,2.05,2.25-1.01,2.25-2.05,2.25Zm0-3.65c-.55,0-.9.41-.9,1.4s.35,1.41.9,1.41.9-.42.9-1.41-.35-1.4-.9-1.4Z"/>
      <path d="m448.19,163.8v.5c.25-.38.64-.6,1.14-.6.99,0,1.4.66,1.4,1.69v2.7h-1.15v-2.51c0-.46-.05-1-.63-1-.65,0-.76.58-.76,1.23v2.28h-1.15v-4.3h1.15Z"/>
      <path d="m399.98,176.05c0-.78.52-1.31,1.08-1.61-.36-.54-.46-.92-.46-1.35,0-.72.63-1.3,1.52-1.3.7,0,1.45.38,1.45,1.32,0,.65-.47,1.2-1.05,1.5l.7.91c.13-.37.2-.79.21-1.22h1.03c-.02.7-.25,1.44-.61,2.05l1.03,1.34h-1.31l-.38-.49c-.4.39-.86.59-1.46.59-1.16,0-1.75-.81-1.75-1.75Zm2.69.49l-1.1-1.41c-.3.23-.43.59-.43.94,0,.42.28.9.77.9.34,0,.57-.18.76-.44Zm-.64-2.56c.35-.19.58-.54.58-.89,0-.3-.21-.48-.46-.48-.27,0-.5.17-.5.46,0,.24.07.47.38.9Z"/>
      <path d="m411.98,171.9h1.5l1.5,5.8h-1.31l-.26-1.21h-1.36l-.26,1.21h-1.28l1.49-5.8Zm.26,3.65h.94l-.46-2.13-.48,2.13Z"/>
      <path d="m417.18,173.4v.5c.25-.38.64-.6,1.14-.6.99,0,1.4.66,1.4,1.69v2.7h-1.15v-2.51c0-.46-.05-1-.63-1-.65,0-.76.58-.76,1.23v2.28h-1.15v-4.3h1.15Z"/>
      <path d="m422.48,177.81c-.74,0-1.46-.47-1.46-1.26,0-1.1,1.25-1.32,2.7-1.5v-.1c0-.66-.29-.89-.76-.89s-.77.22-.8.7h-1.03c.08-.85.78-1.47,1.87-1.47s1.82.43,1.82,1.89c0,.14-.02.71-.02,1.1,0,1.18.05,1.3.09,1.42h-1.05v-.55c-.31.46-.75.66-1.38.66Zm1.28-2.06c-1.11.11-1.6.24-1.6.75,0,.32.22.52.63.52.72,0,.97-.46.97-1.16v-.11Z"/>
      <path d="m426.43,177.7v-.86h1.25v-4.08h-1.25v-.86h2.4v4.93h1.25v.86h-3.65Z"/>
      <path d="m434.02,177.56c-.51,1.32-.69,1.54-1.69,1.54h-.92v-.86h.85c.33,0,.41-.07.57-.44l.04-.1-1.66-4.3h1.19l1.05,2.93,1.01-2.93h1.14l-1.58,4.16Z"/>
      <path d="m439.34,174.68c-.08-.38-.38-.54-.88-.54-.35,0-.63.14-.63.38s.25.38.56.46l.47.11c.85.2,1.52.43,1.52,1.29,0,.91-.83,1.42-1.79,1.42-1.02,0-1.75-.57-1.86-1.55h1.02c.05.44.36.7.89.7.43,0,.7-.15.7-.44s-.3-.42-.66-.5l-.51-.12c-.78-.18-1.32-.54-1.32-1.3,0-.83.75-1.29,1.69-1.29.79,0,1.66.39,1.81,1.38h-.99Z"/>
      <path d="m441.93,177.7v-.86h1.25v-2.57h-1.25v-.86h2.4v3.44h1.25v.86h-3.65Zm2.4-5.8v1.06h-1.15v-1.06h1.15Z"/>
      <path d="m449.67,174.68c-.08-.38-.38-.54-.88-.54-.35,0-.63.14-.63.38s.25.38.56.46l.47.11c.85.2,1.52.43,1.52,1.29,0,.91-.83,1.42-1.79,1.42-1.02,0-1.75-.57-1.86-1.55h1.02c.05.44.36.7.89.7.43,0,.7-.15.7-.44s-.3-.42-.66-.5l-.51-.12c-.78-.18-1.32-.54-1.32-1.3,0-.83.75-1.29,1.69-1.29.79,0,1.66.39,1.81,1.38h-.99Z"/>
    </g>
    <g>
      <path d="m467.46,291.8c1.57,0,2.8.68,2.8,2.89s-1.25,2.9-2.83,2.9h-1.33v-5.8h1.36Zm-.06.97h-.1v3.84h.1c.98,0,1.58-.39,1.58-1.92s-.61-1.92-1.58-1.92Z"/>
      <path d="m472.3,295.75c.04.79.47,1.14.95,1.14s.73-.23.82-.63h1.1c-.12.73-.77,1.45-1.93,1.45-1.34,0-2.04-.9-2.04-2.21s.74-2.29,2.02-2.29,2.05.96,2.01,2.54h-2.93Zm0-.73h1.84c-.02-.78-.48-.99-.94-.99-.37,0-.84.26-.9.99Z"/>
      <path d="m479.17,294.58c-.08-.38-.38-.54-.88-.54-.35,0-.63.14-.63.38s.25.38.56.46l.47.11c.85.2,1.52.43,1.52,1.29,0,.91-.83,1.42-1.79,1.42-1.02,0-1.75-.57-1.86-1.55h1.02c.05.44.36.7.89.7.43,0,.7-.15.7-.44s-.3-.42-.66-.5l-.51-.12c-.78-.18-1.32-.54-1.32-1.29,0-.83.75-1.3,1.69-1.3.79,0,1.66.39,1.81,1.38h-.99Z"/>
      <path d="m481.76,297.6v-.86h1.25v-2.57h-1.25v-.86h2.4v3.44h1.25v.86h-3.65Zm2.4-5.8v1.06h-1.15v-1.06h1.15Z"/>
      <path d="m489.54,293.3h1.14v3.86c0,1.42-.75,1.93-1.99,1.93-.86,0-1.67-.34-1.81-1.38h1.06c.07.37.3.56.76.56.58,0,.84-.38.84-.91v-.46c-.21.39-.61.63-1.1.63-.98,0-1.74-.77-1.74-2.16s.76-2.17,1.74-2.17c.5,0,.9.24,1.1.64v-.54Zm-.85.75c-.54,0-.85.54-.85,1.32s.3,1.32.85,1.32.89-.5.89-1.32-.34-1.32-.89-1.32Z"/>
      <path d="m493.19,293.3v.5c.25-.38.64-.6,1.14-.6.99,0,1.4.66,1.4,1.7v2.7h-1.15v-2.51c0-.46-.05-1-.63-1-.65,0-.76.58-.76,1.23v2.28h-1.15v-4.3h1.15Z"/>
    </g>
    <g>
      <path d="m349.3,362.93c1.58,0,2.8.68,2.8,2.89s-1.25,2.9-2.83,2.9h-1.33v-5.8h1.36Zm-.06.97h-.1v3.84h.1c.98,0,1.58-.39,1.58-1.92s-.61-1.92-1.58-1.92Z"/>
      <path d="m354.15,366.87c.04.79.47,1.14.95,1.14s.73-.23.82-.63h1.1c-.12.73-.77,1.45-1.93,1.45-1.34,0-2.04-.9-2.04-2.21s.74-2.29,2.02-2.29,2.05.96,2.02,2.54h-2.93Zm0-.73h1.84c-.02-.78-.48-.99-.94-.99-.37,0-.84.26-.9.99Z"/>
      <path d="m360.28,367.36l1.02-2.94h1.13l-1.62,4.3h-1.11l-1.65-4.3h1.19l1.03,2.94Z"/>
      <path d="m364.48,366.87c.04.79.47,1.14.95,1.14s.73-.23.82-.63h1.1c-.12.73-.77,1.45-1.93,1.45-1.34,0-2.04-.9-2.04-2.21s.74-2.29,2.02-2.29,2.06.96,2.02,2.54h-2.93Zm0-.73h1.84c-.02-.78-.48-.99-.94-.99-.37,0-.84.26-.9.99Z"/>
      <path d="m368.78,368.73v-.86h1.25v-4.08h-1.25v-.86h2.4v4.93h1.25v.86h-3.65Z"/>
      <path d="m375.75,368.83c-1.06,0-2.06-.61-2.06-2.25s1-2.25,2.06-2.25,2.05.6,2.05,2.25-1.01,2.25-2.05,2.25Zm0-3.65c-.55,0-.9.41-.9,1.4s.35,1.41.9,1.41.9-.42.9-1.41-.35-1.4-.9-1.4Z"/>
      <path d="m380.12,364.97c.21-.4.6-.64,1.1-.64.98,0,1.74.78,1.74,2.25s-.76,2.25-1.74,2.25c-.5,0-.9-.24-1.1-.64v1.93h-1.15v-5.7h1.15v.54Zm.85,3.01c.54,0,.85-.54.85-1.4s-.31-1.41-.85-1.41-.89.5-.89,1.41.34,1.4.89,1.4Z"/>
      <path d="m385.53,368.73v-2.88c0-.5-.03-.65-.23-.65-.23,0-.29.22-.29.9v2.62h-1.12v-4.3h1.12v.33c.14-.25.43-.42.74-.42.34,0,.58.17.72.48.18-.34.54-.48.8-.48.57,0,.97.32.97,1.35v3.05h-1.12v-2.88c0-.5-.03-.65-.23-.65-.23,0-.29.22-.29.9v2.62h-1.07Z"/>
      <path d="m390.32,366.87c.04.79.47,1.14.95,1.14s.73-.23.82-.63h1.1c-.12.73-.77,1.45-1.93,1.45-1.34,0-2.04-.9-2.04-2.21s.74-2.29,2.02-2.29,2.06.96,2.02,2.54h-2.93Zm0-.73h1.84c-.02-.78-.48-.99-.94-.99-.37,0-.84.26-.9.99Z"/>
      <path d="m395.71,364.42v.5c.25-.38.64-.6,1.14-.6.99,0,1.4.66,1.4,1.7v2.7h-1.15v-2.51c0-.46-.05-1-.63-1-.65,0-.76.58-.76,1.23v2.28h-1.15v-4.3h1.15Z"/>
      <path d="m400.56,363.27h1.15v1.15h1.68v.87h-1.68v2.08c0,.41.14.49.47.49h1.19v.86h-1.62c-.94,0-1.2-.31-1.2-1.17v-2.26h-1.25v-.87h1.25v-1.15Z"/>
      <path d="m409.51,367.08c0-.78.52-1.31,1.08-1.61-.36-.54-.46-.92-.46-1.35,0-.72.63-1.3,1.52-1.3.7,0,1.45.38,1.45,1.32,0,.65-.47,1.2-1.05,1.5l.7.91c.13-.37.2-.79.21-1.22h1.03c-.02.7-.25,1.44-.61,2.05l1.03,1.34h-1.31l-.38-.49c-.4.39-.86.59-1.46.59-1.16,0-1.75-.81-1.75-1.75Zm2.69.49l-1.1-1.41c-.3.23-.43.59-.43.94,0,.42.28.9.77.9.34,0,.57-.18.76-.44Zm-.64-2.56c.35-.19.58-.54.58-.89,0-.3-.21-.48-.46-.48-.27,0-.5.17-.5.46,0,.24.07.47.38.9Z"/>
      <path d="m347.93,372.53h3.95v1.03h-1.38v3.73h1.38v1.03h-3.95v-1.03h1.38v-3.73h-1.38v-1.03Z"/>
      <path d="m354.52,378.33v-2.88c0-.5-.03-.65-.23-.65-.23,0-.29.22-.29.9v2.62h-1.12v-4.3h1.12v.33c.14-.25.43-.42.74-.42.34,0,.58.17.72.48.18-.34.54-.48.8-.48.57,0,.97.32.97,1.35v3.05h-1.12v-2.88c0-.5-.03-.65-.23-.65-.23,0-.29.22-.29.9v2.62h-1.07Z"/>
      <path d="m359.44,374.57c.21-.4.6-.64,1.1-.64.98,0,1.74.78,1.74,2.25s-.76,2.25-1.74,2.25c-.5,0-.9-.24-1.1-.64v1.93h-1.15v-5.7h1.15v.54Zm.85,3.01c.54,0,.85-.54.85-1.4s-.31-1.41-.85-1.41-.89.5-.89,1.41.34,1.4.89,1.4Z"/>
      <path d="m363.61,378.33v-.86h1.25v-4.08h-1.25v-.86h2.4v4.93h1.25v.86h-3.65Z"/>
      <path d="m369.65,376.47c.04.79.47,1.14.95,1.14s.73-.23.82-.63h1.1c-.12.73-.77,1.45-1.93,1.45-1.34,0-2.04-.89-2.04-2.21s.74-2.29,2.02-2.29,2.06.96,2.02,2.54h-2.93Zm0-.73h1.84c-.02-.78-.48-.99-.94-.99-.37,0-.84.26-.9.99Z"/>
      <path d="m375.2,378.33v-2.88c0-.5-.03-.65-.23-.65-.23,0-.29.22-.29.9v2.62h-1.12v-4.3h1.12v.33c.14-.25.43-.42.74-.42.34,0,.58.17.72.48.18-.34.54-.48.8-.48.57,0,.97.32.97,1.35v3.05h-1.12v-2.88c0-.5-.03-.65-.23-.65-.23,0-.29.22-.29.9v2.62h-1.07Z"/>
      <path d="m379.99,376.47c.04.79.47,1.14.95,1.14s.73-.23.82-.63h1.1c-.12.73-.77,1.45-1.93,1.45-1.34,0-2.04-.89-2.04-2.21s.74-2.29,2.02-2.29,2.06.96,2.02,2.54h-2.93Zm0-.73h1.84c-.02-.78-.48-.99-.94-.99-.37,0-.84.26-.9.99Z"/>
      <path d="m385.37,374.02v.5c.25-.38.64-.6,1.14-.6.99,0,1.4.66,1.4,1.69v2.7h-1.15v-2.51c0-.46-.05-1-.63-1-.65,0-.76.58-.76,1.23v2.28h-1.15v-4.3h1.15Z"/>
      <path d="m390.23,372.87h1.15v1.15h1.68v.87h-1.68v2.08c0,.41.14.49.47.49h1.19v.86h-1.62c-.94,0-1.2-.31-1.2-1.17v-2.26h-1.25v-.87h1.25v-1.15Z"/>
      <path d="m395.83,378.43c-.74,0-1.46-.47-1.46-1.25,0-1.09,1.25-1.32,2.7-1.5v-.1c0-.66-.29-.89-.76-.89s-.77.22-.8.7h-1.03c.08-.85.78-1.47,1.87-1.47s1.82.43,1.82,1.89c0,.14-.02.71-.02,1.1,0,1.18.05,1.3.09,1.42h-1.05v-.55c-.31.46-.75.66-1.38.66Zm1.28-2.05c-1.11.11-1.6.24-1.6.75,0,.32.22.52.63.52.72,0,.97-.46.97-1.16v-.11Z"/>
      <path d="m400.56,372.87h1.15v1.15h1.68v.87h-1.68v2.08c0,.41.14.49.47.49h1.19v.86h-1.62c-.94,0-1.2-.31-1.2-1.17v-2.26h-1.25v-.87h1.25v-1.15Z"/>
      <path d="m404.95,378.33v-.86h1.25v-2.57h-1.25v-.86h2.4v3.44h1.26v.86h-3.65Zm2.4-5.8v1.06h-1.15v-1.06h1.15Z"/>
      <path d="m411.92,378.43c-1.06,0-2.06-.61-2.06-2.25s1-2.25,2.06-2.25,2.05.6,2.05,2.25-1.01,2.25-2.05,2.25Zm0-3.65c-.55,0-.9.41-.9,1.4s.35,1.41.9,1.41.9-.42.9-1.41-.35-1.4-.9-1.4Z"/>
      <path d="m416.38,374.02v.5c.25-.38.64-.6,1.14-.6.99,0,1.4.66,1.4,1.69v2.7h-1.15v-2.51c0-.46-.05-1-.63-1-.65,0-.76.58-.76,1.23v2.28h-1.15v-4.3h1.15Z"/>
    </g>
    <g>
      <path d="m132.46,291.8c1.57,0,2.8.68,2.8,2.89s-1.25,2.9-2.83,2.9h-1.33v-5.8h1.36Zm-.06.97h-.1v3.84h.1c.98,0,1.58-.39,1.58-1.92s-.61-1.92-1.58-1.92Z"/>
      <path d="m137.31,295.75c.04.79.47,1.14.95,1.14s.73-.23.82-.63h1.1c-.12.73-.77,1.45-1.93,1.45-1.34,0-2.04-.9-2.04-2.21s.74-2.29,2.02-2.29,2.05.96,2.01,2.54h-2.93Zm0-.73h1.84c-.02-.78-.48-.99-.94-.99-.37,0-.84.26-.9.99Z"/>
      <path d="m142.61,293.84c.21-.4.6-.64,1.1-.64.98,0,1.74.78,1.74,2.25s-.76,2.25-1.74,2.25c-.5,0-.9-.24-1.1-.64v1.93h-1.15v-5.7h1.15v.54Zm.85,3.01c.54,0,.85-.54.85-1.4s-.31-1.41-.85-1.41-.89.5-.89,1.41.34,1.4.89,1.4Z"/>
      <path d="m146.78,297.6v-.86h1.25v-4.08h-1.25v-.86h2.4v4.93h1.25v.86h-3.65Z"/>
      <path d="m153.74,297.71c-1.06,0-2.06-.61-2.06-2.25s1-2.25,2.06-2.25,2.05.6,2.05,2.25-1.01,2.25-2.05,2.25Zm0-3.65c-.55,0-.9.41-.9,1.4s.35,1.41.9,1.41.9-.42.9-1.41-.35-1.4-.9-1.4Z"/>
      <path d="m159.53,297.46c-.51,1.32-.69,1.54-1.69,1.54h-.92v-.86h.85c.33,0,.41-.07.57-.44l.04-.1-1.66-4.3h1.19l1.05,2.94,1.01-2.94h1.14l-1.58,4.16Z"/>
      <path d="m163.53,297.6v-2.88c0-.5-.03-.65-.23-.65-.23,0-.29.22-.29.9v2.62h-1.12v-4.3h1.12v.33c.14-.25.43-.42.74-.42.34,0,.58.17.72.48.18-.34.54-.48.8-.48.57,0,.97.32.97,1.35v3.05h-1.12v-2.88c0-.5-.03-.65-.23-.65-.23,0-.29.22-.29.9v2.62h-1.07Z"/>
      <path d="m168.32,295.75c.04.79.47,1.14.95,1.14s.73-.23.82-.63h1.1c-.12.73-.77,1.45-1.93,1.45-1.34,0-2.04-.9-2.04-2.21s.74-2.29,2.02-2.29,2.06.96,2.02,2.54h-2.93Zm0-.73h1.84c-.02-.78-.48-.99-.94-.99-.37,0-.84.26-.9.99Z"/>
      <path d="m173.7,293.3v.5c.25-.38.64-.6,1.14-.6.99,0,1.4.66,1.4,1.7v2.7h-1.15v-2.51c0-.46-.05-1-.63-1-.65,0-.76.58-.76,1.23v2.28h-1.15v-4.3h1.15Z"/>
      <path d="m178.56,292.15h1.15v1.15h1.68v.87h-1.68v2.08c0,.41.14.49.47.49h1.19v.86h-1.62c-.94,0-1.2-.31-1.2-1.17v-2.26h-1.25v-.87h1.25v-1.15Z"/>
    </g>
    <g>
      <path d="m194.46,162.3h1.73v5.8h-1.18v-2.64l.02-2.17h-.05l-.5,2.95h-.85l-.49-2.95h-.06l.02,2.17v2.64h-1.18v-5.8h1.73l.39,2.45.39-2.45Z"/>
      <path d="m198.66,168.21c-.74,0-1.46-.47-1.46-1.26,0-1.1,1.25-1.32,2.7-1.5v-.1c0-.66-.29-.89-.76-.89s-.77.22-.8.7h-1.03c.08-.85.78-1.47,1.87-1.47s1.82.43,1.82,1.89c0,.14-.02.71-.02,1.1,0,1.18.05,1.3.09,1.42h-1.05v-.55c-.31.46-.75.66-1.38.66Zm1.28-2.05c-1.11.11-1.6.24-1.6.75,0,.32.22.52.63.52.72,0,.97-.46.97-1.16v-.11Z"/>
      <path d="m202.6,168.1v-.86h1.25v-2.57h-1.25v-.86h2.4v3.44h1.26v.86h-3.65Zm2.4-5.8v1.06h-1.15v-1.06h1.15Z"/>
      <path d="m208.86,163.8v.5c.25-.38.64-.6,1.14-.6.99,0,1.4.66,1.4,1.69v2.7h-1.15v-2.51c0-.46-.05-1-.63-1-.65,0-.76.58-.76,1.23v2.28h-1.15v-4.3h1.15Z"/>
      <path d="m213.72,162.65h1.15v1.15h1.68v.87h-1.68v2.08c0,.41.14.49.47.49h1.19v.86h-1.62c-.94,0-1.2-.31-1.2-1.17v-2.26h-1.25v-.87h1.25v-1.15Z"/>
      <path d="m218.98,166.25c.04.79.47,1.14.95,1.14s.73-.23.82-.63h1.1c-.12.73-.77,1.45-1.93,1.45-1.34,0-2.04-.9-2.04-2.21s.74-2.29,2.02-2.29,2.06.96,2.02,2.54h-2.93Zm0-.73h1.84c-.02-.78-.48-.99-.94-.99-.37,0-.84.26-.9.99Z"/>
      <path d="m224.37,163.8v.5c.25-.38.64-.6,1.14-.6.99,0,1.4.66,1.4,1.69v2.7h-1.15v-2.51c0-.46-.05-1-.63-1-.65,0-.76.58-.76,1.23v2.28h-1.15v-4.3h1.15Z"/>
      <path d="m229.66,168.21c-.74,0-1.46-.47-1.46-1.26,0-1.1,1.25-1.32,2.7-1.5v-.1c0-.66-.29-.89-.76-.89s-.77.22-.8.7h-1.03c.08-.85.78-1.47,1.87-1.47s1.82.43,1.82,1.89c0,.14-.02.71-.02,1.1,0,1.18.05,1.3.09,1.42h-1.05v-.55c-.31.46-.75.66-1.38.66Zm1.28-2.05c-1.11.11-1.6.24-1.6.75,0,.32.22.52.63.52.72,0,.97-.46.97-1.16v-.11Z"/>
      <path d="m234.7,163.8v.5c.25-.38.64-.6,1.14-.6.99,0,1.4.66,1.4,1.69v2.7h-1.15v-2.51c0-.46-.05-1-.63-1-.65,0-.76.58-.76,1.23v2.28h-1.15v-4.3h1.15Z"/>
      <path d="m242.48,165.35h-1.09c-.06-.46-.28-.8-.79-.8s-.83.44-.83,1.41.32,1.4.83,1.4c.35,0,.71-.18.82-.83h1.1c-.15,1.17-1.07,1.68-1.93,1.68-1.26,0-1.97-.94-1.97-2.25s.73-2.25,1.99-2.25c.84,0,1.74.5,1.87,1.65Z"/>
      <path d="m244.82,166.25c.04.79.47,1.14.95,1.14s.73-.23.82-.63h1.1c-.12.73-.77,1.45-1.93,1.45-1.34,0-2.04-.9-2.04-2.21s.74-2.29,2.02-2.29,2.06.96,2.02,2.54h-2.93Zm0-.73h1.84c-.02-.78-.48-.99-.94-.99-.37,0-.84.26-.9.99Z"/>
    </g>
    <g>
      <path d="m234.31,363.96h-1.64v-1.03h4.48v1.03h-1.64v4.77h-1.2v-4.77Z"/>
      <path d="m239.15,366.87c.04.79.47,1.14.95,1.14s.73-.23.82-.63h1.1c-.12.73-.77,1.45-1.93,1.45-1.34,0-2.04-.9-2.04-2.21s.74-2.29,2.02-2.29,2.05.96,2.01,2.54h-2.93Zm0-.73h1.84c-.02-.78-.48-.99-.94-.99-.37,0-.84.26-.9.99Z"/>
      <path d="m246.01,365.7c-.08-.38-.38-.54-.88-.54-.35,0-.63.14-.63.38s.25.38.56.46l.47.11c.85.2,1.52.43,1.52,1.29,0,.91-.83,1.42-1.79,1.42-1.02,0-1.75-.57-1.85-1.55h1.02c.05.44.36.7.89.7.43,0,.7-.15.7-.44s-.3-.42-.66-.5l-.51-.12c-.78-.18-1.32-.54-1.32-1.29,0-.83.75-1.3,1.69-1.3.79,0,1.65.39,1.81,1.38h-.99Z"/>
      <path d="m249.39,363.27h1.15v1.15h1.68v.87h-1.68v2.08c0,.41.14.49.47.49h1.19v.86h-1.62c-.94,0-1.2-.31-1.2-1.17v-2.26h-1.25v-.87h1.25v-1.15Z"/>
      <path d="m253.77,368.73v-.86h1.25v-2.57h-1.25v-.86h2.4v3.44h1.26v.86h-3.65Zm2.4-5.8v1.06h-1.15v-1.06h1.15Z"/>
      <path d="m260.04,364.42v.5c.25-.38.64-.6,1.14-.6.99,0,1.4.66,1.4,1.7v2.7h-1.15v-2.51c0-.46-.05-1-.63-1-.65,0-.76.58-.76,1.23v2.28h-1.15v-4.3h1.15Z"/>
      <path d="m266.72,364.42h1.14v3.86c0,1.42-.75,1.93-1.99,1.93-.86,0-1.67-.34-1.81-1.38h1.06c.07.37.3.56.76.56.58,0,.84-.38.84-.91v-.46c-.21.39-.61.63-1.1.63-.98,0-1.74-.77-1.74-2.16s.76-2.17,1.74-2.17c.5,0,.9.24,1.1.64v-.54Zm-.85.75c-.54,0-.85.54-.85,1.32s.3,1.32.85,1.32.89-.5.89-1.32-.33-1.32-.89-1.32Z"/>
      <path d="m273.84,367.08c0-.78.52-1.31,1.08-1.61-.36-.54-.46-.92-.46-1.35,0-.72.63-1.3,1.52-1.3.7,0,1.45.38,1.45,1.32,0,.65-.47,1.2-1.05,1.5l.7.91c.13-.37.2-.79.21-1.22h1.03c-.02.7-.25,1.44-.61,2.05l1.03,1.34h-1.31l-.38-.49c-.4.39-.86.59-1.46.59-1.16,0-1.75-.81-1.75-1.75Zm2.69.49l-1.1-1.41c-.3.23-.43.59-.43.94,0,.42.28.9.77.9.34,0,.57-.18.76-.44Zm-.64-2.56c.35-.19.58-.54.58-.89,0-.3-.21-.48-.46-.48-.27,0-.5.17-.5.46,0,.24.07.47.38.9Z"/>
      <path d="m232.93,372.53h3.95v1.03h-1.38v3.73h1.38v1.03h-3.95v-1.03h1.38v-3.73h-1.38v-1.03Z"/>
      <path d="m239.36,374.02v.5c.25-.38.64-.6,1.14-.6.99,0,1.4.66,1.4,1.69v2.7h-1.15v-2.51c0-.46-.05-1-.63-1-.65,0-.76.58-.76,1.23v2.28h-1.15v-4.3h1.15Z"/>
      <path d="m244.22,372.87h1.15v1.15h1.68v.87h-1.68v2.08c0,.41.14.49.47.49h1.19v.86h-1.62c-.94,0-1.2-.31-1.2-1.17v-2.26h-1.25v-.87h1.25v-1.15Z"/>
      <path d="m249.48,376.47c.04.79.47,1.14.95,1.14s.73-.23.82-.63h1.1c-.12.73-.77,1.45-1.93,1.45-1.34,0-2.04-.89-2.04-2.21s.74-2.29,2.02-2.29,2.06.96,2.02,2.54h-2.93Zm0-.73h1.84c-.02-.78-.48-.99-.94-.99-.37,0-.84.26-.9.99Z"/>
      <path d="m256.39,374.02h1.14v3.86c0,1.42-.75,1.93-1.99,1.93-.86,0-1.67-.34-1.81-1.38h1.06c.07.37.3.56.76.56.58,0,.84-.38.84-.91v-.46c-.21.39-.61.63-1.1.63-.98,0-1.74-.77-1.74-2.16s.76-2.17,1.74-2.17c.5,0,.9.24,1.1.64v-.54Zm-.85.75c-.54,0-.85.54-.85,1.32s.3,1.32.85,1.32.89-.5.89-1.32-.33-1.32-.89-1.32Z"/>
      <path d="m260.97,374.02v.73c.18-.37.51-.73,1.19-.73h.66v.92h-.82c-.73,0-1.01.34-1.01,1.18v1.34h1.56v.86h-3.78v-.86h1.07v-2.57h-1.07v-.87h2.21Z"/>
      <path d="m265.33,378.43c-.74,0-1.46-.47-1.46-1.25,0-1.09,1.25-1.32,2.7-1.5v-.1c0-.66-.29-.89-.76-.89s-.77.22-.8.7h-1.03c.08-.85.78-1.47,1.87-1.47s1.82.43,1.82,1.89c0,.14-.02.71-.02,1.1,0,1.18.05,1.3.09,1.42h-1.05v-.55c-.31.46-.75.66-1.38.66Zm1.28-2.05c-1.11.11-1.6.24-1.6.75,0,.32.22.52.63.52.72,0,.97-.46.97-1.16v-.11Z"/>
      <path d="m270.06,372.87h1.15v1.15h1.68v.87h-1.68v2.08c0,.41.14.49.47.49h1.19v.86h-1.62c-.94,0-1.2-.31-1.2-1.17v-2.26h-1.25v-.87h1.25v-1.15Z"/>
      <path d="m274.44,378.33v-.86h1.25v-2.57h-1.25v-.86h2.4v3.44h1.26v.86h-3.65Zm2.4-5.8v1.06h-1.15v-1.06h1.15Z"/>
      <path d="m281.42,378.43c-1.06,0-2.06-.61-2.06-2.25s1-2.25,2.06-2.25,2.05.6,2.05,2.25-1.01,2.25-2.05,2.25Zm0-3.65c-.55,0-.9.41-.9,1.4s.35,1.41.9,1.41.9-.42.9-1.41-.35-1.4-.9-1.4Z"/>
      <path d="m285.88,374.02v.5c.25-.38.64-.6,1.14-.6.99,0,1.4.66,1.4,1.69v2.7h-1.15v-2.51c0-.46-.05-1-.63-1-.65,0-.76.58-.76,1.23v2.28h-1.15v-4.3h1.15Z"/>
    </g>
    <g class="cls-5">
      <g>
        <g>
          <path class="cls-14" d="m376.61,321.7c0-2.56,1.43-5.23.86-7.5-.63-2.51-3.19-4.13-4.38-6.13-1.34-2.25-1.72-5.28-3.61-6.61-2.07-1.46-4.91-.69-7.38-.69s-5.31-.78-7.38.69c-1.88,1.33-2.27,4.36-3.61,6.61-1.19,1.99-3.75,3.62-4.37,6.13-.57,2.28.86,4.95.86,7.51,0,1.47-2.18,4.56-2,7.95.13,2.53,2.27,4.82,3.48,7.21,1.12,2.21,1.72,5.34,4.44,6.58,2.01.91,4.9-.24,8.09-.24s6.15,1.18,8.23.3c2.82-1.2,3.58-4.33,4.82-6.49,1.38-2.41,3.59-4.62,3.79-7.19.29-3.41-1.83-6.58-1.83-8.12Z"/>
          <path class="cls-3" d="m367.94,344.33c-.9,0-1.87-.14-2.87-.29-1.12-.17-2.28-.33-3.48-.33s-2.32.16-3.41.32c-1.8.26-3.51.5-4.89-.13-2.25-1.03-3.16-3.23-3.95-5.17-.24-.59-.47-1.14-.72-1.64-.37-.73-.84-1.47-1.3-2.18-1.05-1.65-2.14-3.35-2.23-5.23-.12-2.2.69-4.22,1.33-5.84.36-.9.67-1.67.67-2.13,0-1.03-.25-2.11-.5-3.16-.35-1.49-.71-3.04-.35-4.47.42-1.67,1.58-2.93,2.71-4.14.67-.72,1.29-1.4,1.72-2.12.47-.79.83-1.72,1.18-2.61.62-1.59,1.26-3.23,2.57-4.15,1.69-1.2,3.76-1.04,5.76-.88,1.33.11,2.48.1,3.81,0,2-.16,4.08-.31,5.76.88,1.32.92,1.96,2.57,2.57,4.16.35.89.71,1.81,1.18,2.61.43.72,1.06,1.41,1.73,2.13,1.12,1.21,2.29,2.47,2.7,4.14.36,1.43,0,2.97-.35,4.46-.24,1.05-.5,2.14-.5,3.16,0,.49.29,1.28.63,2.19.62,1.66,1.38,3.74,1.19,5.97-.15,1.92-1.34,3.64-2.48,5.29-.47.69-.97,1.39-1.37,2.1-.29.5-.55,1.06-.83,1.65-.9,1.9-1.91,4.06-4.23,5.05-.63.27-1.33.37-2.08.37Zm-6.34-1.62c1.27,0,2.46.18,3.62.35,1.75.26,3.26.48,4.41,0,1.97-.84,2.86-2.73,3.72-4.56.29-.61.56-1.19.87-1.72.42-.74.93-1.47,1.42-2.17,1.12-1.62,2.18-3.15,2.31-4.81.17-2.02-.55-3.97-1.14-5.54-.39-1.04-.69-1.87-.69-2.54,0-1.14.27-2.28.52-3.39.33-1.44.65-2.8.35-3.99-.36-1.42-1.43-2.58-2.47-3.7-.67-.73-1.37-1.48-1.85-2.29-.52-.86-.89-1.83-1.25-2.76-.59-1.52-1.15-2.95-2.22-3.7-1.39-.99-3.2-.85-5.11-.7-1.31.1-2.66.1-3.97,0-1.91-.15-3.71-.29-5.11.7-1.06.75-1.62,2.19-2.22,3.7-.36.93-.74,1.89-1.26,2.76-.48.81-1.18,1.56-1.85,2.28-1.04,1.12-2.12,2.29-2.47,3.71-.3,1.2.02,2.56.35,4,.26,1.1.52,2.25.52,3.39,0,.66-.33,1.47-.74,2.5-.61,1.53-1.37,3.44-1.26,5.42.08,1.61,1.05,3.13,2.08,4.74.47.74.95,1.5,1.34,2.27.27.54.51,1.11.75,1.72.76,1.85,1.55,3.77,3.44,4.64,1.11.5,2.6.29,4.33.05,1.13-.16,2.3-.33,3.56-.33Z"/>
          <g>
            <polyline class="cls-10" points="369.21 320.88 369.47 330.17 356.88 331.72 358.2 324.56"/>
            <polygon class="cls-3" points="356.27 332.29 357.71 324.47 358.7 324.65 357.5 331.14 368.96 329.73 368.71 320.9 369.71 320.87 369.98 330.61 356.27 332.29"/>
          </g>
          <g>
            <path class="cls-10" d="m367.87,320.14c-.39-.84-.47-1.79-.2-2.68.28-.9.9-1.66,1.13-2.57.17-.88.12-1.78-.15-2.63-.07-.43-.27-.82-.57-1.13-.46-.4-1.15-.38-1.72-.21-.56.22-1.14.4-1.72.53-.77.07-1.53-.15-2.15-.62-.6-.46-1.1-1.05-1.46-1.72-.07.74-.59,1.36-1.31,1.56-.71.18-1.45.11-2.11-.21-.13-.04-.24-.12-.32-.22-.06-.1-.09-.21-.09-.33-.11-.88-1.51-1.28-1.69-.91-.36.66-.66,1.35-.88,2.07-.43,1.61-.62,3.28-.55,4.95v.25c.11,2.49.72,4.94,1.81,7.19.66,1.38,1.58,2.69,2.93,3.36.99.43,2.05.63,3.13.59,1.53,0,3.13-.15,4.39-1.01,1.54-1.03,2.3-2.88,2.99-4.61-.63-.39-1.13-.96-1.43-1.63Z"/>
            <path class="cls-3" d="m361.64,327.9c-1.04,0-2.09-.22-3.05-.63-1.29-.64-2.32-1.81-3.19-3.6-1.12-2.32-1.75-4.81-1.86-7.38v-.27c-.07-1.7.12-3.42.57-5.08.24-.77.55-1.5.93-2.18.15-.31.55-.46,1.04-.37.72.12,1.49.66,1.59,1.46,0,.06.01.1.03.13,0-.02.02,0,.05,0,.61.28,1.24.34,1.83.2.5-.14.88-.59.93-1.12l.16-1.65.78,1.46c.33.61.77,1.14,1.32,1.56.51.4,1.15.58,1.8.52.5-.12,1.05-.29,1.58-.5.91-.27,1.71-.16,2.23.3.4.42.65.9.74,1.42.28.86.34,1.86.15,2.81-.14.57-.39,1.05-.64,1.51-.2.38-.39.74-.5,1.11-.23.77-.17,1.59.18,2.32h0c.26.59.69,1.08,1.24,1.42l.36.22-.15.39c-.65,1.65-1.45,3.7-3.17,4.85-1.43.97-3.25,1.09-4.67,1.09-.09,0-.18,0-.28,0Zm-5.78-18.55c-.32.6-.58,1.22-.78,1.85-.42,1.55-.6,3.16-.53,4.78v.27c.1,2.42.7,4.77,1.76,6.97.76,1.58,1.65,2.61,2.71,3.13.89.38,1.89.58,2.89.53,1.3,0,2.92-.1,4.13-.92,1.34-.9,2.08-2.57,2.66-4.02-.55-.42-.99-.97-1.27-1.61-.45-.95-.53-2.03-.23-3.04.15-.47.36-.88.57-1.28.23-.43.44-.84.55-1.27.15-.76.1-1.59-.15-2.36-.07-.39-.22-.7-.46-.94-.23-.19-.69-.23-1.22-.08-.54.21-1.14.4-1.75.54-.96.09-1.85-.17-2.56-.72-.39-.3-.73-.64-1.03-1.02-.3.45-.76.79-1.3.94-.83.21-1.7.12-2.46-.24-.16-.05-.35-.18-.49-.35-.14-.24-.2-.43-.21-.62-.02-.14-.16-.28-.28-.36-.2-.14-.42-.2-.54-.21Zm.08-.14s0,.02-.01.03c0,0,0-.02.01-.03Z"/>
          </g>
          <g>
            <path class="cls-13" d="m354.34,319.45v-.06l-.02-.08.02.14Z"/>
            <polygon class="cls-3" points="353.84 319.52 353.82 319.38 354.8 319.18 354.84 319.39 353.84 319.52"/>
          </g>
          <path class="cls-22" d="m360.94,308.92c.02.05.04.1.07.15,0-.06.01-.12.02-.18h0l-.08.03Z"/>
          <path class="cls-3" d="m361.3,321.76l-.5-.19c-.18-.06-.36-.16-.51-.29-.69-.57-.79-1.6-.21-2.29,1.22-1.57.99-3.64.52-4.36l.42-.28c.62.94.78,3.24-.55,4.95-.4.48-.33,1.2.14,1.59.11.09.23.16.36.2l.51.19-.17.47Z"/>
          <path class="cls-3" d="m361.69,323.65c-.17,0-.34,0-.51-.03l.11-.99c.43.05.85.02,1.26-.08l.23.97c-.36.08-.72.13-1.09.13Z"/>
          <g>
            <path class="cls-17" d="m370.87,328.25l7.12,3.79c1.03.55,1.92,1.34,2.59,2.3,1.47,2.14,2.57,7.76,3.26,10.68.06.24-.37.09-.32.29h-.3l-38.76.24c.69-2.62,1.79-8.87,3.39-11.19.67-.96,1.55-1.75,2.59-2.3l7.12-3.79"/>
            <path class="cls-3" d="m343.81,346.05l.17-.63c.16-.59.33-1.37.53-2.24.69-3.05,1.64-7.23,2.93-9.11.71-1.03,1.67-1.88,2.77-2.46l7.12-3.79.47.88-7.12,3.79c-.96.51-1.79,1.25-2.41,2.15-1.18,1.71-2.11,5.79-2.78,8.76-.14.6-.26,1.16-.38,1.64l38.16-.24s0,0,.01,0c-.08-.37-.18-.77-.27-1.19-.65-2.89-1.64-7.25-2.83-8.98-.62-.89-1.45-1.63-2.41-2.15l-7.12-3.79.47-.88,7.12,3.79c1.1.59,2.06,1.44,2.77,2.46,1.3,1.89,2.27,6.19,2.98,9.33.13.55.24,1.07.35,1.52l.05.21-.13.27c-.04.07-.1.12-.15.16l.07.26h-.94l-39.41.25Z"/>
          </g>
          <g>
            <path class="cls-10" d="m360.59,340.65c-.79.03-1.66-.1-2.46-.07-.72.03-1.48.07-2.07.47-.41.32-.75.73-1,1.19-.65,1.07-1.28,2.16-1.88,3.26h7.4v-4.86Z"/>
            <path class="cls-3" d="m361.1,346.01h-8.74l.4-.74c.58-1.07,1.21-2.17,1.89-3.29.27-.5.65-.96,1.11-1.32.75-.52,1.64-.55,2.35-.58.42-.01.85.01,1.28.04.4.02.8.05,1.18.03l.52-.02v5.87Zm-7.06-1h6.06v-3.86c-.25,0-.51-.02-.76-.04-.4-.02-.81-.05-1.18-.03-.62.02-1.32.05-1.8.38-.33.26-.62.61-.84,1.02-.53.86-1.02,1.71-1.48,2.53Z"/>
          </g>
          <g>
            <path class="cls-17" d="m383.01,345.51l-22.42-.04v-8.32h18.04c2.92,0,5.45,2.04,6.06,4.9l.32,1.47c0,1.1-.9,2-2,1.99Z"/>
            <path class="cls-3" d="m383.01,346.01h0l-22.92-.05v-9.32h18.54c3.14,0,5.89,2.23,6.55,5.29l.33,1.58c0,1.38-1.12,2.49-2.5,2.49Zm0-1h0c.4,0,.77-.16,1.06-.44.27-.27.43-.63.44-1.01l-.3-1.42c-.56-2.61-2.9-4.5-5.57-4.5h-17.54v7.32l21.92.04Z"/>
          </g>
          <g>
            <rect class="cls-8" x="333" y="318.19" width="31.42" height="20.93"/>
            <path class="cls-3" d="m364.92,339.63h-32.42v-21.93h32.42v21.93Zm-31.42-1h30.42v-19.93h-30.42v19.93Z"/>
          </g>
          <g>
            <rect class="cls-8" x="346.55" y="332.35" width="4.33" height="12.46"/>
            <path class="cls-3" d="m351.37,345.3h-5.33v-13.46h5.33v13.46Zm-4.33-1h3.33v-11.46h-3.33v11.46Z"/>
          </g>
          <g>
            <path class="cls-8" d="m340.05,343.7h17.33c.72,0,1.29.58,1.29,1.29h0v.52h-19.92v-.52c0-.72.58-1.29,1.29-1.29h0Z"/>
            <path class="cls-3" d="m359.17,346.01h-20.92v-1.02c0-.99.81-1.79,1.79-1.79h17.34c.99,0,1.79.81,1.79,1.79v1.02Zm-19.92-1l18.92-.02c0-.44-.36-.79-.79-.79h-17.34c-.44,0-.79.36-.79.79v.02Z"/>
          </g>
          <g>
            <circle class="cls-8" cx="348.71" cy="331.01" r="4.54"/>
            <path class="cls-3" d="m348.71,336.04c-2.78,0-5.04-2.26-5.04-5.04s2.26-5.04,5.04-5.04,5.04,2.26,5.04,5.04-2.26,5.04-5.04,5.04Zm0-9.07c-2.22,0-4.04,1.81-4.04,4.04s1.81,4.04,4.04,4.04,4.04-1.81,4.04-4.04-1.81-4.04-4.04-4.04Z"/>
          </g>
          <rect class="cls-3" x="365.93" y="328.11" width="1" height="7.88"/>
          <g>
            <path class="cls-10" d="m366.85,324.55h-.69l-.9-4.39c-.11-.5.09-1.01.51-1.31.21-.14.46-.22.71-.22h0c.69,0,1.25.56,1.25,1.24,0,.09,0,.18-.03.26l-.85,4.41Z"/>
            <path class="cls-3" d="m367.27,325.05h-1.51l-.99-4.79c-.15-.69.12-1.4.71-1.81.31-.2.66-.27,1.01-.31.46,0,.9.18,1.23.51.33.33.51.77.51,1.23,0,.12-.01.24-.04.36l-.93,4.81Zm-.78-5.91c-.14.02-.31.04-.44.13-.24.17-.36.48-.29.78l.75,3.67.71-3.67c.01-.06.02-.12.02-.17,0-.2-.08-.39-.22-.53-.14-.14-.33-.22-.53-.22Z"/>
          </g>
          <g>
            <path class="cls-10" d="m366.97,324.77l-.58-.34,1.42-4.25c.2-.66.9-1.02,1.55-.82.09.03.18.07.26.12h0c.6.34.8,1.09.47,1.69-.05.08-.1.16-.16.22l-2.96,3.38Z"/>
            <path class="cls-3" d="m367.07,325.41l-1.29-.76,1.55-4.63c.13-.43.43-.8.84-1.02.41-.22.88-.26,1.33-.12.13.04.25.09.37.16.83.47,1.12,1.54.65,2.37-.06.11-.14.22-.23.31l-3.23,3.69Zm1.92-5.61c-.12,0-.24.03-.35.09-.18.09-.3.25-.36.44l-1.18,3.53,2.45-2.8s.08-.09.1-.14c.2-.36.08-.81-.28-1.01-.06-.03-.11-.06-.17-.07-.07-.02-.15-.03-.22-.03Z"/>
          </g>
          <g>
            <path class="cls-10" d="m366.94,325.01l-.34-.59,3.36-2.96c.5-.47,1.29-.43,1.76.07.06.07.12.15.17.23h0c.35.59.15,1.35-.44,1.7-.08.05-.16.09-.25.11l-4.25,1.43Z"/>
            <path class="cls-3" d="m366.72,325.61l-.76-1.29,3.67-3.23c.7-.65,1.8-.6,2.45.1.09.1.17.21.24.32.23.39.3.86.18,1.31-.12.45-.4.83-.8,1.07-.11.07-.23.12-.35.16l-4.63,1.56Zm4.08-3.98c-.18,0-.36.07-.5.2l-2.8,2.46,3.53-1.19c.06-.02.11-.04.16-.07.17-.1.29-.26.34-.45s.02-.39-.08-.56c-.03-.06-.07-.1-.11-.15-.15-.16-.34-.24-.54-.24Z"/>
          </g>
          <g>
            <path class="cls-10" d="m366.8,325.21v-.69l4.39-.87c.67-.15,1.33.27,1.48.93.02.1.03.2.03.3h0c0,.68-.55,1.24-1.24,1.24-.09,0-.18,0-.27-.03l-4.39-.88Z"/>
            <path class="cls-3" d="m371.47,326.62c-.13,0-.26-.01-.39-.04l-4.78-.96v-1.51l4.79-.95c.44-.1.91-.02,1.3.23.39.25.67.63.77,1.09.03.14.05.28.04.42,0,.45-.18.89-.51,1.22-.33.33-.76.51-1.23.51Zm-3.84-1.75l3.66.73c.29.07.52-.02.7-.2.14-.14.22-.33.22-.52,0-.07,0-.13-.02-.19-.04-.19-.16-.36-.33-.46-.17-.11-.37-.14-.56-.1l-3.67.73Z"/>
          </g>
          <g>
            <path class="cls-10" d="m366.58,325.32l.34-.58,4.24,1.45c.48.16.83.59.87,1.1.01.25-.05.5-.17.72h0c-.34.59-1.1.8-1.7.45-.08-.05-.15-.1-.22-.16l-3.36-2.98Z"/>
            <path class="cls-3" d="m370.77,329.13c-.29,0-.59-.08-.87-.23-.11-.06-.21-.14-.31-.23l-3.66-3.25.76-1.29,4.62,1.58c.67.22,1.15.82,1.2,1.54.02.36-.06.71-.24,1.01-.32.56-.91.87-1.51.87Zm-3.28-3.67l2.78,2.47s.09.08.14.1c.35.21.81.08,1.01-.27.08-.13.11-.29.11-.44-.02-.3-.23-.56-.52-.66l-3.51-1.2Z"/>
          </g>
          <g>
            <path class="cls-10" d="m366.34,325.3l.59-.34,2.94,3.38c.34.38.42.92.2,1.38-.11.23-.29.41-.51.54h0c-.59.34-1.35.14-1.69-.45-.05-.08-.08-.17-.11-.26l-1.41-4.24Z"/>
            <path class="cls-3" d="m368.93,330.92c-.6,0-1.19-.31-1.51-.87-.07-.12-.12-.24-.16-.36l-1.53-4.62,1.29-.76,3.21,3.7c.47.52.58,1.28.27,1.92-.16.33-.41.59-.73.76-.27.16-.56.23-.85.23Zm-1.88-5.05l1.17,3.52c.02.06.04.12.07.17.1.17.26.29.45.34.19.05.39.03.56-.07.14-.08.25-.19.32-.33.13-.27.08-.59-.12-.82l-2.43-2.8Z"/>
          </g>
          <g>
            <path class="cls-10" d="m366.13,325.16h.69l.83,4.41c.15.67-.28,1.33-.95,1.48-.09.02-.19.03-.29.03h0c-.69,0-1.24-.57-1.24-1.26,0-.09.01-.18.03-.27l.92-4.39Z"/>
            <path class="cls-3" d="m366.45,331.57h-.03c-.96,0-1.73-.8-1.73-1.76,0-.13.02-.25.04-.37l1-4.78h1.51l.91,4.81c.2.92-.39,1.86-1.33,2.06-.12.03-.25.04-.37.04Zm.03-5.58l-.77,3.67c-.01.06-.02.11-.02.17,0,.2.07.39.21.53.14.14.33.22.53.22.06,0,.12,0,.18-.02.4-.09.65-.49.57-.89l-.7-3.68Z"/>
          </g>
          <g>
            <path class="cls-10" d="m366.03,324.93l.58.34-1.48,4.23c-.21.65-.91,1.02-1.56.81-.09-.03-.18-.07-.27-.12h0c-.59-.35-.79-1.11-.44-1.7.05-.08.1-.15.16-.22l3.01-3.34Z"/>
            <path class="cls-3" d="m363.95,330.87c-.18,0-.35-.03-.53-.08-.13-.04-.26-.1-.38-.17-.4-.23-.68-.61-.8-1.06-.12-.45-.05-.92.19-1.32.07-.11.14-.21.22-.3l3.28-3.64,1.28.76-1.61,4.61c-.14.43-.44.79-.85,1.01-.25.13-.53.2-.8.2Zm1.93-5.03l-2.48,2.76s-.08.09-.1.14c-.1.17-.13.37-.08.56.05.19.17.35.34.45.06.03.11.06.17.08.19.06.39.04.56-.05.18-.09.31-.25.37-.43l1.22-3.51Z"/>
          </g>
          <g>
            <path class="cls-10" d="m366.06,324.69l.33.59-3.4,2.92c-.38.33-.92.41-1.38.19-.23-.11-.41-.29-.53-.52h0c-.34-.6-.13-1.35.47-1.69.08-.05.16-.08.25-.11l4.26-1.38Z"/>
            <path class="cls-3" d="m362.15,329.01c-.26,0-.52-.06-.76-.17-.33-.16-.59-.41-.76-.73-.47-.83-.17-1.89.66-2.36.12-.06.23-.12.36-.15l4.64-1.5.72,1.31-3.71,3.18c-.33.29-.74.43-1.16.43Zm3.31-3.6l-3.52,1.14c-.06.02-.11.04-.16.07-.35.2-.48.65-.28,1.01.08.14.19.25.32.32.27.13.59.08.82-.12l2.81-2.41Z"/>
          </g>
          <g>
            <path class="cls-10" d="m366.2,324.49v.69l-4.4.82c-.5.1-1.01-.11-1.29-.53-.14-.21-.21-.46-.2-.71h0c0-.34.15-.66.39-.89.3-.28.72-.39,1.12-.31l4.39.94Z"/>
            <path class="cls-3" d="m361.54,326.52c-.58,0-1.12-.29-1.46-.78-.19-.31-.29-.65-.29-1,0-.47.21-.92.55-1.25.43-.4,1.01-.56,1.57-.43l4.79,1.02v1.51l-4.81.89c-.11.02-.23.04-.34.04Zm0-2.5c-.19,0-.37.07-.51.2-.14.14-.23.33-.23.54,0,.15.04.3.12.43.17.25.47.37.77.31l3.67-.68-3.67-.78c-.05-.01-.11-.02-.16-.02Z"/>
          </g>
          <g>
            <path class="cls-10" d="m366.42,324.39l-.34.58-4.22-1.5c-.48-.16-.82-.6-.85-1.11-.01-.25.05-.5.18-.72h0c.35-.59,1.11-.78,1.7-.43.08.05.15.1.22.17l3.31,3.03Z"/>
            <path class="cls-3" d="m366.29,325.57l-4.6-1.64c-.67-.23-1.14-.84-1.18-1.55-.02-.36.07-.71.26-1.01.49-.82,1.55-1.09,2.38-.6.11.06.21.14.31.23l3.61,3.3-.77,1.28Zm-4.04-4.05c-.25,0-.5.13-.64.36-.08.14-.12.28-.11.43.02.3.22.57.51.67l3.49,1.24-2.73-2.5s-.09-.08-.14-.1c-.12-.07-.25-.1-.38-.1Z"/>
          </g>
          <g>
            <path class="cls-10" d="m366.66,324.41l-.59.32-2.89-3.42c-.33-.38-.4-.92-.18-1.38.12-.22.3-.41.52-.53h0c.3-.16.64-.2.97-.1.4.13.71.44.83.84l1.35,4.27Z"/>
            <path class="cls-3" d="m365.95,325.37l-3.16-3.73c-.46-.53-.55-1.28-.25-1.92.17-.33.42-.58.73-.75.42-.22.9-.27,1.35-.15.57.18,1,.62,1.17,1.18l1.47,4.65-1.31.72Zm-1.82-5.62c-.13,0-.26.03-.38.1-.13.07-.24.18-.31.32-.13.26-.08.59.11.82l2.39,2.83-1.11-3.52c-.08-.25-.26-.44-.5-.51-.07-.02-.13-.03-.2-.03Z"/>
          </g>
          <g>
            <circle class="cls-10" cx="366.5" cy="324.86" r="1.26"/>
            <path class="cls-3" d="m366.5,326.61c-.97,0-1.76-.79-1.76-1.76s.79-1.76,1.76-1.76,1.76.79,1.76,1.76-.79,1.76-1.76,1.76Zm0-2.51c-.42,0-.76.34-.76.76s.34.76.76.76.76-.34.76-.76-.34-.76-.76-.76Z"/>
          </g>
          <g>
            <rect class="cls-8" x="362.34" y="335.07" width="8.31" height="10.44"/>
            <path class="cls-3" d="m371.15,346.01h-9.31v-11.44h9.31v11.44Zm-8.31-1h7.31v-9.44h-7.31v9.44Z"/>
          </g>
          <g>
            <rect class="cls-16" x="371.9" y="340.76" width=".96" height="3.7"/>
            <rect class="cls-3" x="371.4" y="340.26" width="1.96" height="4.7"/>
          </g>
          <g>
            <path class="cls-8" d="m370.03,343.65h4.55c.72,0,1.29.58,1.29,1.29h0v.52h-7.14v-.52c0-.72.58-1.29,1.29-1.29h0Z"/>
            <path class="cls-3" d="m376.37,345.97h-8.13v-1.02c0-.99.81-1.79,1.79-1.79h4.54c.99,0,1.79.81,1.79,1.79v1.02Zm-7.13-1l6.13-.02c0-.44-.36-.79-.79-.79h-4.54c-.44,0-.79.36-.79.79v.02Z"/>
          </g>
          <g>
            <rect class="cls-8" x="367.27" y="336.88" width="10.08" height="5.19"/>
            <path class="cls-3" d="m377.85,342.57h-11.08v-6.19h11.08v6.19Zm-10.08-1h9.08v-4.19h-9.08v4.19Z"/>
          </g>
          <g>
            <path class="cls-14" d="m370.38,312.49c-4,1.53-16.42,1.22-16.07-4.33"/>
            <path class="cls-3" d="m364.56,313.78c-3.26,0-6.86-.59-8.98-2.15-1.25-.92-1.86-2.13-1.78-3.5l1,.06c-.07,1.04.38,1.91,1.37,2.63,3.17,2.34,10.87,2.39,14.02,1.19l.36.93c-1.3.5-3.55.83-5.99.83Z"/>
          </g>
          <path class="cls-14" d="m365.18,305.88c3.72,0,6.73,1.43,6.73,3.19s-1.25,3.19-3.75,3.19c-3.72,0-13.77-2.5-13.77-5.01,0-1.76,7.07-1.38,10.79-1.38Z"/>
          <path class="cls-3" d="m359.91,315.12c-.71-.71-1.72-.7-2.26-.63-.77.1-1.32.4-1.43.58l-.43-.25c.22-.38.96-.71,1.8-.82.63-.08,1.81-.09,2.68.77l-.35.36Z"/>
          <g class="cls-23">
            <circle class="cls-3" cx="358.02" cy="315.16" r=".89"/>
          </g>
          <path class="cls-3" d="m366.23,315.12c-.72-.71-1.72-.7-2.26-.63-.77.1-1.32.4-1.43.58l-.43-.25c.22-.38.96-.71,1.79-.82.63-.08,1.81-.09,2.68.77l-.35.36Z"/>
          <g class="cls-26">
            <circle class="cls-3" cx="364.36" cy="315.16" r=".89"/>
          </g>
          <g class="cls-30">
            <path class="cls-21" d="m369.83,338.26c.69,0,1.22.3,1.22,1.26s-.54,1.27-1.24,1.27h-.58v-2.53h.59Zm-.02.43h-.05v1.68h.05c.43,0,.69-.17.69-.84s-.27-.84-.69-.84Z"/>
            <path class="cls-21" d="m371.6,338.26h1.53v.45h-1.01v.56h.94v.45h-.94v.62h1.01v.45h-1.53v-2.53Z"/>
            <path class="cls-21" d="m374.94,340.79h-.65l-.65-2.53h.57l.41,1.86.42-1.86h.56l-.65,2.53Z"/>
          </g>
        </g>
        <g>
          <path class="cls-3" d="m420.46,311.28c0-.46.55-.95.5-1.4s-.67-.83-.76-1.28.35-1.03.22-1.47-.82-.68-1-1.1.14-1.08-.08-1.48-.94-.51-1.19-.89-.08-1.09-.38-1.44-1.02-.31-1.34-.63-.28-1.05-.63-1.34-1.06-.11-1.44-.38-.48-.98-.89-1.2-1.06.1-1.48-.08-.66-.86-1.1-1-1.02.31-1.47.22-.82-.72-1.28-.76-.94.5-1.4.5-.95-.54-1.4-.5-.83.67-1.28.76-1.03-.35-1.47-.22-.68.82-1.1,1-1.08-.14-1.48.08-.51.94-.89,1.2-1.09.07-1.44.38-.31,1.02-.63,1.34-1.05.28-1.34.63-.11,1.06-.38,1.44-.98.48-1.19.89.1,1.06-.08,1.48-.86.66-1,1.1.31,1.02.22,1.47-.72.82-.76,1.28.5.94.5,1.4c0,.38-.62.84-.68,1.45-.04.44.48.98.45,1.51-.02.47-.6.96-.59,1.47s.62.93.69,1.43-.38,1.08-.25,1.57.83.73,1.05,1.19-.03,1.15.26,1.56,1.03.38,1.4.76.38,1.08.8,1.36c.42.29,1.1,0,1.57.24s.66.92,1.16,1.09,1.08-.25,1.58-.13.83.76,1.34.85,1.03-.43,1.54-.38.92.65,1.44.67.99-.54,1.51-.54,1.04.56,1.51.54.99-.62,1.47-.67,1.1.45,1.57.38.91-.73,1.39-.84,1.16.29,1.62.15.76-.88,1.21-1.07,1.2.05,1.6-.21.52-1.03.89-1.35,1.16-.31,1.46-.69.14-1.13.38-1.57.97-.69,1.13-1.16-.25-1.13-.15-1.61.72-.94.76-1.43-.52-1.05-.53-1.51c0-.55.53-1.08.49-1.54-.03-.63-.63-1.13-.63-1.51Z"/>
          <path class="cls-3" d="m404.81,326.41s-.04,0-.05,0c-.4-.02-.72-.23-.99-.42-.17-.12-.35-.24-.47-.25-.13-.02-.31.07-.5.15-.3.13-.67.29-1.08.22-.4-.07-.7-.33-.94-.55-.16-.14-.31-.28-.43-.31-.12-.03-.33.02-.52.07-.32.08-.71.18-1.11.04-.41-.14-.66-.47-.86-.73-.13-.17-.25-.33-.37-.39-.11-.06-.32-.05-.53-.05-.33,0-.74.02-1.09-.22-.36-.24-.51-.63-.63-.94-.08-.2-.15-.38-.25-.48-.09-.09-.29-.16-.49-.23-.32-.11-.71-.24-.96-.58-.26-.35-.26-.78-.26-1.13,0-.2,0-.41-.05-.52-.05-.11-.21-.24-.37-.36-.27-.22-.6-.49-.71-.91-.1-.39.02-.77.13-1.09.07-.2.13-.4.11-.53-.02-.12-.14-.29-.25-.46-.2-.28-.42-.61-.44-1.02-.01-.42.2-.78.37-1.07.09-.16.21-.35.21-.44,0-.15-.09-.36-.19-.57-.14-.29-.29-.61-.26-.96.04-.46.29-.82.49-1.11.07-.1.18-.26.19-.32,0-.07-.11-.26-.19-.41-.16-.29-.34-.62-.31-1.01.03-.4.29-.71.5-.96.11-.13.25-.29.26-.38.02-.09-.05-.29-.1-.45-.1-.3-.22-.68-.11-1.07.12-.38.41-.61.68-.82.14-.11.3-.24.34-.32.04-.09.01-.3,0-.47-.04-.33-.08-.71.1-1.06.19-.35.53-.53.83-.68.16-.08.34-.18.4-.26.05-.08.07-.29.09-.47.03-.33.06-.71.31-1,.25-.3.61-.41.93-.5.17-.05.38-.11.44-.17s.12-.27.17-.44c.09-.32.19-.68.49-.93.31-.27.71-.3,1.04-.33.17-.01.38-.03.45-.08.08-.05.18-.25.26-.4.15-.3.33-.64.67-.82.34-.19.72-.14,1.06-.11.17.02.39.04.47,0,.08-.03.22-.2.32-.34.21-.26.45-.56.82-.67.37-.11.74,0,1.07.1.17.05.36.12.46.1.09-.02.26-.16.38-.27.26-.21.55-.46.94-.5.39-.03.72.15,1.01.31.15.08.35.19.44.19s.28-.11.44-.19c.29-.16.61-.35,1.01-.31.4.03.7.29.95.5.13.11.29.25.39.27.09.02.29-.05.45-.1.3-.1.68-.22,1.06-.1.38.12.61.41.82.67.11.13.24.3.33.34.08.04.29,0,.47,0,.32-.04.71-.08,1.06.11.35.19.53.53.68.83.08.16.18.35.26.4.08.05.29.07.47.09.33.03.7.06,1,.31.31.25.41.62.5.94.04.16.11.37.17.43.07.07.27.12.44.17.32.09.68.2.94.5.26.31.3.71.33,1.03.02.17.04.38.09.46.05.08.24.17.4.25.3.15.63.33.82.67.19.34.14.72.11,1.06-.02.16-.04.39,0,.47.03.08.21.22.34.33.26.21.56.45.67.82.11.38,0,.74-.1,1.06-.05.17-.12.37-.1.46.02.09.16.26.27.39.21.26.45.55.49.93.04.39-.15.72-.31,1.01-.08.15-.18.33-.19.42.02.06.11.22.18.32.19.31.43.69.45,1.17.03.35-.14.68-.28.97-.1.21-.21.43-.21.59,0,.09.11.3.2.47.17.32.35.68.33,1.08-.03.4-.27.73-.48,1.03-.12.17-.26.35-.28.47-.02.11.03.33.08.53.09.35.19.75.05,1.14-.14.4-.47.64-.76.86-.16.12-.35.26-.41.37-.06.11-.08.34-.1.55-.03.37-.07.78-.33,1.1-.26.33-.67.45-1.02.56-.19.06-.41.13-.5.2-.09.08-.19.29-.28.47-.16.33-.33.71-.68.92-.34.21-.75.2-1.11.2-.21,0-.45,0-.56.04-.11.05-.26.23-.4.39-.23.27-.48.58-.86.7-.37.12-.76.03-1.11-.06-.19-.05-.44-.11-.55-.08-.11.03-.3.18-.47.32-.27.22-.58.47-.95.53-.38.05-.75-.09-1.07-.22-.19-.08-.41-.18-.54-.16-.12.01-.33.15-.51.26-.29.18-.62.39-.99.41-.35.02-.7-.16-.99-.32-.2-.11-.4-.22-.54-.22s-.32.11-.51.21c-.28.15-.59.33-.97.33Zm1.48-1.54c.39,0,.72.18,1.02.34.17.09.37.19.47.2.11,0,.33-.15.5-.25.28-.18.59-.38.95-.41.35-.03.7.1,1,.23.19.08.44.18.54.16.11-.02.31-.18.48-.32.25-.21.53-.44.87-.52.34-.08.7,0,1.01.08.21.05.46.11.57.08.1-.03.27-.24.4-.39.21-.25.44-.53.77-.67.31-.13.66-.13.97-.12.2,0,.47,0,.57-.05.09-.06.21-.31.3-.5.13-.28.28-.59.53-.81.25-.21.57-.31.86-.4.2-.06.47-.14.54-.23.07-.08.09-.35.11-.56.03-.3.06-.64.22-.93.16-.3.44-.51.68-.69.17-.13.38-.28.42-.39.04-.11-.03-.37-.08-.57-.08-.3-.16-.64-.09-.97.07-.33.27-.61.46-.86.13-.17.28-.39.29-.5,0-.12-.12-.35-.21-.54-.15-.29-.31-.59-.31-.92,0-.4.17-.74.32-1.04.08-.16.19-.38.18-.47-.01-.23-.16-.47-.3-.7-.16-.26-.33-.53-.33-.84,0-.35.17-.65.32-.92.07-.13.2-.35.19-.43,0-.08-.16-.27-.27-.39-.2-.24-.42-.5-.48-.85-.06-.34.04-.66.13-.95.05-.16.12-.39.1-.47-.02-.08-.21-.23-.34-.33-.24-.19-.51-.41-.64-.73-.13-.32-.09-.66-.06-.96.02-.16.05-.4,0-.48-.04-.07-.25-.18-.4-.26-.27-.14-.58-.3-.77-.59-.19-.29-.22-.62-.25-.92-.02-.17-.04-.41-.09-.48-.06-.07-.29-.14-.45-.18-.29-.08-.62-.18-.86-.42-.25-.25-.34-.58-.43-.87-.04-.15-.11-.39-.17-.44-.06-.05-.3-.07-.46-.09-.31-.03-.66-.06-.95-.27-.28-.2-.44-.5-.57-.76-.08-.15-.19-.36-.26-.4-.07-.04-.3-.01-.47,0-.3.03-.64.07-.96-.06-.33-.14-.54-.4-.73-.64-.11-.13-.25-.32-.33-.34-.08-.02-.31.05-.46.1-.29.09-.61.2-.96.13-.34-.07-.6-.29-.83-.48-.12-.1-.31-.26-.39-.26-.07,0-.29.11-.44.19-.27.15-.57.31-.92.31s-.66-.17-.92-.32c-.14-.08-.35-.19-.43-.19-.08,0-.27.17-.39.27-.23.2-.5.42-.84.48-.34.06-.66-.04-.95-.13-.16-.05-.39-.12-.47-.1-.08.02-.23.21-.33.34-.19.24-.4.51-.73.64-.32.13-.66.09-.96.06-.16-.02-.4-.05-.47,0-.07.04-.18.25-.26.4-.14.27-.3.58-.59.77-.29.19-.63.22-.92.25-.17.02-.41.04-.47.09-.07.06-.13.28-.18.45-.08.29-.18.62-.42.87s-.58.34-.87.43c-.15.04-.39.11-.44.17-.05.06-.07.3-.09.46-.03.31-.06.66-.27.95-.2.28-.5.44-.76.57-.15.08-.36.19-.4.26-.04.08-.01.31,0,.48.03.3.07.64-.06.96-.13.33-.41.54-.65.73-.13.1-.32.25-.34.33-.02.08.05.31.1.46.09.29.2.62.13.96-.07.34-.29.6-.48.83-.1.12-.26.31-.27.39,0,.09.11.29.19.44.15.26.31.57.31.92,0,.33-.19.6-.37.86-.15.21-.3.43-.32.63,0,.08.1.3.17.44.15.3.31.65.29,1.05-.02.34-.2.64-.35.91-.11.19-.24.4-.23.52,0,.12.13.31.26.49.17.25.37.53.42.89s-.06.69-.15.98c-.06.2-.14.42-.11.54.03.1.22.26.37.38.23.19.5.4.64.71.15.31.15.64.15.94,0,.21,0,.45.07.54.06.09.28.16.47.22.29.1.62.21.88.47.25.25.37.56.47.83.08.2.16.41.26.47.09.06.31.06.51.05.31,0,.67-.01,1.01.16.32.17.52.43.7.67.14.18.27.35.38.39.12.04.33-.01.53-.07.3-.08.64-.16,1-.08.37.09.63.32.87.53.16.14.32.29.44.31.12.02.32-.07.51-.15.29-.12.61-.27.99-.23.38.04.68.24.94.42.17.12.35.24.47.25.12.06.31-.1.5-.2.28-.16.6-.33.99-.33Z"/>
          <g>
            <polyline class="cls-19" points="414.69 318.75 414.98 328.93 401.18 330.62 402.63 322.78"/>
            <polygon class="cls-3" points="400.57 331.2 402.14 322.69 403.12 322.87 401.8 330.04 414.47 328.49 414.19 318.76 415.19 318.73 415.49 329.37 400.57 331.2"/>
          </g>
          <g>
            <path class="cls-19" d="m413.2,317.93c-.52-1.13-.52-2.43,0-3.56.12-.26.26-.51.41-.76.2-.31.37-.64.51-.98.38-.98.22-2.07.04-3.02-.11-.6-.27-1.28-.76-1.66-.59-.45-1.44-.3-1.89-.17-.22.06-.43.14-.65.22-.42.17-.85.28-1.29.35-1.05.06-2.08-.35-2.79-1.13-.44-.43-.81-.93-1.08-1.48-.1.73-.56,1.35-1.22,1.67-.88.38-1.89.08-2.84-.28h-.03c-.23-.09-.46-.16-.7-.21-1.2-.18-2.27.99-2.58,2.22-.14.63-.23,1.27-.25,1.91-.03.42-.06.85-.12,1.28l.43,4.74c.33,1.11.73,2.19,1.19,3.25,1.97,4.53,3.33,5.48,7.32,5.48,4.21,0,5.81-1.11,7.7-5.7.04-.1.11-.25.19-.43-.69-.41-1.25-1.02-1.6-1.74Z"/>
            <path class="cls-3" d="m406.92,326.3c-4.24,0-5.77-1.13-7.78-5.78-.47-1.08-.88-2.19-1.21-3.31l-.46-4.89v-.06c.07-.41.1-.82.13-1.22.02-.68.11-1.35.26-2.01.37-1.46,1.64-2.83,3.14-2.6.26.05.5.12.73.21l.1.03c1,.38,1.8.57,2.46.29.49-.24.84-.72.92-1.28l.23-1.6.72,1.45c.25.5.58.96.98,1.35.63.69,1.51,1.05,2.41.99.36-.05.76-.16,1.13-.31.23-.09.46-.17.69-.23.54-.16,1.56-.34,2.33.25.63.49.82,1.28.95,1.97.19,1.07.35,2.21-.07,3.29-.15.38-.34.73-.56,1.07-.14.22-.26.45-.37.69-.46,1-.46,2.14,0,3.13.31.63.8,1.16,1.41,1.53l.38.23-.37.83c-1.94,4.71-3.69,6-8.16,6Zm-8.45-13.96l.43,4.68c.3.98.69,2.05,1.15,3.09,1.87,4.31,3.03,5.18,6.87,5.18,4.04,0,5.46-1.06,7.24-5.39l.02-.06c-.6-.44-1.09-1.03-1.43-1.7h0c-.59-1.28-.59-2.73,0-3.99.13-.28.27-.55.44-.81.19-.29.34-.59.47-.9.32-.83.18-1.81.01-2.74-.09-.51-.22-1.08-.57-1.36-.43-.33-1.15-.16-1.44-.08-.2.06-.41.13-.61.21-.44.18-.91.3-1.39.37-1.25.07-2.41-.4-3.23-1.29-.22-.21-.42-.44-.61-.69-.27.42-.65.77-1.11.99-1.02.44-2.11.15-3.14-.23l-.13-.04c-.19-.08-.4-.14-.61-.18-.9-.12-1.74.86-2,1.85-.13.58-.21,1.19-.23,1.8-.03.45-.06.86-.12,1.28Z"/>
          </g>
          <g>
            <path class="cls-19" d="m398.39,317.17v-.06s-.02-.06-.03-.09l.03.15Z"/>
            <polygon class="cls-3" points="397.92 317.28 397.91 317.25 397.9 317.25 397.87 317.1 398.85 316.9 398.89 317.1 397.92 317.28"/>
          </g>
          <g>
            <path class="cls-19" d="m402.57,305.63c.02.06.05.11.07.16.01-.06.02-.13.02-.2h0l-.09.03Z"/>
            <path class="cls-3" d="m402.85,307.56l-.94-2.23,1.29-.47-.04.76c0,.08-.01.17-.03.25l-.28,1.69Z"/>
          </g>
          <path class="cls-3" d="m406.92,320.14l-.57-.15c-.2-.05-.4-.13-.58-.26-.8-.55-1.01-1.65-.46-2.45,1.1-1.72.81-3.98.12-4.84l.39-.31c.77.96,1.17,3.44-.09,5.43-.4.58-.25,1.37.33,1.76.13.09.27.15.42.19l.58.15-.13.48Z"/>
          <path class="cls-3" d="m407.65,312.12l-.2-.46c.41-.18.84-.32,1.28-.42.7-.15,1.42-.15,2.12,0,.44.09.87.23,1.28.42l-.2.46c-.38-.17-.77-.3-1.18-.38-.63-.13-1.27-.13-1.91,0-.41.09-.8.22-1.18.38Z"/>
          <g class="cls-25">
            <circle class="cls-3" cx="409.78" cy="312.23" r=".97"/>
          </g>
          <path class="cls-3" d="m404.77,312.12c-.38-.17-.78-.3-1.18-.38-.63-.13-1.27-.13-1.91,0-.41.09-.8.22-1.18.38l-.2-.46c.41-.18.84-.32,1.28-.42.7-.15,1.42-.15,2.12,0,.44.09.87.23,1.28.42l-.2.46Z"/>
          <g class="cls-24">
            <circle class="cls-3" cx="402.63" cy="312.23" r=".97"/>
          </g>
          <g>
            <path class="cls-3" d="m397.8,312.93c.3-1.23.17-2.54.49-3.78s1.38-2.44,2.64-2.27c.26.05.51.12.76.22.9.34,1.91.65,2.8.28,1.05-.5,1.51-1.75,1.01-2.8-.02-.04-.04-.08-.06-.12l.26,1.13c.27.61.65,1.17,1.13,1.63.7.76,1.71,1.17,2.75,1.11.66-.13,1.3-.32,1.93-.57.64-.18,1.4-.23,1.93.18s.68,1.06.79,1.69c.18,1,.32,2.07-.05,3.02-.23.61-.64,1.13-.92,1.72-.98,2.06-.1,4.53,1.96,5.51.24.11.49.2.74.27l2.55-2.27-.71-11.28-11.08-5.53-9.63,4.72-1.89,8.29,1.89,5.32.71-6.46Z"/>
            <path class="cls-3" d="m397.35,321.62l-2.67-7.51,1.97-8.66,7.62-3.73-.12-.53.26.47,2.31-1.13,11.56,5.77.74,11.82-2.93,2.6-.26-.07c-.29-.07-.57-.17-.83-.3-1.12-.53-1.96-1.46-2.38-2.63-.42-1.17-.35-2.42.18-3.54.12-.26.27-.51.42-.76.19-.31.37-.61.48-.92.3-.77.22-1.66.02-2.75-.11-.59-.23-1.1-.6-1.39-.43-.33-1.12-.2-1.49-.09-.61.24-1.28.44-1.97.58-1.26.08-2.4-.38-3.21-1.26-.24-.23-.45-.48-.64-.75-.26.43-.64.79-1.12,1.02-1.05.43-2.15.13-3.19-.26-.22-.09-.44-.16-.67-.2-.95-.13-1.8.86-2.07,1.9-.15.59-.19,1.19-.24,1.84-.04.62-.09,1.26-.24,1.9l-.94,8.6Zm15.05-14.47c.53,0,.98.14,1.34.41.71.55.87,1.42.98,2,.2,1.09.33,2.24-.07,3.29-.15.39-.36.74-.56,1.08-.13.22-.27.44-.38.68-.86,1.81-.09,3.98,1.72,4.84.13.06.27.12.4.16l2.16-1.92-.68-10.75-10.61-5.3-1.81.89.96,1.71s.05.1.08.15c.17.37.25.75.25,1.13.22.46.56.95.99,1.37.62.67,1.47,1.02,2.37.97.56-.12,1.18-.3,1.78-.53.38-.11.75-.17,1.08-.17Zm-16.68,6.9l1.11,3.12.48-4.36c.14-.56.18-1.14.22-1.76.05-.66.09-1.34.27-2.02.38-1.44,1.63-2.85,3.2-2.63.32.06.6.14.88.26.83.31,1.71.57,2.42.28.53-.25.86-.77.9-1.33l-.68-2.88-6.98,3.42-1.8,7.91Z"/>
          </g>
          <path class="cls-3" d="m406.46,321.73c-.18,0-.37-.01-.55-.03l.11-.99c.47.05.94.02,1.4-.09l.23.97c-.39.09-.79.14-1.18.14Z"/>
          <path class="cls-20" d="m415.22,311.53c.45-.21.76-.8,1.3-.8,2.21,0,1.04,3.9-.33,4.36"/>
          <g>
            <path class="cls-3" d="m416.61,317.97c-.15-.91.62-1.04.46-1.95s-.93-.77-1.09-1.68.62-1.04.46-1.94-.93-.78-1.08-1.68.62-1.04.46-1.95l-.85.12.25,2.47-.06,2.97.38,2.56,1.07,1.1Z"/>
            <path class="cls-3" d="m417.38,319.47l-2.31-2.36-.4-2.72.06-3.05-.29-2.89,1.81-.25.08.48c.11.64-.12,1.03-.29,1.31-.14.23-.21.36-.17.63.05.27.16.37.37.54.26.21.61.51.71,1.14.11.63-.13,1.02-.3,1.31-.14.23-.21.36-.17.63.05.27.16.37.37.54.26.21.61.51.71,1.14.11.63-.12,1.03-.29,1.31-.14.23-.22.36-.17.64l.27,1.58Zm-1.36-2.83l.29.3c.04-.07.08-.14.11-.2.14-.23.21-.36.17-.63-.05-.27-.16-.37-.37-.54-.13-.11-.29-.24-.43-.44l.23,1.51Zm-.3-4.6l-.03,1.26c.04-.07.07-.13.11-.19.14-.23.21-.36.17-.63-.04-.21-.12-.32-.25-.44Z"/>
          </g>
          <g>
            <path class="cls-17" d="m401.92,326.82l-7.81,4.15c-1.13.6-2.11,1.47-2.84,2.53-1.75,2.54-2.96,9.39-3.72,12.27h43.04c.1-.17.15-.38.12-.58-.76-3.18-1.96-9.34-3.57-11.7-.73-1.06-1.7-1.92-2.84-2.53l-9.34-4.15-13.04.02Z"/>
            <path class="cls-3" d="m430.88,346.26h-43.97l.17-.63c.17-.65.36-1.5.58-2.46.76-3.34,1.8-7.92,3.21-9.97.77-1.12,1.82-2.05,3.02-2.68l7.92-4.21,13.37.02,9.34,4.15c1.23.65,2.27,1.58,3.05,2.7,1.42,2.08,2.49,6.79,3.27,10.23.14.6.26,1.16.38,1.64.05.37-.02.69-.18.95l-.15.24Zm-42.68-1h42.03s0-.02,0-.02c-.11-.43-.23-.99-.37-1.6-.72-3.17-1.8-7.96-3.12-9.88-.68-.98-1.6-1.8-2.66-2.37l-9.21-4.09-12.81.02-7.7,4.09c-1.06.56-1.98,1.38-2.66,2.37-1.3,1.88-2.32,6.36-3.06,9.62-.16.69-.3,1.32-.43,1.86Z"/>
          </g>
          <g>
            <rect class="cls-8" x="376.49" y="315.74" width="34.45" height="22.95"/>
            <path class="cls-3" d="m411.44,339.19h-35.45v-23.95h35.45v23.95Zm-34.45-1h33.45v-21.95h-33.45v21.95Z"/>
          </g>
          <g>
            <rect class="cls-8" x="391.14" y="332.04" width="5.15" height="12.63"/>
            <path class="cls-3" d="m396.79,345.16h-6.15v-13.62h6.15v13.62Zm-5.15-1h4.15v-11.62h-4.15v11.62Z"/>
          </g>
          <g>
            <path class="cls-17" d="m411.51,342.83l-2.12-.62,2.31-8.06c.17-.59.78-.92,1.37-.76,0,0,0,0,0,0h0c.59.17.92.78.76,1.37,0,0,0,0,0,0l-2.31,8.06Z"/>
            <path class="cls-3" d="m411.85,343.45l-3.08-.9,2.44-8.54c.25-.85,1.14-1.35,1.99-1.1.41.12.75.39.96.77.21.38.26.81.14,1.22l-2.45,8.55Zm-1.85-1.58l1.16.34,2.17-7.58c.04-.16.03-.32-.05-.46-.08-.14-.21-.24-.36-.29-.32-.1-.66.09-.75.41l-2.17,7.58Z"/>
          </g>
          <path class="cls-3" d="m414.81,336.36l-.96-.28.31-1.05-.87-.25c.14-.5.67-.8,1.17-.66.26.08.46.24.59.46s.15.48.08.73l-.31,1.05Z"/>
          <polygon class="cls-3" points="413.6 335.51 411.48 334.89 411.75 333.93 413.88 334.55 413.6 335.51"/>
          <g>
            <path class="cls-8" d="m383.39,343.59h20.65c.85,0,1.54.69,1.54,1.54v.62h-23.74v-.62c0-.85.69-1.54,1.54-1.54Z"/>
            <path class="cls-3" d="m406.09,346.25h-24.74v-1.12c0-1.13.92-2.04,2.04-2.04h20.65c1.12,0,2.04.92,2.04,2.04v1.12Zm-23.74-1h22.74v-.12c0-.57-.47-1.04-1.04-1.04h-20.65c-.58,0-1.04.47-1.04,1.04v.12Z"/>
          </g>
          <g>
            <circle class="cls-8" cx="393.72" cy="330.44" r="5.4"/>
            <path class="cls-3" d="m393.72,336.34c-3.25,0-5.9-2.65-5.9-5.9s2.65-5.9,5.9-5.9,5.9,2.65,5.9,5.9-2.65,5.9-5.9,5.9Zm0-10.81c-2.7,0-4.9,2.2-4.9,4.9s2.2,4.9,4.9,4.9,4.9-2.2,4.9-4.9-2.2-4.9-4.9-4.9Z"/>
          </g>
          <g>
            <path class="cls-19" d="m407.59,342.94h0c1.11-1.04,2.65-1.5,4.15-1.23l2.48.44c.64.12,1.25.36,1.8.71l.27.18c.68.44.87,1.35.43,2.03-.27.42-.74.67-1.23.67h-6.8c-.89,0-1.62-.73-1.61-1.63,0-.44.19-.87.51-1.17Z"/>
            <path class="cls-3" d="m415.49,346.24h-6.8c-1.17,0-2.12-.96-2.11-2.13,0-.58.25-1.14.67-1.54h0c1.22-1.14,2.93-1.65,4.58-1.36l2.48.44c.71.13,1.38.39,1.98.79l.27.18c.44.29.74.73.85,1.24.11.51.01,1.04-.28,1.48-.36.56-.98.89-1.65.89Zm-4.59-4.11c-1.09,0-2.16.41-2.97,1.17h0c-.22.21-.35.5-.35.81,0,.62.5,1.12,1.11,1.12h6.79c.33,0,.63-.16.81-.44.14-.22.19-.48.14-.73-.05-.25-.2-.47-.42-.61l-.27-.18c-.49-.32-1.03-.53-1.61-.64l-2.48-.44c-.25-.04-.5-.07-.75-.07Z"/>
          </g>
          <g>
            <rect class="cls-16" x="419.13" y="341.01" width=".95" height="3.69"/>
            <rect class="cls-3" x="418.63" y="340.51" width="1.95" height="4.69"/>
          </g>
          <g>
            <path class="cls-16" d="m417.11,343.71h4.98c.78,0,1.42.64,1.42,1.42h0v.57h-7.82v-.57c0-.78.64-1.42,1.42-1.42h0Z"/>
            <path class="cls-3" d="m424.02,346.19h-8.82v-1.07c0-1.06.86-1.92,1.92-1.92h4.98c1.06,0,1.92.86,1.92,1.92v1.07Zm-7.82-1h6.82v-.07c0-.51-.41-.92-.92-.92h-4.98c-.51,0-.92.41-.92.92v.07Z"/>
          </g>
          <g>
            <rect class="cls-8" x="414.08" y="336.28" width="11.05" height="5.69"/>
            <path class="cls-3" d="m425.63,342.47h-12.05v-6.69h12.05v6.69Zm-11.05-1h10.05v-4.69h-10.05v4.69Z"/>
          </g>
          <g class="cls-30">
            <path class="cls-21" d="m416.62,337.71c.74,0,1.32.32,1.32,1.36s-.59,1.37-1.33,1.37h-.63v-2.73h.64Zm-.03.46h-.05v1.81h.05c.46,0,.75-.18.75-.9s-.29-.9-.75-.9Z"/>
            <path class="cls-21" d="m418.53,337.71h1.65v.49h-1.09v.61h1.01v.49h-1.01v.67h1.09v.49h-1.65v-2.73Z"/>
            <path class="cls-21" d="m422.14,340.44h-.7l-.71-2.73h.61l.45,2.01.45-2.01h.6l-.7,2.73Z"/>
          </g>
        </g>
      </g>
    </g>
    <g id="_Radial_Repeat_-8" data-name="&amp;lt;Radial Repeat&amp;gt;">
      <path class="cls-3" d="m382.37,359.27c-5.04,0-10.09-.96-14.91-2.87-10.02-3.98-17.89-11.63-22.16-21.53-4.27-9.9-4.43-20.87-.45-30.9,3.98-10.02,11.63-17.89,21.53-22.16,9.9-4.27,20.88-4.43,30.9-.45,10.02,3.98,17.89,11.63,22.16,21.53,4.27,9.9,4.43,20.87.45,30.9s-11.63,17.89-21.53,22.16c-5.13,2.21-10.56,3.32-15.98,3.32Zm-.02-79.79c-5.29,0-10.58,1.08-15.59,3.24-9.66,4.17-17.11,11.84-21,21.62s-3.73,20.47.44,30.13,11.84,17.11,21.62,21c9.77,3.88,20.47,3.73,30.13-.44s17.11-11.84,21-21.62,3.73-20.47-.44-30.13c-4.17-9.66-11.84-17.11-21.62-21-4.71-1.87-9.63-2.8-14.54-2.8Z"/>
    </g>
    <g>
      <g>
        <path class="cls-9" d="m452.2,224.49h53.3c.05,0,.1.04.1.1v39.94c0,.05-.04.1-.1.1h-53.3v-40.14h0Z"/>
        <path class="cls-3" d="m505.5,265.13h-53.8v-41.14h53.8c.33,0,.6.27.6.6v39.94c0,.33-.27.6-.6.6Zm-52.8-1h52.4v-39.14h-52.4v39.14Z"/>
      </g>
      <g>
        <rect class="cls-7" x="455.31" y="230.5" width="46.92" height="10.8"/>
        <path class="cls-3" d="m501.73,231v9.8h-45.92v-9.8h45.92m1-1h-47.92v11.8h47.92v-11.8h0Z"/>
      </g>
      <g>
        <rect class="cls-7" x="489.65" y="244.9" width="20.65" height="14.03"/>
        <path class="cls-3" d="m509.8,245.4v13.03h-19.65v-13.03h19.65m1-1h-21.65v15.03h21.65v-15.03h0Z"/>
      </g>
      <rect class="cls-3" x="455.52" y="248.92" width="24.8" height="1.76"/>
      <rect class="cls-3" x="455.52" y="244.53" width="24.8" height="1.76"/>
      <rect class="cls-3" x="455.52" y="253.01" width="24.8" height="1.76"/>
      <rect class="cls-3" x="455.52" y="257.58" width="9.45" height="1.76"/>
      <circle class="cls-3" cx="496.85" cy="227.49" r=".83"/>
      <circle class="cls-3" cx="499.33" cy="227.49" r=".83"/>
      <circle class="cls-3" cx="501.81" cy="227.49" r=".83"/>
      <g>
        <polygon class="cls-9" points="509.43 263.45 511.09 259.56 515 257.87 505.95 254.42 509.43 263.45"/>
        <path class="cls-3" d="m509.41,264.77l-4.33-11.22,11.25,4.29-4.86,2.09-2.06,4.83Zm-2.59-9.49l2.64,6.83,1.25-2.94,2.96-1.28-6.85-2.62Z"/>
      </g>
    </g>
  </g>
  <g id="Layer_7" data-name="Layer 7">
    <g>
      <path class="cls-3" d="m236.81,98.69l-.62-.78c.11-.09,11.27-8.93,29.13-15.73l.36.93c-17.71,6.74-28.76,15.49-28.87,15.57Z"/>
      <polygon class="cls-3" points="261.96 92.7 261.04 92.3 265.12 82.73 255.32 78.97 255.68 78.03 266.45 82.17 261.96 92.7"/>
    </g>
    <g>
      <path class="cls-3" d="m399.54,96.34c-15.51-10.88-28.95-15.12-29.08-15.16l.3-.96c.13.04,13.71,4.32,29.36,15.3l-.57.82Z"/>
      <polygon class="cls-3" points="389.52 98.63 389.33 97.65 399.55 95.66 397.16 85.44 398.14 85.21 400.75 96.44 389.52 98.63"/>
    </g>
    <g>
      <path class="cls-3" d="m435.85,314.58l-.74-.67c12.74-14.03,18.62-26.83,18.68-26.96l.91.41c-.06.13-6,13.06-18.85,27.22Z"/>
      <polygon class="cls-3" points="434.86 315.1 434.08 303.68 435.08 303.62 435.78 314 446.22 312.92 446.33 313.91 434.86 315.1"/>
    </g>
    <g>
      <path class="cls-3" d="m211.82,315.67c-.11-.09-10.75-9.55-20.54-25.97l.86-.51c9.71,16.28,20.24,25.63,20.34,25.73l-.66.75Z"/>
      <polygon class="cls-3" points="189.84 300.12 188.86 299.92 191.06 288.6 202.21 291.2 201.99 292.17 191.85 289.81 189.84 300.12"/>
    </g>
    <g>
      <path class="cls-3" d="m166.92,196.48l-1-.07c0-.14,1.01-14.34,8.05-32.12l.93.37c-6.97,17.62-7.97,31.67-7.98,31.81Z"/>
      <polygon class="cls-3" points="178.55 174.29 174.23 164.82 164.84 169.51 164.4 168.62 174.71 163.46 179.46 173.88 178.55 174.29"/>
    </g>
    <g>
      <path class="cls-3" d="m323.65,345.94c-5.35,0-11.96-.34-19.3-1.44l.15-.99c18.74,2.82,32.65.61,32.79.59l.16.99c-.09.01-5.38.85-13.8.85Z"/>
      <polygon class="cls-3" points="310.72 352.85 303.36 343.96 312.44 336.99 313.05 337.78 304.79 344.12 311.49 352.21 310.72 352.85"/>
    </g>
    <g>
      <path class="cls-3" d="m476.71,194.54c-1.69-18.88-7.11-31.88-7.16-32.01l.92-.39c.05.13,5.54,13.27,7.24,32.31l-1,.09Z"/>
      <polygon class="cls-3" points="477.42 195.54 468.5 188.37 469.12 187.59 477.23 194.11 483.51 185.7 484.31 186.3 477.42 195.54"/>
    </g>
  </g>
  <g id="Layer_8" data-name="Layer 8">
    <g>
      <polygon class="cls-17" points="164.42 265.89 149.62 265.89 151.6 262.93 162.45 262.93 164.42 265.89"/>
      <path class="cls-3" d="m165.35,266.39h-16.66l2.64-3.96h11.39l2.64,3.96Zm-14.8-1h12.93l-1.31-1.96h-10.32l-1.31,1.96Z"/>
    </g>
    <g>
      <g>
        <path class="cls-11" d="m345,70.33c0-13.55-11.53-24.54-25.75-24.54s-25.75,10.99-25.75,24.54c0,10.82,7.36,20,17.56,23.27v8.38h15.85v-8.21c10.48-3.11,18.1-12.43,18.1-23.44Z"/>
        <path class="cls-3" d="m327.4,102.47h-16.85v-8.52c-10.52-3.52-17.56-12.97-17.56-23.63,0-13.81,11.78-25.04,26.25-25.04s26.25,11.23,26.25,25.04c0,10.91-7.26,20.44-18.1,23.81v8.34Zm-15.85-1h14.85v-8.08l.36-.11c10.61-3.14,17.74-12.37,17.74-22.96,0-13.26-11.33-24.04-25.25-24.04s-25.25,10.79-25.25,24.04c0,10.34,6.92,19.5,17.21,22.79l.35.11v8.25Z"/>
      </g>
      <polygon class="cls-3" points="315.41 76.26 311.95 68.26 308.48 76.25 304.56 67.2 305.48 66.8 308.48 73.74 311.95 65.74 315.41 73.74 318.88 65.74 322.34 73.74 325.81 65.74 329.28 73.74 332.29 66.8 333.21 67.2 329.28 76.25 325.81 68.25 322.34 76.25 318.88 68.25 315.41 76.26"/>
      <g>
        <rect class="cls-6" x="311.06" y="101.61" width="15.85" height="2.88"/>
        <path class="cls-3" d="m327.4,104.99h-16.85v-3.88h16.85v3.88Zm-15.85-1h14.85v-1.88h-14.85v1.88Z"/>
      </g>
      <g>
        <rect class="cls-6" x="311.06" y="104.49" width="15.85" height="2.88"/>
        <path class="cls-3" d="m327.4,107.87h-16.85v-3.88h16.85v3.88Zm-15.85-1h14.85v-1.88h-14.85v1.88Z"/>
      </g>
      <g>
        <path class="cls-3" d="m313.94,107.73h10.09c0,1.59-1.29,2.88-2.88,2.88h-4.32c-1.59,0-2.88-1.29-2.88-2.88h0Z"/>
        <path class="cls-3" d="m321.14,111.12h-4.32c-1.86,0-3.38-1.52-3.38-3.38v-.5h11.08v.5c0,1.86-1.52,3.38-3.38,3.38Zm-6.65-2.88c.23,1.07,1.19,1.88,2.33,1.88h4.32c1.14,0,2.1-.81,2.33-1.88h-8.98Z"/>
      </g>
    </g>
    <g>
      <g>
        <circle class="cls-14" cx="449.63" cy="116.57" r="26.91"/>
        <path class="cls-3" d="m449.63,143.99c-15.12,0-27.42-12.3-27.42-27.41s12.3-27.42,27.42-27.42,27.42,12.3,27.42,27.42-12.3,27.41-27.42,27.41Zm0-53.83c-14.57,0-26.42,11.85-26.42,26.42s11.85,26.41,26.42,26.41,26.42-11.85,26.42-26.41-11.85-26.42-26.42-26.42Z"/>
      </g>
      <path class="cls-3" d="m449.63,130.53c-7.7,0-13.96-6.26-13.96-13.96s6.26-13.96,13.96-13.96,13.96,6.26,13.96,13.96-6.26,13.96-13.96,13.96Zm0-26.92c-7.14,0-12.96,5.81-12.96,12.96s5.81,12.96,12.96,12.96,12.96-5.81,12.96-12.96-5.81-12.96-12.96-12.96Z"/>
      <circle class="cls-3" cx="449.63" cy="116.57" r="4.56"/>
      <g>
        <g>
          <polygon class="cls-4" points="463.34 108.74 470.03 85.41 473.37 101.53 487.22 110.51 463.34 108.74"/>
          <g class="cls-29">
            <g>
              <rect class="cls-3" x="-167.68" y="-478.27" width="753.62" height="1291.92" transform="translate(5.6 342.13) rotate(-79.32)"/>
              <g class="cls-28">
                <rect class="cls-3" x="459.24" y="81.04" width="36.06" height="36.06" transform="translate(27.24 286.35) rotate(-34.32)"/>
              </g>
            </g>
          </g>
        </g>
        <rect class="cls-3" x="447.39" y="107.72" width="25.02" height="5.38" transform="translate(10.6 258.14) rotate(-31.7)"/>
      </g>
    </g>
    <g>
      <polygon class="cls-17" points="172.19 252.08 165.28 248.14 165.28 232.36 172.19 236.3 172.19 252.08"/>
      <path class="cls-3" d="m172.69,252.95l-7.9-4.52v-16.93l7.9,4.52v16.93Zm-6.9-5.1l5.9,3.37v-14.63l-5.9-3.38v14.63Z"/>
    </g>
    <g>
      <polygon class="cls-17" points="148.51 232.36 141.61 236.3 141.61 252.08 148.51 248.14 148.51 232.36"/>
      <path class="cls-3" d="m141.11,252.95v-16.93l7.9-4.52v16.93l-7.9,4.52Zm1-16.35v14.63l5.9-3.37v-14.63l-5.9,3.38Z"/>
    </g>
    <g>
      <polygon class="cls-17" points="166.89 217.96 156.88 209.58 147.16 217.96 147.16 258.41 166.89 258.41 166.89 217.96"/>
      <path class="cls-3" d="m167.39,258.91h-20.73v-41.17l10.22-8.81,10.51,8.81v41.18Zm-19.73-1h18.73v-39.71l-9.5-7.96-9.23,7.96v39.71Z"/>
    </g>
    <g>
      <rect class="cls-17" x="147.16" y="258" width="19.73" height="5.02"/>
      <path class="cls-3" d="m167.39,263.53h-20.73v-6.02h20.73v6.02Zm-19.73-1h18.73v-4.02h-18.73v4.02Z"/>
    </g>
    <rect class="cls-3" x="153.57" y="222.98" width="6.9" height="9.86" rx="3.45" ry="3.45"/>
    <g>
      <g>
        <g>
          <rect class="cls-8" x="227.91" y="300.63" width="48.87" height="29.61" rx=".21" ry=".21"/>
          <path class="cls-3" d="m276.28,301.13v28.61h-47.87v-28.61h47.87m.29-1h-48.45c-.39,0-.71.32-.71.71v29.2c0,.39.32.71.71.71h48.45c.39,0,.71-.32.71-.71v-29.2c0-.39-.32-.71-.71-.71h0Z"/>
        </g>
        <path class="cls-3" d="m288.91,343.38h-45.86c-1.21,0-2.38-.43-3.3-1.23l-11.31-10.11c-.36-.31-1.18-.6-.59-1.79l49.47.89,12.05,9.51c.68.59.44,2.72-.45,2.72Z"/>
        <g>
          <path class="cls-8" d="m243.61,341.79c-1.09,0-2.15-.39-2.97-1.1l-11.77-10.12h48.16s12.15,10.39,12.15,10.39c.23.2.16.46.13.53-.03.07-.14.31-.44.31h-45.27Z"/>
          <path class="cls-3" d="m276.84,331.05l11.96,10.24h-45.2c-.97,0-1.91-.35-2.65-.98l-10.75-9.24h46.63m.37-1.01h-49.45c-.08,0-.12.11-.06.17l12.61,10.84c.92.79,2.09,1.23,3.3,1.23h45.27c.9,0,1.31-1.13.63-1.72l-12.3-10.52h0Z"/>
        </g>
        <g>
          <polygon class="cls-9" points="274.53 327.91 230.09 328.02 230.09 302.65 274.53 302.65 274.53 327.91"/>
          <path class="cls-3" d="m229.59,328.52v-26.37h45.43v26.27s-45.43.11-45.43.11Zm1-25.37v24.37l43.44-.1v-24.27h-43.44Z"/>
        </g>
        <g>
          <path class="cls-8" d="m238.97,334.88c-.31,0-.72-.1-1.2-.3-.28-.12-.56-.27-.83-.47l-2.28-1.67h40.62s2.45,2.26,2.45,2.26l-38.75.18Z"/>
          <path class="cls-3" d="m275.08,332.94l1.37,1.26-37.48.18c-.14,0-.45-.03-1.01-.26-.24-.1-.49-.24-.73-.41l-1.04-.76h38.89m-41.23-1.01c-.23,0-.3.32-.14.42l2.93,2.15c.29.21.61.4.94.53.39.16.93.34,1.39.34l39.07-.19s.02,0,.03,0c.45,0,.7-.19.44-.46l-3-2.77c-.06-.02-.13-.03-.21-.03h-41.38s-.05,0-.07,0h0Z"/>
        </g>
        <g>
          <path class="cls-8" d="m257.42,340.03c-.47,0-.92-.18-1.28-.51l-1.85-1.71c-.24-.24-.26-.5-.21-.64.08-.19.32-.22.46-.22h12.52c.21,0,.42.08.59.24l1.94,1.78c.23.21.23.52.15.71-.04.11-.17.35-.47.35h-11.84Z"/>
          <path class="cls-3" d="m267.06,337.45c.09,0,.18.04.25.1l1.94,1.78s.04.03.04.09c0,.06-.03.1-.02.1h-11.84c-.34,0-.68-.14-.94-.38l-1.82-1.68s-.02-.02-.02-.03h12.43m0-1h-12.52c-1.03,0-1.3,1.03-.59,1.73l1.85,1.71c.45.42,1.03.65,1.62.65h11.84c.95,0,1.38-1.27.66-1.93l-1.94-1.78c-.26-.24-.59-.37-.93-.37h0Z"/>
        </g>
        <g>
          <rect class="cls-7" x="233.94" y="306.36" width="37.19" height="7.01"/>
          <path class="cls-3" d="m270.63,306.86v6.01h-36.19v-6.01h36.19m1-1h-38.19v8.01h38.19v-8.01h0Z"/>
        </g>
        <rect class="cls-3" x="234.01" y="318.69" width="19.76" height="1.19"/>
        <rect class="cls-3" x="234.01" y="315.71" width="19.76" height="1.19"/>
        <rect class="cls-3" x="234.01" y="321.47" width="19.76" height="1.19"/>
        <rect class="cls-3" x="234.01" y="324.57" width="7.53" height="1.19"/>
      </g>
      <g>
        <path class="cls-3" d="m295.01,326.92c-.24,0-.48-.08-.67-.26l-13.02-11.76c-.41-.37-.44-1-.07-1.41.37-.41,1-.44,1.41-.07l13.02,11.76c.41.37.44,1,.07,1.41-.2.22-.47.33-.74.33Z"/>
        <g>
          <circle class="cls-15" cx="272.01" cy="304.66" r="14.27"/>
          <path class="cls-3" d="m272.01,319.43c-8.15,0-14.77-6.63-14.77-14.77s6.63-14.77,14.77-14.77,14.77,6.63,14.77,14.77-6.63,14.77-14.77,14.77Zm0-28.54c-7.59,0-13.77,6.18-13.77,13.77s6.18,13.77,13.77,13.77,13.77-6.18,13.77-13.77-6.18-13.77-13.77-13.77Z"/>
        </g>
        <g>
          <rect class="cls-3" x="283.09" y="320.22" width="15.33" height="3.3" rx="1.65" ry="1.65" transform="translate(285.84 -111.85) rotate(41.44)"/>
          <path class="cls-3" d="m295.26,328c-.52,0-1.02-.19-1.42-.54l-9.01-7.96c-.89-.79-.97-2.15-.19-3.04.38-.43.91-.69,1.48-.72.58-.04,1.13.15,1.56.54l9.01,7.96c.43.38.69.91.72,1.48.04.57-.15,1.13-.54,1.56-.38.43-.91.69-1.48.72-.05,0-.09,0-.14,0Zm-9.01-11.26s-.05,0-.07,0c-.31.02-.59.16-.79.39-.42.48-.38,1.21.1,1.63l9.01,7.96c.23.2.53.3.83.29.31-.02.59-.16.79-.39.2-.23.31-.53.29-.83-.02-.31-.16-.59-.39-.79l-9.01-7.96c-.21-.19-.48-.29-.76-.29Z"/>
        </g>
        <g class="cls-27">
          <g>
            <ellipse class="cls-3" cx="269.94" cy="307.04" rx="7.9" ry="5.61" transform="translate(-138.52 289.69) rotate(-46.25)"/>
            <circle class="cls-3" cx="274.88" cy="301.07" r="4.49"/>
            <path class="cls-3" d="m278.42,309.93c-.09,0-.17-.02-.25-.07l-3.01-1.76c-.24-.14-.32-.45-.18-.68.14-.24.44-.32.68-.18l3.01,1.76c.24.14.32.45.18.68-.09.16-.26.25-.43.25Z"/>
            <path class="cls-3" d="m276.3,313.18c-.1,0-.2-.03-.28-.09l-4.14-2.84c-.23-.16-.29-.47-.13-.7.16-.23.47-.28.69-.13l4.14,2.84c.23.16.29.47.13.7-.1.14-.25.22-.41.22Z"/>
            <path class="cls-3" d="m273.19,315.96c-.13,0-.25-.05-.35-.14l-3.62-3.56c-.2-.19-.2-.51,0-.71.19-.2.51-.2.71,0l3.62,3.56c.2.19.2.51,0,.71-.1.1-.23.15-.36.15Z"/>
            <path class="cls-3" d="m263.73,308.2c-.09,0-.17-.02-.25-.07l-3.01-1.76c-.24-.14-.32-.45-.18-.68s.45-.32.68-.18l3.01,1.76c.24.14.32.45.18.68-.09.16-.26.25-.43.25Z"/>
            <path class="cls-3" d="m266.66,305.88c-.1,0-.2-.03-.28-.09l-4.14-2.84c-.23-.16-.29-.47-.13-.7.16-.23.47-.28.69-.13l4.14,2.84c.23.16.29.47.13.7-.1.14-.25.22-.41.22Z"/>
            <path class="cls-3" d="m269.3,303.88c-.13,0-.25-.05-.35-.14l-3.62-3.56c-.2-.19-.2-.51,0-.71.19-.2.51-.2.71,0l3.62,3.56c.2.19.2.51,0,.71-.1.1-.23.15-.36.15Z"/>
            <g>
              <circle class="cls-10" cx="279.46" cy="300.39" r="1.83"/>
              <path class="cls-3" d="m279.46,302.47c-.17,0-.33-.02-.5-.06-1.11-.27-1.8-1.4-1.52-2.51.27-1.11,1.4-1.79,2.51-1.52,1.11.27,1.8,1.4,1.52,2.51-.13.54-.47.99-.94,1.28-.33.2-.7.3-1.07.3Zm0-3.66c-.29,0-.57.08-.82.23-.36.22-.61.56-.71.97-.21.85.31,1.7,1.16,1.91.41.1.83.04,1.19-.18.36-.22.61-.56.71-.97h0c.21-.85-.31-1.7-1.16-1.91-.13-.03-.25-.05-.38-.05Z"/>
            </g>
            <g>
              <circle class="cls-10" cx="274.96" cy="296.7" r="1.83"/>
              <path class="cls-3" d="m274.96,298.77c-.16,0-.33-.02-.49-.06-1.11-.27-1.79-1.4-1.52-2.51.13-.54.46-.99.94-1.28.47-.29,1.03-.37,1.57-.24,1.11.27,1.79,1.4,1.52,2.51h0c-.23.95-1.08,1.58-2.02,1.58Zm0-3.65c-.28,0-.56.08-.81.23-.36.22-.61.56-.71.97-.21.84.31,1.7,1.16,1.9.84.21,1.7-.31,1.9-1.16.21-.84-.31-1.7-1.16-1.9-.13-.03-.25-.05-.38-.05Z"/>
            </g>
            <circle class="cls-3" cx="279.43" cy="300.35" r=".64"/>
            <circle class="cls-3" cx="274.93" cy="296.65" r=".64"/>
          </g>
        </g>
      </g>
    </g>
    <rect class="cls-3" x="162.09" y="267.47" width="1" height="12.42"/>
    <rect class="cls-3" x="151.67" y="267.47" width="1" height="12.42"/>
    <rect class="cls-3" x="157" y="268.67" width="1" height="6.77"/>
    <g>
      <g>
        <path class="cls-18" d="m192.79,102.4l-21.86,21.86c-3.04-.8-6.41-.02-8.79,2.37-3.57,3.57-3.57,9.35,0,12.92s9.35,3.57,12.92,0c2.38-2.38,3.17-5.75,2.37-8.79l21.86-21.86c3.85,1.4,9.41,1.63,12.49-1.45s2.05-8.33.52-12.23l-4.11,6.94-5.29,1.03-4.24-4.24.6-5.54,7.03-4.29c-3.99-1.76-8.83-2.52-12.1.75-3.09,3.09-2.82,8.68-1.42,12.53Z"/>
        <path d="m168.59,142.72c-2.47,0-4.94-.94-6.81-2.82-3.76-3.76-3.76-9.87,0-13.63,2.34-2.34,5.76-3.31,8.99-2.56l21.44-21.44c-1.43-4.17-1.47-9.64,1.64-12.75,3.88-3.88,9.59-2.2,12.65-.85l.88.39-7.64,4.66-.55,5.05,3.88,3.88,4.8-.94,4.51-7.63.37.95c2.24,5.7,2.02,10.12-.63,12.77-3.12,3.12-8.57,3.09-12.72,1.68l-21.44,21.44c.75,3.23-.22,6.65-2.57,8.99-1.88,1.88-4.35,2.82-6.81,2.82Zm0-18.26c-2.27,0-4.48.89-6.11,2.52-3.37,3.37-3.37,8.85,0,12.21s8.85,3.37,12.21,0c2.16-2.16,3.02-5.34,2.24-8.31l-.07-.28,22.29-22.29.3.11c3.76,1.37,9.1,1.53,11.97-1.34,2.72-2.72,2.02-7.16.77-10.72l-3.69,6.23-5.77,1.13-4.59-4.59.65-6.02,6.4-3.9c-2.94-1.13-7.52-2.1-10.64,1.02-2.86,2.86-2.68,8.22-1.3,12l.11.3-22.29,22.29-.28-.07c-.73-.19-1.46-.28-2.2-.28Z"/>
      </g>
      <g>
        <polygon points="167.51 129.12 164.71 131.92 165.74 135.74 169.56 136.77 172.36 133.97 171.34 130.14 167.51 129.12"/>
        <path d="m169.71,137.32l-4.38-1.17-1.17-4.38,3.21-3.21,4.38,1.17,1.17,4.38-3.21,3.21Zm-3.56-1.99l3.27.88,2.39-2.39-.87-3.27-3.27-.88-2.39,2.39.88,3.27Z"/>
      </g>
    </g>
    <g>
      <path d="m223.96,216.37c-.44-.23-.8-.53-1.09-.92-.29-.39-.48-.82-.58-1.29l1.37-.86c.14.55.36,1,.66,1.34s.68.51,1.15.51c.36,0,.64-.09.86-.27.22-.18.33-.45.33-.81,0-.23-.07-.42-.22-.6-.15-.17-.33-.33-.55-.46-.22-.13-.54-.29-.94-.49l-.38-.18c-.52-.26-.94-.59-1.25-.98-.31-.39-.47-.9-.47-1.51,0-.46.11-.88.32-1.25.21-.37.51-.67.9-.88.39-.21.83-.32,1.32-.32,1.26,0,2.11.55,2.57,1.65l-1.37.87c-.23-.64-.63-.96-1.21-.96-.25,0-.47.08-.65.24-.18.16-.27.36-.27.59s.08.44.24.62.36.33.58.46c.23.13.56.29.99.49.42.2.78.4,1.07.61.29.21.53.48.71.81.19.33.28.74.28,1.22,0,.55-.12,1.03-.37,1.44-.25.41-.59.73-1.03.95-.44.22-.94.33-1.51.33s-1.02-.11-1.46-.34Z"/>
      <path d="m230.87,216.26c-.5-.29-.89-.7-1.15-1.21-.26-.51-.4-1.09-.4-1.73s.13-1.22.4-1.73c.26-.51.65-.92,1.15-1.21s1.1-.44,1.78-.44,1.28.15,1.78.44c.5.29.89.7,1.15,1.21.26.51.4,1.09.4,1.73s-.13,1.22-.4,1.73c-.26.51-.65.91-1.15,1.21-.5.29-1.1.44-1.78.44s-1.28-.15-1.78-.44Zm2.98-1.51c.29-.39.44-.86.44-1.42s-.15-1.04-.44-1.42c-.29-.38-.69-.58-1.2-.58s-.9.19-1.2.58c-.29.39-.44.86-.44,1.42s.15,1.04.44,1.42.69.58,1.2.58.9-.19,1.2-.58Z"/>
      <path d="m236.64,211.43v-1.38h.83v-.34c0-.77.2-1.35.6-1.74.4-.39.96-.58,1.66-.58.49,0,.9.09,1.22.26l-.35,1.3c-.29-.12-.55-.18-.78-.18-.49,0-.74.27-.74.82v.46h1.38v1.38h-1.38v5.17h-1.61v-5.17h-.83Z"/>
      <path d="m242.97,216.09c-.42-.41-.64-1.01-.64-1.81v-2.86h-1.01v-1.38h1.01v-1.64l1.61-1.01v2.65h1.73v1.38h-1.73v2.83c0,.39.07.67.21.83.14.16.36.24.64.24.22,0,.42-.05.62-.16l.38,1.3c-.34.16-.69.23-1.07.23-.75,0-1.34-.2-1.77-.61Z"/>
      <path d="m246.15,210.05h1.62l1.17,4.5,1.1-4.5h1.51l1.11,4.5,1.17-4.5h1.62l-2.09,6.55h-1.43l-1.13-4.24-1.13,4.24h-1.43l-2.09-6.55Z"/>
      <path d="m256.58,216.19c-.37-.35-.56-.84-.56-1.47s.25-1.17.74-1.56c.49-.39,1.16-.58,2-.58h1.14v-.29c0-.32-.11-.56-.33-.72-.22-.16-.49-.24-.82-.24-.56,0-.94.25-1.13.75l-1.36-.31c.1-.55.38-.99.84-1.32.46-.33,1.01-.5,1.66-.5.88,0,1.55.23,2.03.7.48.46.72,1.15.72,2.05v3.91h-1.33l-.17-.83c-.51.62-1.18.94-2.02.94-.58,0-1.06-.17-1.43-.52Zm2.89-1.23c.29-.25.44-.57.44-.98v-.13h-1.08c-.36,0-.63.07-.83.21-.2.14-.29.35-.29.64,0,.19.07.34.2.46.13.12.31.18.53.18.39,0,.73-.12,1.03-.37Z"/>
      <path d="m264.77,210.05v1.07c.23-.37.52-.66.86-.86s.7-.31,1.08-.31c.24,0,.51.04.79.13l-.3,1.5c-.2-.12-.42-.18-.68-.18-.51,0-.93.23-1.26.7-.33.46-.49,1.19-.49,2.19v2.33h-1.61v-6.55h1.61Z"/>
      <path d="m274.12,213.85h-4.52c.07.49.24.85.51,1.1.27.25.62.38,1.05.38.36,0,.67-.08.92-.25.25-.16.47-.42.67-.77l1.3.48c-.27.62-.64,1.09-1.12,1.42-.48.33-1.1.49-1.85.49-.71,0-1.3-.17-1.77-.5-.47-.33-.82-.76-1.04-1.27-.22-.52-.33-1.05-.33-1.61s.11-1.09.33-1.61c.22-.52.57-.94,1.04-1.27.47-.33,1.06-.5,1.77-.5s1.26.16,1.72.49c.46.33.8.73,1.01,1.23s.33,1,.33,1.52v.66Zm-1.65-1.27c-.08-.36-.23-.66-.46-.9-.23-.23-.54-.35-.94-.35-.35,0-.65.11-.9.32-.25.21-.43.52-.53.93h2.83Z"/>
      <path d="m281.77,207.5c.75,0,1.45.17,2.09.49.64.33,1.16.83,1.55,1.51.39.68.59,1.53.59,2.54s-.2,1.86-.59,2.54-.91,1.19-1.55,1.51c-.64.33-1.34.49-2.09.49h-2.85v-9.1h2.85Zm1.64,6.87c.58-.45.88-1.22.88-2.32s-.29-1.87-.88-2.32c-.58-.45-1.31-.67-2.18-.67h-.62v5.98h.62c.87,0,1.59-.22,2.18-.67Z"/>
      <path d="m293.36,213.85h-4.52c.07.49.24.85.51,1.1.27.25.62.38,1.05.38.36,0,.67-.08.92-.25.25-.16.47-.42.67-.77l1.3.48c-.27.62-.64,1.09-1.12,1.42-.48.33-1.1.49-1.85.49-.71,0-1.3-.17-1.77-.5-.47-.33-.82-.76-1.04-1.27-.22-.52-.33-1.05-.33-1.61s.11-1.09.33-1.61c.22-.52.57-.94,1.04-1.27.47-.33,1.06-.5,1.77-.5s1.26.16,1.72.49c.46.33.8.73,1.01,1.23s.33,1,.33,1.52v.66Zm-1.65-1.27c-.08-.36-.23-.66-.46-.9-.23-.23-.54-.35-.94-.35-.35,0-.65.11-.9.32-.25.21-.43.52-.53.93h2.83Z"/>
      <path d="m294.02,210.05h1.62l1.33,4.56,1.33-4.56h1.62l-2.22,6.55h-1.46l-2.22-6.55Z"/>
      <path d="m306.68,213.85h-4.52c.07.49.24.85.51,1.1.27.25.62.38,1.05.38.36,0,.67-.08.92-.25.25-.16.47-.42.67-.77l1.3.48c-.27.62-.64,1.09-1.12,1.42-.48.33-1.1.49-1.85.49-.71,0-1.3-.17-1.77-.5-.47-.33-.82-.76-1.04-1.27-.22-.52-.33-1.05-.33-1.61s.11-1.09.33-1.61c.22-.52.57-.94,1.04-1.27.47-.33,1.06-.5,1.77-.5s1.26.16,1.72.49c.46.33.8.73,1.01,1.23s.33,1,.33,1.52v.66Zm-1.65-1.27c-.08-.36-.23-.66-.46-.9-.23-.23-.54-.35-.94-.35-.35,0-.65.11-.9.32-.25.21-.43.52-.53.93h2.83Z"/>
      <path d="m308.14,207.4h1.61v9.2h-1.61v-9.2Z"/>
      <path d="m312.75,216.26c-.5-.29-.89-.7-1.15-1.21-.26-.51-.4-1.09-.4-1.73s.13-1.22.4-1.73c.26-.51.65-.92,1.15-1.21s1.1-.44,1.78-.44,1.28.15,1.78.44c.5.29.89.7,1.15,1.21.26.51.4,1.09.4,1.73s-.13,1.22-.4,1.73c-.26.51-.65.91-1.15,1.21-.5.29-1.1.44-1.78.44s-1.28-.15-1.78-.44Zm2.98-1.51c.29-.39.44-.86.44-1.42s-.15-1.04-.44-1.42c-.29-.38-.69-.58-1.2-.58s-.9.19-1.2.58c-.29.39-.44.86-.44,1.42s.15,1.04.44,1.42.69.58,1.2.58.9-.19,1.2-.58Z"/>
      <path d="m320.93,210.05v.68c.1-.19.3-.37.59-.53.29-.16.62-.25,1-.25.96,0,1.7.31,2.22.92.52.61.77,1.43.77,2.46s-.26,1.85-.77,2.46c-.52.61-1.25.92-2.22.92-.32,0-.63-.07-.92-.21-.29-.14-.52-.3-.66-.49v3.25h-1.61v-9.2h1.61Zm2.46,4.74c.29-.35.43-.84.43-1.47s-.14-1.12-.43-1.48c-.29-.35-.65-.53-1.09-.53s-.8.18-1.08.53c-.28.35-.42.84-.42,1.48s.14,1.12.42,1.48c.28.35.64.53,1.08.53s.81-.18,1.09-.53Z"/>
      <path d="m328.57,210.05v1.05c.25-.38.53-.67.83-.86.3-.2.65-.29,1.06-.29s.8.11,1.13.34c.33.23.56.56.7,1.01.23-.42.53-.76.88-.99.35-.24.73-.36,1.12-.36.61,0,1.08.18,1.43.53.35.36.52.85.52,1.48v4.64h-1.61v-4.37c0-.61-.27-.91-.81-.91-.42,0-.76.23-1.02.7-.26.47-.4,1.14-.4,2.03v2.55h-1.61v-4.37c0-.61-.27-.91-.81-.91-.42,0-.76.25-1.02.73-.26.49-.4,1.2-.4,2.14v2.41h-1.61v-6.55h1.61Z"/>
      <path d="m343.9,213.85h-4.52c.07.49.24.85.51,1.1.27.25.62.38,1.05.38.36,0,.67-.08.92-.25.25-.16.47-.42.67-.77l1.3.48c-.27.62-.64,1.09-1.12,1.42-.48.33-1.1.49-1.85.49-.71,0-1.3-.17-1.77-.5-.47-.33-.82-.76-1.04-1.27-.22-.52-.33-1.05-.33-1.61s.11-1.09.33-1.61c.22-.52.57-.94,1.04-1.27.47-.33,1.06-.5,1.77-.5s1.26.16,1.72.49c.46.33.8.73,1.01,1.23s.33,1,.33,1.52v.66Zm-1.65-1.27c-.08-.36-.23-.66-.46-.9-.23-.23-.54-.35-.94-.35-.35,0-.65.11-.9.32-.25.21-.43.52-.53.93h2.83Z"/>
      <path d="m346.97,210.05v1.05c.25-.36.55-.64.9-.85.35-.21.72-.31,1.13-.31.61,0,1.09.17,1.46.51.37.34.55.83.55,1.47v4.68h-1.61v-4.2c0-.37-.08-.65-.25-.82-.17-.17-.4-.26-.68-.26-.27,0-.52.1-.74.31-.23.21-.41.51-.55.92-.14.4-.21.88-.21,1.44v2.61h-1.61v-6.55h1.61Z"/>
      <path d="m353.57,216.09c-.42-.41-.64-1.01-.64-1.81v-2.86h-1.01v-1.38h1.01v-1.64l1.61-1.01v2.65h1.73v1.38h-1.73v2.83c0,.39.07.67.21.83.14.16.36.24.64.24.22,0,.42-.05.62-.16l.38,1.3c-.34.16-.69.23-1.07.23-.75,0-1.34-.2-1.77-.61Z"/>
      <path d="m360.88,207.5h1.69v7.54h3.86v1.56h-5.55v-9.1Z"/>
      <path d="m367.85,208.91c-.2-.2-.3-.45-.3-.74s.1-.54.3-.74c.2-.2.45-.3.74-.3s.54.1.74.3c.2.2.3.45.3.74s-.1.54-.3.74c-.2.2-.45.3-.74.3s-.54-.1-.74-.3Zm-.06,1.14h1.61v6.55h-1.61v-6.55Z"/>
      <path d="m370.42,211.43v-1.38h.83v-.34c0-.77.2-1.35.6-1.74.4-.39.96-.58,1.66-.58.49,0,.9.09,1.22.26l-.35,1.3c-.29-.12-.55-.18-.78-.18-.49,0-.74.27-.74.82v.46h1.38v1.38h-1.38v5.17h-1.61v-5.17h-.83Z"/>
      <path d="m381.12,213.85h-4.52c.07.49.24.85.51,1.1.27.25.62.38,1.05.38.36,0,.67-.08.92-.25.25-.16.47-.42.67-.77l1.3.48c-.27.62-.64,1.09-1.12,1.42-.48.33-1.1.49-1.85.49-.71,0-1.3-.17-1.77-.5-.47-.33-.82-.76-1.04-1.27-.22-.52-.33-1.05-.33-1.61s.11-1.09.33-1.61c.22-.52.57-.94,1.04-1.27.47-.33,1.06-.5,1.77-.5s1.26.16,1.72.49c.46.33.8.73,1.01,1.23s.33,1,.33,1.52v.66Zm-1.65-1.27c-.08-.36-.23-.66-.46-.9-.23-.23-.54-.35-.94-.35-.35,0-.65.11-.9.32-.25.21-.43.52-.53.93h2.83Z"/>
      <path d="m387.64,216.17c-.65-.36-1.18-.89-1.57-1.59-.39-.7-.58-1.54-.58-2.52s.2-1.82.58-2.52c.39-.7.91-1.23,1.57-1.59.65-.36,1.37-.54,2.15-.54.99,0,1.81.24,2.46.72s1.09,1.16,1.31,2.03l-1.52.39c-.19-.5-.46-.89-.82-1.17s-.83-.42-1.43-.42c-.49,0-.92.12-1.31.34s-.7.58-.93,1.04c-.23.46-.34,1.03-.34,1.71s.11,1.25.34,1.71.54.81.93,1.04.83.34,1.31.34c.6,0,1.07-.14,1.43-.42s.63-.67.82-1.17l1.52.39c-.22.88-.65,1.55-1.31,2.03-.65.48-1.48.72-2.46.72-.78,0-1.5-.18-2.15-.54Z"/>
      <path d="m398.81,210.05h1.61l-3.38,9.2h-1.56l1.12-3.09-2.37-6.11h1.62l1.5,4.03,1.46-4.03Z"/>
      <path d="m402.29,216.26c-.48-.3-.84-.7-1.08-1.22-.24-.51-.36-1.08-.36-1.72s.12-1.2.36-1.72c.24-.51.6-.92,1.08-1.22.48-.3,1.06-.45,1.75-.45.73,0,1.35.16,1.85.47.51.32.88.78,1.12,1.4l-1.44.58c-.17-.36-.38-.62-.63-.81-.25-.18-.55-.27-.9-.27-.49,0-.87.18-1.12.55s-.38.85-.38,1.45.13,1.08.38,1.45c.26.37.63.55,1.12.55.36,0,.66-.09.9-.27.25-.18.46-.45.63-.81l1.44.58c-.24.62-.62,1.08-1.12,1.4-.51.32-1.12.47-1.85.47-.68,0-1.27-.15-1.75-.45Z"/>
      <path d="m408.31,207.4h1.61v9.2h-1.61v-9.2Z"/>
      <path d="m417.58,213.85h-4.52c.07.49.24.85.51,1.1.27.25.62.38,1.05.38.36,0,.67-.08.92-.25.25-.16.47-.42.67-.77l1.3.48c-.27.62-.64,1.09-1.12,1.42-.48.33-1.1.49-1.85.49-.71,0-1.3-.17-1.77-.5-.47-.33-.82-.76-1.04-1.27-.22-.52-.33-1.05-.33-1.61s.11-1.09.33-1.61c.22-.52.57-.94,1.04-1.27.47-.33,1.06-.5,1.77-.5s1.26.16,1.72.49c.46.33.8.73,1.01,1.23s.33,1,.33,1.52v.66Zm-1.65-1.27c-.08-.36-.23-.66-.46-.9-.23-.23-.54-.35-.94-.35-.35,0-.65.11-.9.32-.25.21-.43.52-.53.93h2.83Z"/>
    </g>
  </g>
</svg>